<?xml version="1.0" encoding="utf-8"?>
<!-- Generator: Adobe Illustrator 17.0.0, SVG Export Plug-In . SVG Version: 6.00 Build 0)  -->
<!DOCTYPE svg PUBLIC "-//W3C//DTD SVG 1.1//EN" "http://www.w3.org/Graphics/SVG/1.1/DTD/svg11.dtd">
<svg version="1.1" id="Capa_1" xmlns="http://www.w3.org/2000/svg" xmlns:xlink="http://www.w3.org/1999/xlink" x="0px" y="0px"
	 width="428.22px" height="96.867px" viewBox="0 0 428.22 96.867" enable-background="new 0 0 428.22 96.867" xml:space="preserve">
<g>
	<line fill="none" stroke="#000000" stroke-miterlimit="10" x1="110.62" y1="24.853" x2="79.655" y2="79.498"/>
	<line fill="none" stroke="#000000" stroke-miterlimit="10" x1="110.256" y1="24.853" x2="143.407" y2="80.226"/>
	<line fill="none" stroke="#000000" stroke-miterlimit="10" x1="109.892" y1="24.853" x2="206.066" y2="79.862"/>
	<line fill="none" stroke="#000000" stroke-miterlimit="10" x1="110.256" y1="25.582" x2="15.903" y2="79.862"/>
	<circle fill="#C10C9F" stroke="#000000" stroke-miterlimit="10" cx="111.242" cy="25.321" r="10.382"/>
	<g>
		<circle fill="#FFFFFF" stroke="#000000" stroke-miterlimit="10" cx="16.347" cy="80.521" r="15.847"/>
		<circle fill="#FFFFFF" stroke="#000000" stroke-miterlimit="10" cx="79.61" cy="80.521" r="15.847"/>
		<circle fill="#FFFFFF" stroke="#000000" stroke-miterlimit="10" cx="142.873" cy="80.521" r="15.847"/>
		<circle fill="#FFFFFF" stroke="#000000" stroke-miterlimit="10" cx="206.136" cy="80.521" r="15.847"/>
	</g>
	<circle fill="#E20000" stroke="#000000" stroke-miterlimit="10" cx="20.019" cy="83.967" r="2.732"/>
	<circle fill="#E20000" stroke="#000000" stroke-miterlimit="10" cx="6.366" cy="80.717" r="2.732"/>
	<circle fill="#E20000" stroke="#000000" stroke-miterlimit="10" cx="146.796" cy="74.865" r="2.732"/>
	<circle fill="#E20000" stroke="#000000" stroke-miterlimit="10" cx="138.344" cy="85.267" r="2.732"/>
	<circle fill="#E20000" stroke="#000000" stroke-miterlimit="10" cx="77.881" cy="85.267" r="2.732"/>
	<circle fill="#E20000" stroke="#000000" stroke-miterlimit="10" cx="21.969" cy="74.215" r="2.732"/>
	<circle fill="#E20000" stroke="#000000" stroke-miterlimit="10" cx="10.917" cy="88.518" r="2.732"/>
	<circle fill="#E8DD18" stroke="#000000" stroke-miterlimit="10" cx="13.518" cy="74.865" r="2.732"/>
	<circle fill="#E8DD18" stroke="#000000" stroke-miterlimit="10" cx="211.809" cy="74.215" r="2.732"/>
	<circle fill="#E8DD18" stroke="#000000" stroke-miterlimit="10" cx="73.98" cy="74.215" r="2.732"/>
	<circle fill="#E8DD18" stroke="#000000" stroke-miterlimit="10" cx="200.757" cy="85.267" r="2.732"/>
	<circle fill="#E8DD18" stroke="#000000" stroke-miterlimit="10" cx="208.558" cy="83.317" r="2.732"/>
	<circle fill="#02AD02" stroke="#000000" stroke-miterlimit="10" cx="85.033" cy="77.466" r="2.732"/>
	<circle fill="#02AD02" stroke="#000000" stroke-miterlimit="10" cx="198.156" cy="76.166" r="2.732"/>
	<g>
		<path d="M35.673,52.055h-1.934l-0.195,1.302c0.117-0.016,0.226-0.031,0.413-0.031c0.39,0,0.78,0.086,1.092,0.273
			c0.397,0.226,0.725,0.663,0.725,1.302c0,0.99-0.788,1.731-1.887,1.731c-0.554,0-1.021-0.156-1.263-0.312l0.171-0.521
			c0.21,0.124,0.624,0.28,1.084,0.28c0.647,0,1.201-0.421,1.201-1.1c-0.008-0.655-0.444-1.123-1.458-1.123
			c-0.289,0-0.515,0.031-0.702,0.055l0.328-2.433h2.425V52.055z"/>
		<path d="M36.291,56.858l2.175-5.652h0.53l-2.183,5.652H36.291z"/>
		<path d="M40.815,52.118h-0.016l-0.881,0.476l-0.132-0.522l1.107-0.593h0.585v5.068h-0.663V52.118z"/>
		<path d="M45.449,56.546v-1.38h-2.354v-0.452l2.261-3.236h0.741v3.15h0.709v0.538h-0.709v1.38H45.449z M45.449,54.628v-1.692
			c0-0.265,0.008-0.53,0.023-0.795h-0.023c-0.156,0.296-0.281,0.515-0.421,0.748l-1.24,1.724v0.016H45.449z"/>
	</g>
	<g>
		<path d="M74.341,55.759c0.195,0.124,0.647,0.319,1.123,0.319c0.881,0,1.154-0.562,1.146-0.982c-0.008-0.71-0.647-1.014-1.31-1.014
			h-0.382v-0.515H75.3c0.499,0,1.131-0.258,1.131-0.857c0-0.406-0.257-0.765-0.889-0.765c-0.405,0-0.795,0.18-1.014,0.336
			l-0.179-0.499c0.265-0.195,0.78-0.391,1.326-0.391c0.998,0,1.45,0.593,1.45,1.209c0,0.522-0.312,0.967-0.936,1.193v0.015
			c0.624,0.125,1.13,0.593,1.13,1.303c0,0.811-0.631,1.521-1.848,1.521c-0.569,0-1.068-0.18-1.317-0.343L74.341,55.759z"/>
		<path d="M77.821,56.858l2.175-5.652h0.53l-2.183,5.652H77.821z"/>
		<path d="M82.345,52.118h-0.016l-0.881,0.476l-0.132-0.522l1.107-0.593h0.585v5.068h-0.663V52.118z"/>
		<path d="M86.978,56.546v-1.38h-2.354v-0.452l2.261-3.236h0.741v3.15h0.71v0.538h-0.71v1.38H86.978z M86.978,54.628v-1.692
			c0-0.265,0.008-0.53,0.023-0.795h-0.023c-0.156,0.296-0.281,0.515-0.421,0.748l-1.24,1.724v0.016H86.978z"/>
	</g>
	<g>
		<path d="M108.786,56.546v-0.421l0.538-0.522c1.294-1.232,1.879-1.887,1.887-2.651c0-0.515-0.25-0.99-1.006-0.99
			c-0.46,0-0.842,0.234-1.076,0.429l-0.218-0.483c0.351-0.296,0.85-0.515,1.435-0.515c1.092,0,1.552,0.749,1.552,1.474
			c0,0.937-0.678,1.692-1.747,2.722l-0.405,0.374v0.016h2.277v0.569H108.786z"/>
		<path d="M112.429,56.858l2.175-5.652h0.53l-2.183,5.652H112.429z"/>
		<path d="M116.953,52.118h-0.016l-0.881,0.476l-0.132-0.522l1.107-0.593h0.585v5.068h-0.663V52.118z"/>
		<path d="M121.587,56.546v-1.38h-2.354v-0.452l2.261-3.236h0.741v3.15h0.71v0.538h-0.71v1.38H121.587z M121.587,54.628v-1.692
			c0-0.265,0.008-0.53,0.023-0.795h-0.023c-0.156,0.296-0.281,0.515-0.421,0.748l-1.24,1.724v0.016H121.587z"/>
	</g>
	<g>
		<path d="M179.394,56.546v-1.38h-2.354v-0.452l2.261-3.236h0.741v3.15h0.709v0.538h-0.709v1.38H179.394z M179.394,54.628v-1.692
			c0-0.265,0.008-0.53,0.023-0.795h-0.023c-0.156,0.296-0.28,0.515-0.421,0.748l-1.24,1.724v0.016H179.394z"/>
		<path d="M180.916,56.858l2.176-5.652h0.53l-2.184,5.652H180.916z"/>
		<path d="M185.44,52.118h-0.016l-0.881,0.476l-0.133-0.522l1.107-0.593h0.585v5.068h-0.663V52.118z"/>
		<path d="M190.074,56.546v-1.38h-2.354v-0.452l2.261-3.236h0.741v3.15h0.709v0.538h-0.709v1.38H190.074z M190.074,54.628v-1.692
			c0-0.265,0.008-0.53,0.023-0.795h-0.023c-0.156,0.296-0.28,0.515-0.421,0.748l-1.24,1.724v0.016H190.074z"/>
	</g>
</g>
<line fill="none" stroke="#000000" stroke-miterlimit="10" x1="348.483" y1="24.853" x2="348.655" y2="79.498"/>
<line fill="none" stroke="#000000" stroke-miterlimit="10" x1="349.604" y1="25.394" x2="412.407" y2="80.226"/>
<line fill="none" stroke="#000000" stroke-miterlimit="10" x1="349.604" y1="25.394" x2="284.903" y2="79.862"/>
<circle fill="#C10C9F" stroke="#000000" stroke-miterlimit="10" cx="349.242" cy="25.321" r="10.382"/>
<circle fill="#FFFFFF" stroke="#000000" stroke-miterlimit="10" cx="285.347" cy="80.521" r="15.847"/>
<circle fill="#FFFFFF" stroke="#000000" stroke-miterlimit="10" cx="348.61" cy="80.521" r="15.847"/>
<circle fill="#FFFFFF" stroke="#000000" stroke-miterlimit="10" cx="411.873" cy="80.521" r="15.847"/>
<circle fill="#E20000" stroke="#000000" stroke-miterlimit="10" cx="285.019" cy="80.967" r="2.732"/>
<circle fill="#E20000" stroke="#000000" stroke-miterlimit="10" cx="275.366" cy="80.717" r="2.732"/>
<circle fill="#E20000" stroke="#000000" stroke-miterlimit="10" cx="347.796" cy="79.865" r="2.732"/>
<circle fill="#E20000" stroke="#000000" stroke-miterlimit="10" cx="292.344" cy="87.267" r="2.732"/>
<circle fill="#E20000" stroke="#000000" stroke-miterlimit="10" cx="283.881" cy="73.267" r="2.732"/>
<circle fill="#E20000" stroke="#000000" stroke-miterlimit="10" cx="290.969" cy="74.215" r="2.732"/>
<circle fill="#E20000" stroke="#000000" stroke-miterlimit="10" cx="279.917" cy="88.518" r="2.732"/>
<circle fill="#E8DD18" stroke="#000000" stroke-miterlimit="10" cx="419.518" cy="84.865" r="2.732"/>
<circle fill="#E8DD18" stroke="#000000" stroke-miterlimit="10" cx="356.809" cy="82.215" r="2.732"/>
<circle fill="#E8DD18" stroke="#000000" stroke-miterlimit="10" cx="347.98" cy="88.215" r="2.732"/>
<circle fill="#E8DD18" stroke="#000000" stroke-miterlimit="10" cx="406.757" cy="74.267" r="2.732"/>
<circle fill="#E8DD18" stroke="#000000" stroke-miterlimit="10" cx="340.558" cy="73.317" r="2.732"/>
<circle fill="#02AD02" stroke="#000000" stroke-miterlimit="10" cx="409.033" cy="83.466" r="2.732"/>
<circle fill="#02AD02" stroke="#000000" stroke-miterlimit="10" cx="416.156" cy="76.166" r="2.732"/>
<g>
	<path d="M295.54,51.961c-0.141-0.008-0.32,0-0.515,0.031c-1.076,0.18-1.646,0.967-1.763,1.802h0.023
		c0.242-0.32,0.663-0.585,1.225-0.585c0.896,0,1.528,0.646,1.528,1.637c0,0.929-0.632,1.786-1.685,1.786
		c-1.084,0-1.793-0.842-1.793-2.16c0-0.998,0.358-1.785,0.857-2.284c0.421-0.413,0.982-0.671,1.622-0.749
		c0.202-0.031,0.374-0.039,0.499-0.039V51.961z M295.345,54.885c0-0.725-0.413-1.161-1.045-1.161c-0.413,0-0.795,0.257-0.982,0.623
		c-0.047,0.078-0.078,0.18-0.078,0.305c0.016,0.834,0.398,1.45,1.115,1.45C294.948,56.102,295.345,55.611,295.345,54.885z"/>
	<path d="M296.29,56.858l2.176-5.652h0.53l-2.184,5.652H296.29z"/>
	<path d="M300.815,52.118h-0.016l-0.882,0.476l-0.132-0.522l1.106-0.593h0.585v5.068h-0.662V52.118z"/>
	<path d="M305.449,56.546v-1.38h-2.354v-0.452l2.261-3.236h0.741v3.15h0.709v0.538h-0.709v1.38H305.449z M305.449,54.628v-1.692
		c0-0.265,0.008-0.53,0.023-0.795h-0.023c-0.156,0.296-0.281,0.515-0.421,0.748l-1.24,1.724v0.016H305.449z"/>
</g>
<g>
	<path d="M332.298,56.546v-1.38h-2.354v-0.452l2.261-3.236h0.741v3.15h0.709v0.538h-0.709v1.38H332.298z M332.298,54.628v-1.692
		c0-0.265,0.008-0.53,0.023-0.795h-0.023c-0.156,0.296-0.281,0.515-0.421,0.748l-1.24,1.724v0.016H332.298z"/>
	<path d="M333.821,56.858l2.175-5.652h0.53l-2.183,5.652H333.821z"/>
	<path d="M338.344,52.118h-0.016l-0.881,0.476l-0.133-0.522l1.107-0.593h0.585v5.068h-0.663V52.118z"/>
	<path d="M342.978,56.546v-1.38h-2.354v-0.452l2.261-3.236h0.741v3.15h0.71v0.538h-0.71v1.38H342.978z M342.978,54.628v-1.692
		c0-0.265,0.008-0.53,0.023-0.795h-0.023c-0.155,0.296-0.28,0.515-0.421,0.748l-1.239,1.724v0.016H342.978z"/>
</g>
<g>
	<path d="M390.907,56.546v-1.38h-2.354v-0.452l2.261-3.236h0.741v3.15h0.71v0.538h-0.71v1.38H390.907z M390.907,54.628v-1.692
		c0-0.265,0.008-0.53,0.023-0.795h-0.023c-0.155,0.296-0.28,0.515-0.421,0.748l-1.239,1.724v0.016H390.907z"/>
	<path d="M392.429,56.858l2.176-5.652h0.53l-2.184,5.652H392.429z"/>
	<path d="M396.953,52.118h-0.016l-0.882,0.476l-0.132-0.522l1.106-0.593h0.585v5.068h-0.662V52.118z"/>
	<path d="M401.587,56.546v-1.38h-2.354v-0.452l2.261-3.236h0.74v3.15h0.71v0.538h-0.71v1.38H401.587z M401.587,54.628v-1.692
		c0-0.265,0.008-0.53,0.023-0.795h-0.023c-0.156,0.296-0.281,0.515-0.421,0.748l-1.24,1.724v0.016H401.587z"/>
</g>
<g>
	<path d="M125.568,14.747l-2.639-8.083h1.127l1.259,3.982c0.348,1.091,0.648,2.075,0.864,3.022h0.024
		c0.228-0.935,0.563-1.955,0.923-3.01l1.367-3.994h1.116l-2.891,8.083H125.568z"/>
	<path d="M131.226,14.773h-0.014l-0.79,0.427l-0.119-0.468l0.993-0.531h0.524v4.542h-0.594V14.773z"/>
</g>
<g>
</g>
<g>
	<path d="M364.42,14.747l-2.639-8.083h1.128l1.259,3.982c0.349,1.091,0.648,2.075,0.864,3.022h0.024
		c0.228-0.935,0.562-1.955,0.923-3.01l1.367-3.994h1.116l-2.891,8.083H364.42z"/>
	<path d="M368.744,18.743v-0.377l0.482-0.468c1.16-1.104,1.684-1.691,1.691-2.376c0-0.461-0.225-0.888-0.902-0.888
		c-0.412,0-0.754,0.21-0.964,0.384l-0.196-0.433c0.314-0.266,0.762-0.461,1.287-0.461c0.978,0,1.391,0.671,1.391,1.321
		c0,0.839-0.608,1.517-1.566,2.439l-0.363,0.335v0.014h2.041v0.51H368.744z"/>
</g>
<g>
</g>
<g>
</g>
<g>
</g>
<g>
</g>
<g>
</g>
<g>
</g>
<g>
</g>
<g>
</g>
<g>
</g>
<g>
</g>
<g>
</g>
<g>
</g>
<g>
</g>
<g>
</g>
<g>
</g>
</svg>
