<?xml version="1.0" encoding="utf-8"?>
<!-- Generator: Adobe Illustrator 17.0.0, SVG Export Plug-In . SVG Version: 6.00 Build 0)  -->
<!DOCTYPE svg PUBLIC "-//W3C//DTD SVG 1.1//EN" "http://www.w3.org/Graphics/SVG/1.1/DTD/svg11.dtd">
<svg version="1.1" id="Capa_1" xmlns="http://www.w3.org/2000/svg" xmlns:xlink="http://www.w3.org/1999/xlink" x="0px" y="0px"
	 width="253.937px" height="225.412px" viewBox="0 0 253.937 225.412" enable-background="new 0 0 253.937 225.412"
	 xml:space="preserve">
<g>
	<circle stroke="#000000" stroke-miterlimit="10" cx="6.744" cy="51.118" r="5.882"/>
	<circle stroke="#000000" stroke-miterlimit="10" cx="6.382" cy="92.176" r="5.882"/>
	<circle stroke="#000000" stroke-miterlimit="10" cx="6.382" cy="133.235" r="5.882"/>
	<circle stroke="#000000" stroke-miterlimit="10" cx="6.382" cy="174.294" r="5.882"/>
</g>
<line fill="none" stroke="#000000" stroke-miterlimit="10" x1="6.937" y1="50.277" x2="114.181" y2="15.618"/>
<line fill="none" stroke="#000000" stroke-miterlimit="10" x1="7.437" y1="50.777" x2="113.937" y2="64.277"/>
<line fill="none" stroke="#000000" stroke-miterlimit="10" x1="113.937" y1="15.277" x2="6.437" y2="92.277"/>
<line fill="none" stroke="#000000" stroke-miterlimit="10" x1="6.937" y1="51.277" x2="114.937" y2="210.277"/>
<line fill="none" stroke="#000000" stroke-miterlimit="10" x1="6.937" y1="51.277" x2="114.437" y2="162.277"/>
<line fill="none" stroke="#000000" stroke-miterlimit="10" x1="6.937" y1="51.277" x2="112.937" y2="113.777"/>
<line fill="none" stroke="#000000" stroke-miterlimit="10" x1="114.937" y1="64.277" x2="212.937" y2="63.777"/>
<line fill="none" stroke="#000000" stroke-miterlimit="10" x1="113.937" y1="15.777" x2="213.681" y2="63.118"/>
<line fill="none" stroke="#000000" stroke-miterlimit="10" x1="6.937" y1="174.277" x2="113.437" y2="15.777"/>
<line fill="none" stroke="#000000" stroke-miterlimit="10" x1="6.437" y1="173.777" x2="111.937" y2="64.777"/>
<line fill="none" stroke="#000000" stroke-miterlimit="10" x1="7.437" y1="173.777" x2="114.937" y2="113.777"/>
<line fill="none" stroke="#000000" stroke-miterlimit="10" x1="7.937" y1="172.777" x2="113.937" y2="162.777"/>
<line fill="none" stroke="#000000" stroke-miterlimit="10" x1="6.437" y1="174.277" x2="114.437" y2="210.277"/>
<line fill="none" stroke="#000000" stroke-miterlimit="10" x1="6.437" y1="133.777" x2="114.437" y2="210.777"/>
<line fill="none" stroke="#000000" stroke-miterlimit="10" x1="6.937" y1="133.777" x2="113.937" y2="162.277"/>
<line fill="none" stroke="#000000" stroke-miterlimit="10" x1="6.437" y1="132.777" x2="115.437" y2="114.277"/>
<line fill="none" stroke="#000000" stroke-miterlimit="10" x1="8.937" y1="133.277" x2="113.437" y2="64.777"/>
<line fill="none" stroke="#000000" stroke-miterlimit="10" x1="6.937" y1="133.277" x2="112.937" y2="15.777"/>
<line fill="none" stroke="#000000" stroke-miterlimit="10" x1="6.937" y1="92.277" x2="114.937" y2="209.777"/>
<line fill="none" stroke="#000000" stroke-miterlimit="10" x1="6.937" y1="92.277" x2="114.437" y2="161.777"/>
<line fill="none" stroke="#000000" stroke-miterlimit="10" x1="6.937" y1="91.277" x2="115.437" y2="114.277"/>
<line fill="none" stroke="#000000" stroke-miterlimit="10" x1="114.937" y1="114.777" x2="213.437" y2="111.777"/>
<line fill="none" stroke="#000000" stroke-miterlimit="10" x1="116.937" y1="210.277" x2="212.937" y2="160.777"/>
<line fill="none" stroke="#000000" stroke-miterlimit="10" x1="114.437" y1="161.777" x2="213.437" y2="160.777"/>
<line fill="none" stroke="#000000" stroke-miterlimit="10" x1="114.437" y1="65.277" x2="213.937" y2="161.777"/>
<line fill="none" stroke="#000000" stroke-miterlimit="10" x1="114.437" y1="64.277" x2="213.437" y2="112.277"/>
<line fill="none" stroke="#000000" stroke-miterlimit="10" x1="114.437" y1="15.777" x2="213.937" y2="161.777"/>
<line fill="none" stroke="#000000" stroke-miterlimit="10" x1="114.937" y1="15.277" x2="213.937" y2="111.777"/>
<line fill="none" stroke="#000000" stroke-miterlimit="10" x1="114.437" y1="161.777" x2="212.937" y2="111.777"/>
<line fill="none" stroke="#000000" stroke-miterlimit="10" x1="113.937" y1="114.277" x2="211.181" y2="160.618"/>
<line fill="none" stroke="#000000" stroke-miterlimit="10" x1="118.437" y1="209.777" x2="212.437" y2="112.277"/>
<line fill="none" stroke="#000000" stroke-miterlimit="10" x1="116.437" y1="209.777" x2="213.937" y2="62.777"/>
<line fill="none" stroke="#000000" stroke-miterlimit="10" x1="115.437" y1="161.277" x2="212.937" y2="63.277"/>
<line fill="none" stroke="#000000" stroke-miterlimit="10" x1="115.437" y1="113.277" x2="212.937" y2="63.277"/>
<g>
	<circle fill="#CEAC06" stroke="#000000" stroke-miterlimit="10" cx="114.807" cy="15.206" r="14.706"/>
	<circle fill="#CEAC06" stroke="#000000" stroke-miterlimit="10" cx="114.807" cy="63.956" r="14.706"/>
	<circle fill="#CEAC06" stroke="#000000" stroke-miterlimit="10" cx="114.807" cy="210.206" r="14.706"/>
	<circle fill="#CEAC06" stroke="#000000" stroke-miterlimit="10" cx="114.807" cy="161.456" r="14.706"/>
	<circle fill="#CEAC06" stroke="#000000" stroke-miterlimit="10" cx="114.807" cy="113.206" r="14.706"/>
</g>
<g>
	<g>
		<line fill="none" stroke="#000000" stroke-miterlimit="10" x1="213.937" y1="64.277" x2="247.937" y2="64.277"/>
		<g>
			<path d="M253.937,64.277c-2.84,1.054-6.363,2.852-8.547,4.756l1.72-4.756l-1.72-4.755
				C247.574,61.427,251.097,63.225,253.937,64.277z"/>
		</g>
	</g>
</g>
<g>
	<g>
		<line fill="none" stroke="#000000" stroke-miterlimit="10" x1="213.937" y1="112.277" x2="247.937" y2="112.277"/>
		<g>
			<path d="M253.937,112.277c-2.84,1.054-6.363,2.852-8.547,4.756l1.72-4.756l-1.72-4.755
				C247.574,109.427,251.097,111.225,253.937,112.277z"/>
		</g>
	</g>
</g>
<g>
	<g>
		<line fill="none" stroke="#000000" stroke-miterlimit="10" x1="213.937" y1="162.277" x2="247.937" y2="162.277"/>
		<g>
			<path d="M253.937,162.277c-2.84,1.054-6.363,2.852-8.547,4.756l1.72-4.756l-1.72-4.755
				C247.574,159.427,251.097,161.225,253.937,162.277z"/>
		</g>
	</g>
</g>
<g>
	<circle fill="#CEAC06" stroke="#000000" stroke-miterlimit="10" cx="214.408" cy="63.706" r="14.706"/>
	<circle fill="#CEAC06" stroke="#000000" stroke-miterlimit="10" cx="214.408" cy="112.456" r="14.706"/>
	<circle fill="#CEAC06" stroke="#000000" stroke-miterlimit="10" cx="214.408" cy="161.706" r="14.706"/>
</g>
<g>
</g>
<g>
</g>
<g>
</g>
<g>
</g>
<g>
</g>
<g>
</g>
<g>
</g>
<g>
</g>
<g>
</g>
<g>
</g>
<g>
</g>
<g>
</g>
<g>
</g>
<g>
</g>
<g>
</g>
<g>
</g>
</svg>
