<?xml version="1.0" encoding="UTF-8"?>
<svg enable-background="new 0 0 766.6 368.1" version="1.1" viewBox="0 0 766.6 368.1" xml:space="preserve" xmlns="http://www.w3.org/2000/svg">
<style type="text/css">
	.st0{fill-rule:evenodd;clip-rule:evenodd;fill:#2A4B8F;}
	.st1{fill:#0069A3;}
	.st2{fill:#E5B136;}
	.st3{fill:#F5DA4B;}
	.st4{fill:#2A4B8F;}
	.st5{fill-rule:evenodd;clip-rule:evenodd;fill:#F5DA4B;}
	.st6{fill:none;stroke:#717171;stroke-width:0.3705;stroke-miterlimit:10;}
	.st7{fill:#3F70A1;}
	.st8{fill:none;stroke:#595857;stroke-width:0.3705;stroke-miterlimit:10;}
</style>
	<rect class="st0" x=".9" width="392" height="368.1"/>
		<path class="st1" d="m472.4 142.4c0-1.8-0.8-3.1-2.5-3.8s-5.4-1.6-11.3-2.7c-9.3-1.7-15.4-3.8-18.3-6.3s-4.4-6.7-4.4-12.5c0-6.6 2-11.4 6-14.4s10.5-4.5 19.3-4.5c8.5 0 15.4 0.8 20.7 2.5 1.7 0.6 3 1.2 3.7 2.1s1.1 2.2 1.1 4v4.9c0 1.4-0.4 2.6-1.2 3.5s-2 1.3-3.4 1.3c-0.8 0-3.5-0.7-8-2s-8.8-2-12.7-2c-3.4 0-5.8 0.4-7 1.1-1.3 0.7-1.9 2-1.9 3.8 0 1.4 0.6 2.5 1.8 3.2s3.8 1.5 7.9 2.4c11.1 2.1 18.3 4.3 21.7 6.7s5.1 6.4 5.1 12.1c0 7.1-2.1 12.3-6.4 15.6s-11.5 5-21.7 5c-8 0-14.9-0.8-20.6-2.3-1.8-0.5-3.1-1.1-3.8-2s-1.1-2.3-1.1-4.2v-4.9c0-1.3 0.4-2.5 1.3-3.4s2-1.4 3.5-1.4c0.8 0 3.6 0.7 8.5 2s9.3 2 13.4 2c4 0 6.8-0.5 8.3-1.4 1.3-1 2-2.4 2-4.4z"/>
		<path class="st1" d="m509.9 180.7h-6.8c-1.4 0-2.6-0.5-3.5-1.4s-1.4-2.1-1.4-3.5v-60.1c0-6.5 2.1-11.1 6.2-13.7s11.4-3.9 21.9-3.9h2.9c10.5 0 17.9 2.1 22.1 6.4s6.4 12.3 6.4 24.2v3c0 11.8-2.1 19.9-6.4 24.2s-11.7 6.4-22.1 6.4h-1.9c-2.9 0-6.4-0.2-10.4-0.5-0.9-0.1-1.4 0-1.7 0.4-0.3 0.3-0.4 0.9-0.4 1.8v11.9c0 1.4-0.5 2.6-1.4 3.5-1 0.8-2.1 1.3-3.5 1.3zm4.9-39.4c0 3.3 1 5.1 3.1 5.6 2.5 0.5 5.5 0.7 8.9 0.7h1.4c5.2 0 8.7-1.1 10.5-3.2 1.7-2.1 2.6-6.4 2.6-12.7v-3c0-6.3-0.9-10.5-2.6-12.7s-5.2-3.3-10.5-3.3h-1.4c-3.3 0-6 0.4-8.2 1.1-2.5 0.7-3.8 2.7-3.8 6.1v21.4z"/>
		<path class="st1" d="m594.9 162.3c-10.6 0-18.1-2.2-22.4-6.5-4.3-4.4-6.5-12.5-6.5-24.4v-2.4c0-11.8 2.1-19.9 6.4-24.3s11.7-6.5 22.1-6.5h1.2c10.4 0 17.7 1.8 22 5.3s6.4 10 6.4 19.5v3c0 3.5-0.8 6-2.4 7.4-1.6 1.5-4.1 2.2-7.4 2.2h-29.8c-1.4 0-2.1 0.7-2.1 2.1 0 4 0.9 6.7 2.7 8.3s5.1 2.3 9.8 2.3h1.8c3.9 0 8.2-0.5 13.1-1.5 4.8-1 7.5-1.5 7.9-1.5 2.9 0 4.4 1.5 4.4 4.5v4.5c0 1.8-0.4 3.1-1.2 3.9s-2.1 1.4-3.9 1.9c-6.4 1.5-13.2 2.3-20.2 2.3h-1.9zm-12.4-39.7c0 0.8 0.1 1.3 0.4 1.6s0.8 0.4 1.6 0.4h21.3c1.4 0 2.1-0.7 2.1-2 0-4.5-0.8-7.5-2.3-9s-4.8-2.3-9.7-2.3h-1.8c-4.4 0-7.5 0.8-9.2 2.4-1.6 1.7-2.4 4.6-2.4 8.9z"/>
		<path class="st2" d="m661.9 181.3c-7.7 0-14.5-0.7-20.3-2.1-1.7-0.5-3-1.2-3.9-2s-1.2-2.2-1.2-4v-4.4c0-3 1.5-4.5 4.4-4.5 0.4 0 3 0.5 7.7 1.6 4.8 1.1 9.2 1.6 13.2 1.6h0.8c4.6 0 7.9-0.5 9.8-1.6s3-3.1 3.2-6c0-1.2-0.2-2-0.7-2.3-0.4-0.4-1.2-0.5-2.4-0.4-3.5 0.5-6.7 0.7-9.8 0.7h-1.7c-10.5 0-17.9-2-22.1-6-4.3-4-6.4-11.4-6.4-22.3v-2.3c0-11.3 2.1-18.9 6.4-23s11.7-6.1 22.1-6.1h3.6c10.3 0.1 17.5 1.3 21.4 3.7 4 2.4 6 6.5 6 12.3v44.2c0 8.6-2.2 14.6-6.5 18-4.4 3.3-11.4 5-21.2 5h-2.4zm10.6-39c2.1-0.6 3.1-2.3 3.1-4.9v-17c0-2.1-0.3-3.6-0.9-4.5-0.6-1-1.7-1.7-3.3-2.1-2.3-0.6-5-1-8.1-1h-1.4c-5.2 0-8.7 1-10.4 2.9s-2.5 5.9-2.5 11.7v1.9c0 5.6 0.8 9.3 2.5 11.1 1.7 1.9 5.1 2.8 10.4 2.8h1.4c4 0 7-0.3 9.2-0.9z"/>
		<path class="st2" d="m731.5 162.3h-1c-10.6 0-18.1-2.1-22.6-6.4s-6.6-12.3-6.6-24.2v-3c0-11.8 2.1-19.9 6.4-24.2s11.7-6.4 22.1-6.4h1.5c7 0 13 0.8 18 2.4 1.7 0.6 3 1.3 3.7 2.1 0.7 0.9 1.1 2.2 1.1 3.9v5.6c0 2.8-1.4 4.2-4.3 4.2-0.6 0-2.8-0.6-6.8-1.8s-7.9-1.8-11.7-1.8h-1.2c-5.1 0-8.4 1.1-10 3.3s-2.4 6.5-2.4 13v2.4c0 6.3 0.8 10.6 2.5 12.9 1.7 2.2 5 3.3 9.9 3.3h1.2c3.9 0 7.8-0.6 11.7-1.8s6.2-1.8 6.7-1.8c2.9 0 4.3 1.5 4.3 4.4v5.7c0 3-1.5 5-4.5 5.8-5.3 1.6-11.3 2.4-18 2.4z"/>
					<path class="st3" d="m190.9 75.8v-18.5c-10.4-5.6-25.2 8.8-14.4 19.7 4.4-0.6 9.2-1.1 14.4-1.2zm-31.4 4.9c1.5-0.5 3.1-0.9 4.7-1.3-3.8-6.2-4-12.8-1.8-18.6-7.3 1.7-13.1 10.6-5.7 17.9 0 0 0.7 0.7 1.3 1.1 0.4 0.3 1.1 0.7 1.5 0.9zm57.7-3.7c10.5-10.8-4.3-25.3-14.6-19.7v18.5c5.3 0.2 10.1 0.6 14.6 1.2zm17.1 3.8c0.4-0.3 0.9-0.6 1.2-0.9 0.5-0.4 1.3-1.2 1.3-1.2 7.4-7.3 1.6-16.2-5.7-17.9 2.2 5.8 2 12.3-1.8 18.6 1.8 0.4 3.4 0.9 5 1.4zm-30-56.3v5h-5.1v5.1c3.6 1.1 6.3 4.3 6.3 8.3 0 0.4 0 0.9-0.1 1.3 6.8-0.7 13.5 1.9 18.6 6.3 18-4.5 37.3 18.7 20.2 35.6 0 0-1.2 1.2-2.1 1.9-0.7 0.6-1.8 1.4-2.2 1.7l-3 7c-9.6-3.2-22.1-6.2-40.2-6.3-17.9 0-31.9 3.2-40.3 6.2l-2.8-7c-0.3-0.2-1.6-1.1-2.4-1.8-0.8-0.6-1.9-1.7-1.9-1.7-17.1-16.9 2.2-40 20.2-35.6 5.1-4.4 11.8-7 18.6-6.3-0.1-0.4-0.1-0.9-0.1-1.3 0-3.9 2.6-7.2 6.2-8.3v-5.2h-5v-5h5v-5.1h5v5.1h5.1z"/>
						<path class="st3" d="m145.7 172.7v-72.3h102.1v72.3c0 28.2-22.8 51.1-51 51.1-28.2 0.1-51.1-22.8-51.1-51.1z"/>
						<path class="st3" d="m196.8 224.7c-28.6 0-51.9-23.3-51.9-51.9v-73.1h103.7v73.1c0 28.6-23.2 51.9-51.8 51.9zm-50.3-123.4v71.5c0 27.8 22.6 50.3 50.3 50.3s50.2-22.6 50.2-50.3v-71.5h-100.5z"/>
						<path class="st3" d="m165.2 120.1h63.2v52.5c0 17.4-14.1 31.7-31.6 31.7-17.4 0-31.6-14.1-31.6-31.6v-0.2-52.4z"/>
						<path class="st4" d="m197.5 158h-30.5v14.9c0 16.5 13.4 29.9 29.9 29.9s29.9-13.5 29.9-30v-14.8h-29.3z"/>
							<path class="st5" d="m202.1 176.3l1.4-0.1 0.5-0.7 1.2-0.2v-1.3l1.7 1.9v4.7l6.7 6.6c0.4 0.3 0.7 0.4 1.2 0.5 0.6 0.1 0.7 0 1.3-0.2 0.2 0 0.2 0.3 0.1 0.4-0.2 0.3-0.5 0.4-0.9 0.6-0.5 0.2-0.9 0.2-1.3 0.1-0.3-0.1-0.5-0.2-0.8-0.4v2c-0.4 0.8-0.6 1.3-0.6 2.1 0 0.9 0.1 1.4 0.4 2.2l-1.8 2.3c-0.2-0.1-0.3-0.1-0.5 0s-0.3 0.2-0.4 0.3l-0.8-0.7c0.1-0.2 0.2-0.3 0.4-0.4s0.4-0.2 0.6 0.2l1.2-1.9-1.4-3.4-0.1 1.5-2.7 1.5c-0.1-0.1-0.3-0.2-0.5-0.1s-0.3 0.2-0.3 0.4l-0.9-0.8c0-0.2 0.2-0.4 0.4-0.5 0.3-0.1 0.6-0.1 0.7 0.2l1.9-1.3c-0.3-0.8-0.6-1.4-0.8-2.1-0.1-0.6-0.1-1.1-0.1-1.6-0.8-0.2-1.2-0.3-1.9-0.6-0.3-0.1-0.3-0.1-0.6-0.2l0.2 0.4-1.1 3.6c-0.2 0-0.3 0-0.5 0.1s-0.4 0.2-0.5 0.4l-1-0.8c0-0.3 0.1-0.4 0.4-0.5 0.2 0 0.4 0 0.5 0.2h0.2l0.1-4.4c-0.3-0.2-0.4-0.3-0.7-0.6-0.2-0.3-0.3-0.4-0.4-0.7l-1.9-0.2-0.3 0.3 0.3 0.5h0.5l0.2 1.2h-0.4l-1.4-1.7 0.8-1.6 2-0.2c-0.1-0.8 0-1.2 0.1-2 0.3-1.2 1.2-1.7 1.5-2.8l-1.7-0.8-0.2-1.4z"/>
							<path class="st5" d="m196.6 159.4s-2.2 1.3-1.9 5.7c0 0-2.4-3.4-7.6-2.6l4.1 3.5c-5.6-0.7-7.7 2.4-7.7 2.4 6-0.8 8.9 1.1 8.9 1.1-6.1-0.5-6.3 3.8-6.3 3.8 4.4-2.8 8.7-0.2 8.7-0.2v14.5h3.5v-14.5s4.3-2.6 8.7 0.2c0 0-0.2-4.3-6.3-3.8 0 0 3-1.9 8.9-1.1 0 0-2.1-3.1-7.7-2.4l4.1-3.5c-5.1-0.8-7.6 2.6-7.6 2.6 0.3-4.4-1.9-5.7-1.9-5.7h0.1z"/>
							<path class="st5" d="m191.3 176.3l-1.4-0.1-0.5-0.7-1.2-0.2v-1.3l-1.7 1.9v4.7l-6.7 6.6c-0.4 0.3-0.7 0.4-1.2 0.5-0.6 0.1-0.7 0-1.2-0.2-0.2 0-0.2 0.3-0.1 0.4 0.2 0.3 0.5 0.4 0.9 0.6 0.5 0.2 0.9 0.2 1.3 0.1 0.3-0.1 0.5-0.2 0.8-0.4v2c0.4 0.8 0.6 1.3 0.6 2.1 0 0.9-0.1 1.4-0.4 2.2l1.8 2.3c0.2-0.1 0.3-0.1 0.5 0s0.3 0.2 0.4 0.3l0.8-0.7c-0.1-0.2-0.2-0.3-0.4-0.4s-0.4-0.2-0.6 0.2l-1.2-1.9 1.4-3.4 0.1 1.5 2.7 1.5c0.1-0.1 0.3-0.2 0.5-0.1s0.3 0.2 0.3 0.4l0.9-0.8c0-0.2-0.2-0.4-0.4-0.5-0.3-0.1-0.6-0.1-0.7 0.2l-1.9-1.3c0.3-0.8 0.6-1.4 0.7-2.1 0.1-0.6 0.1-1.1 0.1-1.6 0.8-0.2 1.2-0.3 1.9-0.6 0.3-0.1 0.3-0.1 0.5-0.2l-0.2 0.4 1.1 3.6c0.2 0 0.3 0 0.5 0.1s0.4 0.2 0.5 0.4l1-0.8c0-0.3-0.1-0.4-0.4-0.5-0.2 0-0.4 0-0.5 0.2h-0.2l-0.1-4.4c0.3-0.2 0.4-0.3 0.7-0.6 0.2-0.3 0.3-0.4 0.4-0.7l1.9-0.2 0.3 0.3-0.3 0.5h-0.5l-0.2 1.2h0.7l1.4-1.7-0.8-1.6-2-0.2c0.1-0.8 0-1.2-0.1-2-0.3-1.2-1.2-1.7-1.5-2.8l1.7-0.8v-1.4z"/>
							<polygon class="st3" points="211.3 197.8 182.3 197.8 195 187.6 198.5 187.6"/>
							<polygon class="st4" points="197.7 121.9 226.7 121.9 226.7 156.2 197.7 156.2"/>
							<path class="st4" d="m212.2 139.1"/>
							<polygon class="st4" points="167 121.9 196 121.9 196 156.2 167 156.2"/>
							<path class="st4" d="m181.5 139.1"/>
									<rect class="st4" transform="matrix(.7092 -.7051 .7051 .7092 -93.8 200.85)" x="188.2" y="213.5" width="16.7" height="1.3"/>
								<polygon class="st4" points="198.8 208.6 202.1 212 201.2 212.9 197.9 209.5"/>
									<polygon class="st4" points="191.5 207.8 203.4 219.6 202.5 220.5 190.6 208.7"/>
									<path class="st3" d="m197 214.1"/>
									<rect class="st4" transform="matrix(.6983 -.7158 .7158 .6983 -92.46 202.13)" x="191.2" y="210.1" width="4.7" height="1.3"/>
							<polygon class="st5" points="181.5 126.1 178.3 126.1 178.3 129.5 174.8 129.5 174.8 127.4 168.3 127.4 171.5 135.5 173.8 135.5 168.9 153.7 177.2 153.7 178.3 145.2 181.5 145.2 184.6 145.2 185.7 153.7 194 153.7 189.1 135.5 191.4 135.5 194.9 127.4 188.2 127.4 188.2 129.5 184.6 129.5 184.6 126.1"/>
							<path class="st5" d="m204.4 135.8h2.1c0-0.9-0.1-1.5-0.5-2.3s-0.8-1.1-1.5-1.6c-0.3-0.2-0.5-0.3-0.9-0.2s-0.7 0.5-0.6 1c-0.3-0.3-0.5-0.7-0.4-1.3 0.1-0.4 0.3-0.6 0.7-0.8-0.1-0.2-0.3-0.3-0.6-0.3-0.2 0-0.4 0.1-0.5 0.4-0.2-0.5-0.1-0.8 0.2-1.2s0.6-0.6 1.1-0.6c0-0.2-0.1-0.3-0.3-0.5s-0.4-0.2-0.6-0.1c0.5-0.6 1.3-0.8 2.1-0.6 1.3 0.4 1.3 2.4 1.2 2.8l3 3.3 3.1-2.7-0.4-0.6c-0.3 0.2-0.4 0.2-0.7 0.3s-0.5 0.1-0.9 0.1v0.7h-1v-1.7h-1.8v-2h0.8v1.1h1v-2h1.2l0.6-0.8h1.5s0.2-0.3 0.3-0.5c0.1-0.3 0.1-0.8 0.1-0.8l1.7 0.9s0.2 0.8 0.5 1.2c0.6 0.8 1.4 0.6 2.2 1.2 0.7 0.6 1.5 1.8 1.5 1.8h-1.6s0.6 0.3 0.9 0.7c0.3 0.3 0.5 0.9 0.5 0.9h-1.3s0 1.9 0.4 3c0.4 1 1.6 2.4 1.6 2.4h-2s0.1 0.6 0.2 0.9c0.2 0.5 0.9 1 0.9 1h-2.5v2.5s0.8 0.3 1.1 0.8c0.4 0.6 0.3 1.5 0.3 1.5 0.3 0.4 0.7 0.5 1.2 0.5 0.7-0.1 1.3-0.5 1.3-1.2v-10c0-1.5 1.3-2.7 2.7-2.6s2.4 1.2 2.4 2.6c0.4 0.5 0.6 0.9 0.5 1.6-0.1 1.3-1.8 2.2-3 1.6 0.5-0.2 0.8-0.5 1-1 0.2-0.6-0.6-0.9-0.4-1.5 0.1-0.4 0.3-0.7 0.6-0.9-0.1-0.6-0.5-1-1.1-1.1-0.8-0.1-1.5 0.5-1.5 1.2v10.1c0 0.9-0.6 1.8-1.5 2.3-0.7 0.4-1.6 0.2-2.3 0 0 0.9 0.1 1.5 0.7 2.2s1.2 1 2 1.3v5.6c-0.4 0.1-0.6 0.3-0.7 0.7-0.1 0.5 0.1 1 0.6 1.2-0.5 0.1-1 0.1-1.6-0.3-0.4-0.3-0.5-0.7-0.4-1.2-0.3 0-0.5 0.1-0.7 0.4-0.1 0.3-0.1 0.5 0 0.8-0.6-0.1-0.9-0.4-1.2-0.9-0.2-0.5-0.2-1 0.1-1.5-0.2-0.1-0.4-0.1-0.7 0s-0.4 0.3-0.5 0.6c-0.3-0.9-0.1-1.8 0.7-2.4 0.8-0.5 2-0.4 2.4 0l-0.3-1.6c-0.7-0.1-3.6-0.4-4.7-1.3-0.5-0.4-0.4-1-0.4-1.6-0.8-0.1-1.6 0-2.3 0.6-0.5 0.5-0.8 0.9-0.9 1.6v3.6c-0.4 0.1-0.6 0.4-0.7 0.8-0.1 0.5 0.1 1 0.6 1.2-0.5 0.1-1 0.1-1.6-0.3-0.4-0.3-0.5-0.7-0.4-1.2-0.3 0-0.5 0.1-0.7 0.4-0.1 0.3-0.1 0.5 0 0.8-0.6-0.1-0.9-0.4-1.2-0.9-0.2-0.5-0.2-1 0.1-1.5-0.2-0.1-0.4-0.1-0.7 0s-0.4 0.3-0.5 0.6c-0.3-0.9-0.1-1.8 0.7-2.4 0.7-0.5 2-0.4 2.3-0.1v-3.8c-0.3 0-0.5-0.1-0.7-0.3-0.3-0.2-0.4-0.3-0.6-0.6l1.3-1s-0.5-0.1-0.7-0.4c-0.3-0.5-0.3-1-0.3-1h5.7v-0.4c-1.2-0.6-1.6-0.9-2.6-1.8-0.6-0.5-1.2-2.3-1.3-2.8-0.3 0.1-0.4 0.2-0.7 0.4s-0.4 0.4-0.5 0.7c-0.9-0.8-1.9-1.6-2.6-1.8-0.5-0.2-0.9-0.1-1.5 0v-0.3c-0.3-0.2-0.4-0.3-0.7-0.2-0.4 0.1-0.6 0.4-0.5 0.8-0.3-0.3-0.5-0.7-0.4-1.2 0.1-0.4 0.3-0.6 0.7-0.8-0.1-0.2-0.3-0.3-0.6-0.3-0.2 0-0.4 0.1-0.5 0.4-0.2-0.5-0.1-0.8 0.2-1.2s0.6-0.6 1.1-0.6c0-0.2-0.1-0.3-0.3-0.5-0.2-0.1-0.4-0.2-0.6-0.1 0.5-0.6 1.3-0.8 2.1-0.6 1.5 0.2 1.4 2.3 1.4 2.7z"/>
								<path class="st5" d="m209.9 123.8s1.6-0.4 2.6-0.4c1.1 0 2.9 0.4 2.9 0.4v1s-1.7-0.4-2.9-0.4c-1 0-2.6 0.4-2.6 0.4v-1z"/>
								<circle class="st3" cx="210.4" cy="122.7" r=".6"/>
								<circle class="st3" cx="212.5" cy="122.4" r=".6"/>
								<circle class="st3" cx="214.5" cy="122.7" r=".6"/>
									<rect class="st4" transform="matrix(.7092 -.7051 .7051 .7092 -32.302 141.7)" x="147.2" y="109.4" width="16.7" height="1.3"/>
								<polygon class="st4" points="157.8 104.5 161.2 107.9 160.2 108.8 156.9 105.4"/>
									<rect class="st4" transform="matrix(.7051 -.7091 .7091 .7051 -31.984 143.09)" x="155.4" y="101.7" width="1.3" height="16.7"/>
									<rect class="st4" transform="matrix(.6982 -.7159 .7159 .6982 -30.284 141.44)" x="150.2" y="106" width="4.7" height="1.3"/>
									<rect class="st4" transform="matrix(.7092 -.705 .705 .7092 -8.3557 199.87)" x="229.7" y="109.4" width="16.7" height="1.3"/>
									<rect class="st4" transform="matrix(.7155 -.6986 .6986 .7155 -5.8251 199.09)" x="240.9" y="104.3" width="1.3" height="4.7"/>
								<polygon class="st4" points="244 116.4 232.2 104.6 233.1 103.7 244.9 115.5"/>
									<rect class="st4" transform="matrix(.6991 -.715 .715 .6991 -5.5515 200.21)" x="232.7" y="106.1" width="4.7" height="1.3"/>
									<rect class="st4" transform="matrix(.7091 -.7051 .7051 .7091 -68.13 156.5)" x="147.2" y="160.2" width="16.7" height="1.3"/>
									<rect class="st4" transform="matrix(.7159 -.6982 .6982 .7159 -64.753 155.77)" x="158.4" y="155.1" width="1.3" height="4.7"/>
									<rect class="st4" transform="matrix(.7051 -.7091 .7091 .7051 -68.016 158.09)" x="155.4" y="152.5" width="1.3" height="16.7"/>
									<rect class="st4" transform="matrix(.6984 -.7157 .7157 .6984 -66.663 156.71)" x="150.2" y="156.8" width="4.7" height="1.3"/>
									<rect class="st4" transform="matrix(.7091 -.7051 .7051 .7091 -44.02 214.93)" x="230.1" y="160.2" width="16.7" height="1.3"/>
								<polygon class="st4" points="240.7 155.3 244 158.7 243.1 159.6 239.8 156.2"/>
									<rect class="st4" transform="matrix(.7049 -.7093 .7093 .7049 -43.558 216.93)" x="238.3" y="152.5" width="1.3" height="16.7"/>
									<rect class="st4" transform="matrix(.6984 -.7157 .7157 .6984 -41.665 216.03)" x="233.1" y="156.8" width="4.7" height="1.3"/>
		<path class="st3" d="m89.2 285.5c-1.6 0.8-5.2 1.6-9.8 1.6-13.2 0-20-8.2-20-19.1 0-13 9.3-20.3 20.9-20.3 4.5 0 7.9 0.9 9.4 1.7l-1.8 6.9c-1.8-0.7-4.2-1.4-7.3-1.4-6.9 0-12.2 4.1-12.2 12.6 0 7.7 4.5 12.5 12.2 12.5 2.6 0 5.5-0.6 7.2-1.2l1.4 6.7z"/>
		<path class="st3" d="m109.7 286.5l-0.5-2.8h-0.2c-1.8 2.2-4.6 3.4-7.9 3.4-5.6 0-9-4.1-9-8.5 0-7.2 6.5-10.7 16.3-10.6v-0.4c0-1.5-0.8-3.6-5-3.6-2.8 0-5.8 1-7.7 2.1l-1.6-5.6c1.9-1.1 5.7-2.4 10.8-2.4 9.2 0 12.2 5.4 12.2 12v9.6c0 2.7 0.1 5.2 0.4 6.7h-7.8zm-1-13.1c-4.5-0.1-8 1-8 4.4 0 2.2 1.5 3.3 3.4 3.3 2.2 0 3.9-1.4 4.5-3.2 0.1-0.5 0.2-1 0.2-1.5v-3z"/>
		<path class="st3" d="m123.7 286.5c0.1-1.8 0.2-5.2 0.2-8.3v-32h8.6v15.8h0.1c1.6-2.4 4.5-3.9 8.4-3.9 6.6 0 11.5 5.5 11.4 14 0 10-6.3 15-12.7 15-3.2 0-6.3-1.2-8.3-4.5h-0.1l-0.3 3.9h-7.3zm8.8-11.8c0 0.6 0.1 1.1 0.2 1.5 0.6 2.3 2.6 4.1 5 4.1 3.7 0 6-2.8 6-7.8 0-4.3-1.9-7.7-6-7.7-2.3 0-4.5 1.8-5 4.3-0.1 0.5-0.2 1-0.2 1.6v4z"/>
		<path class="st3" d="m166.7 251.1c0 2.4-1.8 4.3-4.6 4.3-2.7 0-4.5-1.9-4.5-4.3-0.1-2.5 1.8-4.4 4.5-4.4 2.8 0 4.5 1.9 4.6 4.4zm-8.9 35.4v-27.7h8.6v27.7h-8.6z"/>
		<path class="st3" d="m173.3 246.3h8.6v40.2h-8.6v-40.2z"/>
		<path class="st3" d="m215.8 246.3v32c0 3.1 0.1 6.4 0.2 8.3h-7.7l-0.4-4.1h-0.1c-1.8 3.1-5.1 4.7-8.7 4.7-6.6 0-11.8-5.6-11.8-14.2-0.1-9.4 5.8-14.7 12.4-14.7 3.4 0 6.1 1.2 7.3 3.1h0.1v-15h8.7zm-8.6 24.3c0-0.5-0.1-1.1-0.1-1.5-0.5-2.3-2.4-4.3-5-4.3-3.9 0-6 3.5-6 7.9 0 4.7 2.3 7.7 5.9 7.7 2.5 0 4.5-1.7 5-4.1 0.2-0.6 0.2-1.2 0.2-2v-3.7z"/>
		<path class="st3" d="m250.1 272.4c0 10.1-7.2 14.8-14.6 14.8-8.1 0-14.3-5.3-14.3-14.3s5.9-14.7 14.8-14.7c8.4 0 14.1 5.8 14.1 14.2zm-20.1 0.3c0 4.8 2 8.3 5.7 8.3 3.3 0 5.5-3.3 5.5-8.3 0-4.1-1.6-8.3-5.5-8.3-4.2-0.1-5.7 4.2-5.7 8.3z"/>
		<path class="st3" d="m293.7 246.3v32c0 3.1 0.1 6.4 0.2 8.3h-7.7l-0.4-4.1h-0.1c-1.8 3.1-5.1 4.7-8.7 4.7-6.6 0-11.8-5.6-11.8-14.2-0.1-9.4 5.8-14.7 12.4-14.7 3.4 0 6.1 1.2 7.3 3.1h0.1v-15h8.7zm-8.6 24.3c0-0.5-0.1-1.1-0.1-1.5-0.5-2.3-2.4-4.3-5-4.3-3.9 0-6 3.5-6 7.9 0 4.7 2.3 7.7 5.9 7.7 2.5 0 4.5-1.7 5-4.1 0.2-0.6 0.2-1.2 0.2-2v-3.7z"/>
		<path class="st3" d="m307.2 275.4c0.3 3.6 3.8 5.3 7.8 5.3 2.9 0 5.3-0.4 7.7-1.1l1.1 5.8c-2.8 1.1-6.3 1.7-10 1.7-9.4 0-14.8-5.4-14.8-14.1 0-7 4.4-14.8 14-14.8 9 0 12.4 7 12.4 13.8 0 1.5-0.2 2.8-0.3 3.4h-17.9zm10.2-5.9c0-2.1-0.9-5.6-4.9-5.6-3.6 0-5.1 3.3-5.3 5.6h10.2z"/>
		<path class="st3" d="m69.9 332.7c-2.7 0.9-7.7 2.2-12.8 2.2-7 0-12-1.8-15.5-5.2-3.5-3.3-5.4-8.3-5.4-13.9 0.1-12.7 9.3-20 21.8-20 4.9 0 8.7 1 10.6 1.9l-1.8 6.9c-2.1-0.9-4.7-1.6-8.9-1.6-7.2 0-12.6 4.1-12.6 12.4 0 7.9 4.9 12.5 12 12.5 2 0 3.6-0.2 4.3-0.6v-8h-5.9v-6.7h14.2v20.1z"/>
		<path class="st3" d="m76.5 315.9c0-4.1-0.1-6.7-0.2-9.1h7.4l0.3 5.1h0.2c1.4-4 4.8-5.7 7.5-5.7 0.8 0 1.2 0 1.8 0.1v8.1c-0.6-0.1-1.4-0.2-2.3-0.2-3.2 0-5.3 1.7-5.9 4.4-0.1 0.6-0.2 1.2-0.2 1.9v14.1h-8.6v-18.7z"/>
		<path class="st3" d="m113.1 334.5l-0.5-2.8h-0.2c-1.8 2.2-4.6 3.4-7.9 3.4-5.6 0-9-4.1-9-8.5 0-7.2 6.5-10.7 16.3-10.6v-0.4c0-1.5-0.8-3.6-5-3.6-2.8 0-5.8 1-7.7 2.1l-1.6-5.6c1.9-1.1 5.7-2.4 10.8-2.4 9.2 0 12.2 5.4 12.2 12v9.6c0 2.7 0.1 5.2 0.4 6.7h-7.8zm-1-13.1c-4.5-0.1-8 1-8 4.4 0 2.2 1.5 3.3 3.4 3.3 2.2 0 3.9-1.4 4.5-3.2 0.1-0.5 0.2-1 0.2-1.5v-3z"/>
		<path class="st3" d="m127.3 315.6c0-3.5-0.1-6.4-0.2-8.8h7.5l0.4 3.8h0.2c1.1-1.8 4-4.4 8.6-4.4 5.7 0 9.9 3.7 9.9 11.9v16.4h-8.7v-15.4c0-3.6-1.2-6-4.4-6-2.4 0-3.8 1.6-4.4 3.2-0.2 0.5-0.3 1.4-0.3 2.2v16h-8.6v-18.9z"/>
		<path class="st3" d="m200.3 333.4c-1.6 0.8-5.2 1.6-9.8 1.6-13.2 0-20-8.2-20-19.1 0-13 9.3-20.3 20.9-20.3 4.5 0 7.9 0.9 9.4 1.7l-1.8 6.9c-1.8-0.7-4.2-1.4-7.3-1.4-6.9 0-12.2 4.1-12.2 12.6 0 7.7 4.5 12.5 12.2 12.5 2.6 0 5.5-0.6 7.2-1.2l1.4 6.7z"/>
		<path class="st3" d="m220.9 334.5l-0.5-2.8h-0.2c-1.8 2.2-4.6 3.4-7.9 3.4-5.6 0-9-4.1-9-8.5 0-7.2 6.5-10.7 16.3-10.6v-0.4c0-1.5-0.8-3.6-5-3.6-2.8 0-5.8 1-7.7 2.1l-1.6-5.6c1.9-1.1 5.7-2.4 10.8-2.4 9.2 0 12.2 5.4 12.2 12v9.6c0 2.7 0.1 5.2 0.4 6.7h-7.8zm-1.1-13.1c-4.5-0.1-8 1-8 4.4 0 2.2 1.5 3.3 3.4 3.3 2.2 0 3.9-1.4 4.5-3.2 0.1-0.5 0.2-1 0.2-1.5v-3z"/>
		<path class="st3" d="m235 315.6c0-3.5-0.1-6.4-0.2-8.8h7.5l0.4 3.8h0.2c1.1-1.8 4-4.4 8.6-4.4 5.7 0 9.9 3.7 9.9 11.9v16.4h-8.6v-15.4c0-3.6-1.2-6-4.4-6-2.4 0-3.8 1.6-4.4 3.2-0.2 0.5-0.3 1.4-0.3 2.2v16h-8.7v-18.9z"/>
		<path class="st3" d="m284 334.5l-0.5-2.8h-0.2c-1.8 2.2-4.6 3.4-7.9 3.4-5.6 0-9-4.1-9-8.5 0-7.2 6.5-10.7 16.3-10.6v-0.4c0-1.5-0.8-3.6-5-3.6-2.8 0-5.8 1-7.6 2.1l-1.6-5.6c1.9-1.1 5.7-2.4 10.8-2.4 9.2 0 12.2 5.4 12.2 12v9.6c0 2.7 0.1 5.2 0.4 6.7h-7.9zm-1-13.1c-4.5-0.1-8 1-8 4.4 0 2.2 1.5 3.3 3.4 3.3 2.2 0 3.9-1.4 4.5-3.2 0.1-0.5 0.2-1 0.2-1.5v-3z"/>
		<path class="st3" d="m298.2 315.9c0-4.1-0.1-6.7-0.2-9.1h7.4l0.3 5.1h0.2c1.4-4 4.8-5.7 7.5-5.7 0.8 0 1.2 0 1.8 0.1v8.1c-0.6-0.1-1.4-0.2-2.3-0.2-3.2 0-5.3 1.7-5.9 4.4-0.1 0.6-0.2 1.2-0.2 1.9v14.1h-8.6v-18.7z"/>
		<path class="st3" d="m328.6 299.1c0 2.4-1.8 4.3-4.6 4.3-2.7 0-4.5-1.9-4.5-4.3-0.1-2.5 1.8-4.4 4.5-4.4s4.5 1.9 4.6 4.4zm-8.9 35.4v-27.7h8.6v27.7h-8.6z"/>
		<path class="st3" d="m351 334.5l-0.5-2.8h-0.2c-1.8 2.2-4.6 3.4-7.9 3.4-5.6 0-9-4.1-9-8.5 0-7.2 6.5-10.7 16.3-10.6v-0.4c0-1.5-0.8-3.6-5-3.6-2.8 0-5.8 1-7.6 2.1l-1.6-5.6c1.9-1.1 5.7-2.4 10.8-2.4 9.2 0 12.2 5.4 12.2 12v9.6c0 2.7 0.1 5.2 0.4 6.7h-7.9zm-1-13.1c-4.5-0.1-8 1-8 4.4 0 2.2 1.5 3.3 3.4 3.3 2.2 0 3.9-1.4 4.5-3.2 0.1-0.5 0.2-1 0.2-1.5v-3z"/>
			<path class="st6" d="m766.6 193.8"/>
	<path class="st7" d="m435.2 220.7h3.3c0.1 2.8 2.3 4 4.5 4 2.3 0 3.8-1.2 3.8-3.1 0-2.2-2.2-3.1-4.7-4-2.9-1.1-6.2-2.3-6.2-6.1 0-3.6 2.8-5.7 6.5-5.7 2.5 0 4.7 0.9 6.6 3.3l-2 2c-1.4-1.7-3.1-2.4-4.6-2.4-1.8 0-3.1 1-3.1 2.5 0 1.9 2.1 2.7 4.4 3.6 3 1.1 6.4 2.5 6.4 6.6 0 3.8-3 6.4-7.2 6.4-4.1-0.1-7.8-2.5-7.7-7.1z"/>
	<path class="st7" d="m453.9 219.9c0-5.1 3.1-7.8 7.2-7.8 4.2 0 7.3 2.7 7.3 7.8s-3.1 7.8-7.3 7.8-7.2-2.7-7.2-7.8zm11.2 0c0-3.5-1.6-5.1-4-5.1s-4 1.6-4 5.1 1.6 5.1 4 5.1 4-1.6 4-5.1z"/>
	<path class="st7" d="m472.4 219.9c0-4.3 2.3-7.9 7-7.9 3.1 0 5.3 1.6 6.4 4.3l-2.8 1.1c-0.7-1.7-2-2.6-3.5-2.6-2.7 0-3.7 2.5-3.7 5 0 2.6 1 5 3.7 5 1.8 0 3-1.1 3.5-2.6l2.7 1.1c-1.1 2.8-3.3 4.4-6.3 4.4-4.7 0-7-3.6-7-7.8z"/>
	<path class="st7" d="m490.3 205.9h3.5v3.3h-3.5v-3.3zm0.1 6.3h3.2v15.2h-3.2v-15.2z"/>
	<path class="st7" d="m512.2 220.7h-10.3c0.2 2.3 1.3 4.1 4 4.1 1.3 0 2.6-0.4 3.5-1.3l2.5 1.2c-1.5 2-3.7 2.9-6.2 2.9-4.7 0-7.2-3.2-7.2-7.7 0-4.4 2.5-7.9 7-7.9s6.7 3.5 6.7 7.5c0.1 0.5 0.1 1 0 1.2zm-10.3-1.9h7.2c0-2.2-1.1-4-3.5-4-2.7 0-3.6 2-3.7 4z"/>
	<path class="st7" d="m530.4 205.9v21.5h-3.2v-1.9h-0.1c-0.9 1.3-2.5 2.2-4.6 2.2-4.1 0-6.2-3.4-6.2-7.9s2.1-7.9 6.2-7.9c2.1 0 3.7 1 4.6 2.3v-8.3h3.3zm-3.1 13.9c0-3-1.5-4.9-3.8-4.9-2.6 0-3.9 1.9-3.9 4.9s1.3 5 3.9 5c2.3 0 3.8-2 3.8-5z"/>
	<path class="st7" d="m535.3 223.4c0-2.2 1.3-3.3 3.1-3.9 1.3-0.5 3-0.7 4.3-0.9 1.4-0.3 2.6-0.9 2.6-2s-1.2-1.9-2.9-1.9c-1.8 0-3.6 0.8-4.6 2.2l-2.3-1.7c1.5-1.9 3.8-3.1 6.8-3.1 3.2 0 6.1 1.5 6.1 4.8v7.5l0.3 3.1h-2.9l-0.3-2.2h-0.2c-0.9 1.7-2.8 2.6-4.9 2.6-3.1-0.2-5.1-1.8-5.1-4.5zm10.2-2.6v-1.2h-0.1c-1.3 1.2-3.6 1.2-4.9 1.7-1 0.3-1.7 0.8-1.7 1.9 0 1.2 1 1.9 2.6 1.9 1.7 0.1 4.1-0.9 4.1-4.3z"/>
	<path class="st7" d="m567.1 205.9v21.5h-3.1v-1.9h-0.1c-0.9 1.3-2.5 2.2-4.6 2.2-4.1 0-6.2-3.4-6.2-7.9s2.1-7.9 6.2-7.9c2.1 0 3.7 1 4.6 2.3v-8.3h3.2zm-3.1 13.9c0-3-1.5-4.9-3.8-4.9-2.6 0-3.9 1.9-3.9 4.9s1.3 5 3.9 5c2.3 0 3.8-2 3.8-5z"/>
	<path class="st7" d="m594.7 205.9v21.5h-3.2v-1.9h-0.1c-0.9 1.3-2.5 2.2-4.6 2.2-4.1 0-6.2-3.4-6.2-7.9s2.1-7.9 6.2-7.9c2.1 0 3.7 1 4.6 2.3v-8.3h3.3zm-3.1 13.9c0-3-1.5-4.9-3.8-4.9-2.6 0-3.9 1.9-3.9 4.9s1.3 5 3.9 5c2.3 0 3.8-2 3.8-5z"/>
	<path class="st7" d="m613.2 220.7h-10.3c0.2 2.3 1.3 4.1 4 4.1 1.3 0 2.6-0.4 3.5-1.3l2.5 1.2c-1.5 2-3.7 2.9-6.2 2.9-4.7 0-7.2-3.2-7.2-7.7 0-4.4 2.5-7.9 7-7.9s6.7 3.5 6.7 7.5c0.1 0.5 0 1 0 1.2zm-10.4-1.9h7.2c0-2.2-1.1-4-3.5-4-2.6 0-3.6 2-3.7 4z"/>
	<path class="st7" d="m435.9 249.2h7.7c4.5 0 7.2 2.6 7.2 6.9 0 4.2-2.6 6.6-7.2 6.6h-4.4v8h-3.4v-21.5zm7.6 10.5c2.6 0 4-1.3 4-3.6s-1.4-3.8-4-3.8h-4.3v7.4h4.3z"/>
	<path class="st7" d="m455.3 255.5h3.2v2.6h0.1c0.8-1.9 2.2-2.8 4-2.8 0.5 0 1 0.1 1.5 0.2v3.3c-0.7-0.2-1.3-0.3-1.8-0.3-2.1 0-3.7 1.5-3.7 5v7.2h-3.2v-15.2z"/>
	<path class="st7" d="m466.9 263.2c0-5.1 3.1-7.8 7.2-7.8 4.2 0 7.3 2.7 7.3 7.8s-3.1 7.8-7.3 7.8-7.2-2.7-7.2-7.8zm11.2 0c0-3.5-1.6-5.1-4-5.1s-4 1.6-4 5.1 1.6 5.1 4 5.1 4-1.6 4-5.1z"/>
	<path class="st7" d="m486.2 255.5h3.2v2.1h0.1c0.8-1.4 2.1-2.4 4.1-2.4 1.9 0 3.3 0.9 4.1 2.7h0.2c1-1.8 2.3-2.7 4.5-2.7 3.4 0 4.9 2.3 4.9 5.7v9.8h-3.3v-9.4c0-1.8-0.8-3.2-2.7-3.2-2.1 0-3 1.7-3 3.8v8.8h-3.2v-9.5c0-1.9-0.7-3.2-2.6-3.2-2.2 0-3 1.7-3 3.8v8.8h-3.2v-15.1z"/>
	<path class="st7" d="m511.9 263.2c0-5.1 3.1-7.8 7.2-7.8 4.2 0 7.3 2.7 7.3 7.8s-3.1 7.8-7.3 7.8-7.2-2.7-7.2-7.8zm11.2 0c0-3.5-1.6-5.1-4-5.1s-4 1.6-4 5.1 1.6 5.1 4 5.1 4-1.6 4-5.1z"/>
	<path class="st7" d="m530.4 263.2c0-4.3 2.3-7.9 7-7.9 3.1 0 5.3 1.6 6.4 4.3l-2.8 1.1c-0.7-1.7-2-2.6-3.5-2.6-2.7 0-3.7 2.5-3.7 5 0 2.6 1 5 3.7 5 1.8 0 3-1.1 3.5-2.6l2.7 1.1c-1.1 2.8-3.3 4.4-6.3 4.4-4.7 0-7-3.6-7-7.8z"/>
	<path class="st7" d="m548.3 249.2h3.5v3.3h-3.5v-3.3zm0.1 6.3h3.2v15.2h-3.2v-15.2z"/>
	<path class="st7" d="m556.6 263.2c0-5.1 3.1-7.8 7.2-7.8 4.2 0 7.3 2.7 7.3 7.8s-3.1 7.8-7.3 7.8-7.2-2.7-7.2-7.8zm11.2 0c0-3.5-1.6-5.1-4-5.1s-4 1.6-4 5.1 1.6 5.1 4 5.1 4-1.6 4-5.1zm-1.8-14h3.7l-4.7 4.2h-2.4l3.4-4.2z"/>
	<path class="st7" d="m575.9 255.5h3.2v2.1h0.2c0.9-1.5 2.4-2.4 4.5-2.4 3.1 0 5.1 2.2 5.1 5.6v9.9h-3.2v-9.4c0-2.3-1.1-3.3-2.8-3.3-2.2 0-3.7 1.5-3.7 3.8v9h-3.2v-15.3z"/>
	<path class="st7" d="M603.8,249.2H618v3h-10.8v6.2h9.7v3h-9.7v6.2H618v3.1h-14.2V249.2z"/>
	<path class="st7" d="m621.2 263.2c0-4.3 2.3-7.9 7-7.9 3.1 0 5.3 1.6 6.4 4.3l-2.8 1.1c-0.7-1.7-2-2.6-3.5-2.6-2.7 0-3.7 2.5-3.7 5 0 2.6 1 5 3.7 5 1.8 0 3-1.1 3.5-2.6l2.7 1.1c-1.1 2.8-3.3 4.4-6.3 4.4-4.7 0-7-3.6-7-7.8z"/>
	<path class="st7" d="m637.4 263.2c0-5.1 3.1-7.8 7.2-7.8 4.2 0 7.3 2.7 7.3 7.8s-3.1 7.8-7.3 7.8-7.2-2.7-7.2-7.8zm11.2 0c0-3.5-1.6-5.1-4-5.1s-4 1.6-4 5.1 1.6 5.1 4 5.1 4-1.6 4-5.1z"/>
	<path class="st7" d="m656.1 255.5h3.2v2.1h0.2c0.9-1.5 2.4-2.4 4.5-2.4 3.1 0 5.1 2.2 5.1 5.6v9.9h-3.2v-9.4c0-2.3-1.1-3.3-2.8-3.3-2.2 0-3.7 1.5-3.7 3.8v9h-3.2v-15.3z"/>
	<path class="st7" d="m673.1 263.2c0-5.1 3.1-7.8 7.2-7.8 4.2 0 7.3 2.7 7.3 7.8s-3.1 7.8-7.3 7.8-7.2-2.7-7.2-7.8zm11.2 0c0-3.5-1.6-5.1-4-5.1s-4 1.6-4 5.1 1.6 5.1 4 5.1 4-1.6 4-5.1zm-1.8-14h3.7l-4.7 4.2h-2.4l3.4-4.2z"/>
	<path class="st7" d="m691.7 255.5h3.2v2.1h0.1c0.8-1.4 2.1-2.4 4.1-2.4 1.9 0 3.3 0.9 4.1 2.7h0.2c1-1.8 2.3-2.7 4.5-2.7 3.4 0 4.9 2.3 4.9 5.7v9.8h-3.2v-9.4c0-1.8-0.8-3.2-2.7-3.2-2.1 0-3 1.7-3 3.8v8.8h-3.2v-9.5c0-1.9-0.7-3.2-2.6-3.2-2.2 0-3 1.7-3 3.8v8.8h-3.2v-15.1z"/>
	<path class="st7" d="m717.9 249.2h3.5v3.3h-3.5v-3.3zm0.1 6.3h3.2v15.2h-3.2v-15.2z"/>
	<path class="st7" d="m725.5 263.2c0-4.3 2.3-7.9 7-7.9 3.1 0 5.3 1.6 6.4 4.3l-2.8 1.1c-0.7-1.7-2-2.6-3.5-2.6-2.7 0-3.7 2.5-3.7 5 0 2.6 1 5 3.7 5 1.8 0 3-1.1 3.5-2.6l2.7 1.1c-1.1 2.8-3.3 4.4-6.3 4.4-4.6 0-7-3.6-7-7.8z"/>
	<path class="st7" d="m741.8 266.7c0-2.2 1.3-3.3 3.1-3.9 1.3-0.5 3-0.7 4.3-0.9 1.4-0.3 2.6-0.9 2.6-2s-1.2-1.9-2.9-1.9c-1.8 0-3.6 0.8-4.6 2.2l-2.3-1.7c1.5-1.9 3.8-3.1 6.8-3.1 3.2 0 6.1 1.5 6.1 4.8v7.5l0.3 3.1h-2.9l-0.3-2.2h-0.2c-0.9 1.7-2.8 2.6-4.9 2.6-3.1-0.2-5.1-1.8-5.1-4.5zm10.2-2.6v-1.2h-0.1c-1.3 1.2-3.6 1.2-4.9 1.7-1 0.3-1.7 0.8-1.7 1.9 0 1.2 1 1.9 2.6 1.9 1.7 0.1 4.1-0.9 4.1-4.3z"/>
		<path class="st8" d="m368.4 193.8"/>
</svg>
