<?xml version="1.0" encoding="utf-8"?>
<!-- Generator: Adobe Illustrator 17.0.0, SVG Export Plug-In . SVG Version: 6.00 Build 0)  -->
<!DOCTYPE svg PUBLIC "-//W3C//DTD SVG 1.1//EN" "http://www.w3.org/Graphics/SVG/1.1/DTD/svg11.dtd">
<svg version="1.1" id="Capa_1" xmlns="http://www.w3.org/2000/svg" xmlns:xlink="http://www.w3.org/1999/xlink" x="0px" y="0px"
	 width="338px" height="251px" viewBox="0 0 338 251" enable-background="new 0 0 338 251" xml:space="preserve">
<g>
	<defs>
		<rect id="SVGID_1_" x="12" y="13" width="318.043" height="228"/>
	</defs>
	<clipPath id="SVGID_2_">
		<use xlink:href="#SVGID_1_"  overflow="visible"/>
	</clipPath>
	<polygon clip-path="url(#SVGID_2_)" fill="none" stroke="#000000" stroke-miterlimit="10" points="12,13 330.043,13 
		330.043,241.886 12,241.886 12,13 	"/>
	<path clip-path="url(#SVGID_2_)" fill="none" stroke="#000000" stroke-miterlimit="10" d="M60.555,14.043v227.844 M60.816,13.521
		l-1.825,1.564 M60.295,13.521l1.825,1.564 M12,224.252h317 M329.521,224.513l-1.564-1.825 M329.521,223.992l-1.564,1.825"/>
	<use xlink:href="#SVGID_1_"  overflow="visible" fill="none" stroke="#000000" stroke-miterlimit="10"/>
</g>
<g opacity="0.2">
	<defs>
		<rect id="SVGID_3_" x="12" y="13" opacity="0.2" width="318.043" height="228"/>
	</defs>
	<clipPath id="SVGID_4_">
		<use xlink:href="#SVGID_3_"  overflow="visible"/>
	</clipPath>
	<polygon clip-path="url(#SVGID_4_)" fill="#99CCFF" points="-18.978,235.488 -22.63,8.005 338.228,8.636 344.02,56.925 	"/>
	
		<line clip-path="url(#SVGID_4_)" fill="none" stroke="#000000" stroke-linecap="round" stroke-linejoin="round" stroke-miterlimit="10" x1="9.393" y1="221.532" x2="332.65" y2="62.518"/>
</g>
<path d="M29.994,230.076v-0.346h2.072v0.346H29.994z M33.118,231.459v-0.377h0.754v-2.974l-0.754,0.188v-0.387l1.258-0.313v3.485
	h0.754v0.377H33.118z"/>
<line fill="none" stroke="#000000" stroke-miterlimit="10" x1="32.209" y1="224.252" x2="32.209" y2="226.338"/>
<path d="M65.251,231.553c-0.389,0-0.703-0.183-0.943-0.549c-0.24-0.366-0.36-0.843-0.36-1.432c0-0.594,0.121-1.072,0.363-1.433
	c0.242-0.361,0.561-0.542,0.956-0.542c0.395,0,0.714,0.181,0.956,0.542s0.363,0.837,0.363,1.426c0,0.604-0.121,1.087-0.363,1.447
	C65.981,231.373,65.657,231.553,65.251,231.553L65.251,231.553z M65.256,231.176c0.531,0,0.797-0.54,0.797-1.619
	c0-1.056-0.262-1.583-0.787-1.583c-0.523,0-0.784,0.533-0.784,1.599C64.482,230.642,64.74,231.176,65.256,231.176L65.256,231.176z"
	/>
<polygon points="88.384,231.459 88.384,231.082 89.138,231.082 89.138,228.109 88.384,228.297 88.384,227.91 89.642,227.597 
	89.642,231.082 90.396,231.082 90.396,231.459 "/>
<line fill="none" stroke="#000000" stroke-miterlimit="10" x1="88.902" y1="224.252" x2="88.902" y2="226.338"/>
<path d="M116.709,231.459v-0.44c0.146-0.341,0.441-0.713,0.886-1.115l0.288-0.257c0.37-0.334,0.555-0.666,0.555-0.995
	c0-0.21-0.063-0.376-0.19-0.496c-0.126-0.12-0.3-0.181-0.521-0.181c-0.261,0-0.569,0.101-0.924,0.303v-0.443
	c0.334-0.158,0.666-0.237,0.995-0.237c0.353,0,0.636,0.095,0.85,0.285c0.214,0.19,0.321,0.442,0.321,0.756
	c0,0.226-0.054,0.426-0.162,0.601c-0.108,0.175-0.308,0.387-0.602,0.636l-0.193,0.165c-0.402,0.341-0.635,0.667-0.698,0.978h1.637
	v0.44H116.709z"/>
<line fill="none" stroke="#000000" stroke-miterlimit="10" x1="117.248" y1="224.252" x2="117.248" y2="226.338"/>
<path d="M144.96,231.431v-0.468c0.36,0.143,0.643,0.214,0.85,0.214c0.239,0,0.434-0.07,0.584-0.21
	c0.15-0.14,0.225-0.321,0.225-0.544c0-0.53-0.371-0.794-1.113-0.794h-0.199v-0.339l0.176-0.003c0.696,0,1.044-0.245,1.044-0.736
	c0-0.385-0.229-0.578-0.687-0.578c-0.251,0-0.528,0.07-0.83,0.211v-0.438c0.297-0.1,0.586-0.15,0.866-0.15
	c0.771,0,1.156,0.291,1.156,0.873c0,0.443-0.262,0.759-0.787,0.947c0.608,0.141,0.911,0.474,0.911,0.998
	c0,0.355-0.117,0.633-0.351,0.835s-0.556,0.303-0.965,0.303C145.609,231.553,145.315,231.512,144.96,231.431L144.96,231.431z"/>
<line fill="none" stroke="#000000" stroke-miterlimit="10" x1="145.595" y1="224.252" x2="145.595" y2="226.338"/>
<path d="M175.07,231.459v-1.067h-1.695v-0.379l1.695-2.322h0.471v2.291h0.504v0.41h-0.504v1.067H175.07z M173.865,229.982h1.237
	v-1.675L173.865,229.982z"/>
<line fill="none" stroke="#000000" stroke-miterlimit="10" x1="173.941" y1="224.252" x2="173.941" y2="226.338"/>
<path d="M201.895,231.474v-0.448c0.249,0.1,0.487,0.15,0.713,0.15c0.248,0,0.443-0.073,0.584-0.219
	c0.142-0.146,0.213-0.347,0.213-0.603c0-0.565-0.39-0.848-1.169-0.848c-0.088,0-0.181,0.006-0.277,0.018v-1.833h1.907v0.438h-1.466
	v0.993c0.484,0,0.861,0.111,1.133,0.333c0.272,0.222,0.407,0.53,0.407,0.924c0,0.367-0.123,0.654-0.37,0.862
	c-0.247,0.208-0.589,0.312-1.027,0.312C202.352,231.553,202.136,231.527,201.895,231.474L201.895,231.474z"/>
<line fill="none" stroke="#000000" stroke-miterlimit="10" x1="202.288" y1="224.252" x2="202.288" y2="226.338"/>
<path d="M230.312,229.506c0.239-0.311,0.541-0.466,0.904-0.466c0.329,0,0.599,0.109,0.808,0.327c0.21,0.218,0.314,0.498,0.314,0.839
	c0,0.392-0.118,0.714-0.353,0.967c-0.235,0.253-0.533,0.379-0.895,0.379c-0.416,0-0.741-0.167-0.975-0.502
	c-0.234-0.334-0.351-0.799-0.351-1.393c0-0.653,0.134-1.161,0.403-1.522c0.269-0.362,0.648-0.542,1.137-0.542
	c0.224,0,0.504,0.048,0.84,0.143v0.438c-0.355-0.136-0.645-0.204-0.871-0.204C230.633,227.971,230.312,228.483,230.312,229.506
	L230.312,229.506z M231.835,230.318c0-0.285-0.064-0.509-0.192-0.672c-0.128-0.163-0.306-0.244-0.533-0.244
	c-0.212,0-0.395,0.071-0.547,0.214c-0.153,0.143-0.229,0.314-0.229,0.514c0,0.316,0.073,0.569,0.218,0.76
	c0.145,0.191,0.337,0.286,0.577,0.286c0.216,0,0.387-0.078,0.516-0.233C231.77,230.788,231.835,230.58,231.835,230.318
	L231.835,230.318z"/>
<line fill="none" stroke="#000000" stroke-miterlimit="10" x1="230.634" y1="224.252" x2="230.634" y2="226.338"/>
<path d="M258.876,231.459c0.049-0.294,0.119-0.547,0.21-0.761c0.091-0.214,0.252-0.507,0.482-0.881l1.029-1.655h-1.94v-0.471h2.419
	v0.471c-0.966,1.424-1.506,2.523-1.622,3.297H258.876z"/>
<line fill="none" stroke="#000000" stroke-miterlimit="10" x1="258.98" y1="224.252" x2="258.98" y2="226.338"/>
<path d="M287.446,229.407c-0.368-0.256-0.552-0.54-0.552-0.85c0-0.285,0.104-0.517,0.313-0.695c0.209-0.178,0.481-0.267,0.817-0.267
	c0.311,0,0.562,0.076,0.755,0.227c0.193,0.151,0.289,0.347,0.289,0.588c0,0.365-0.234,0.698-0.703,0.998
	c0.569,0.278,0.853,0.637,0.853,1.077c0,0.316-0.119,0.573-0.358,0.771c-0.238,0.199-0.546,0.298-0.923,0.298
	c-0.37,0-0.669-0.094-0.897-0.281c-0.228-0.188-0.342-0.434-0.342-0.74C286.697,230.081,286.947,229.706,287.446,229.407
	L287.446,229.407z M288.085,229.249c0.351-0.231,0.527-0.488,0.527-0.771c0-0.151-0.059-0.273-0.176-0.365
	c-0.117-0.092-0.272-0.139-0.463-0.139c-0.185,0-0.335,0.045-0.451,0.136c-0.115,0.091-0.173,0.208-0.173,0.353
	c0,0.141,0.052,0.267,0.157,0.378C287.61,228.952,287.803,229.088,288.085,229.249L288.085,229.249z M287.718,229.611
	c-0.202,0.156-0.339,0.292-0.411,0.409c-0.072,0.116-0.108,0.261-0.108,0.434c0,0.216,0.07,0.39,0.209,0.523s0.322,0.2,0.55,0.2
	c0.219,0,0.398-0.057,0.536-0.171c0.138-0.114,0.207-0.261,0.207-0.443c0-0.146-0.043-0.269-0.129-0.37
	c-0.086-0.101-0.252-0.224-0.498-0.37L287.718,229.611z"/>
<line fill="none" stroke="#000000" stroke-miterlimit="10" x1="287.327" y1="224.252" x2="287.327" y2="226.338"/>
<path d="M314.994,231.436v-0.425c0.319,0.11,0.591,0.165,0.815,0.165c0.312,0,0.556-0.133,0.732-0.398
	c0.176-0.266,0.263-0.635,0.263-1.109c-0.255,0.314-0.544,0.471-0.868,0.471c-0.317,0-0.586-0.117-0.807-0.35
	c-0.221-0.233-0.331-0.518-0.331-0.854c0-0.385,0.118-0.705,0.353-0.958c0.235-0.254,0.531-0.381,0.887-0.381
	c0.409,0,0.731,0.164,0.967,0.493c0.236,0.328,0.354,0.778,0.354,1.348c0,0.648-0.144,1.163-0.432,1.544
	c-0.288,0.381-0.677,0.572-1.167,0.572C315.564,231.553,315.308,231.514,314.994,231.436L314.994,231.436z M315.3,228.837
	c0,0.292,0.065,0.522,0.195,0.69c0.13,0.168,0.308,0.252,0.533,0.252c0.212,0,0.393-0.072,0.543-0.216
	c0.15-0.144,0.225-0.318,0.225-0.522c0-0.321-0.073-0.579-0.218-0.775c-0.145-0.196-0.336-0.294-0.572-0.294
	c-0.219,0-0.392,0.078-0.518,0.233S315.3,228.57,315.3,228.837L315.3,228.837z"/>
<line fill="none" stroke="#000000" stroke-miterlimit="10" x1="315.673" y1="224.252" x2="315.673" y2="226.338"/>
<path d="M56.388,223.211c-0.389,0-0.703-0.183-0.943-0.549c-0.24-0.366-0.36-0.843-0.36-1.432c0-0.594,0.121-1.072,0.363-1.433
	c0.242-0.362,0.561-0.542,0.956-0.542s0.714,0.181,0.956,0.542c0.242,0.361,0.363,0.837,0.363,1.426
	c0,0.604-0.121,1.087-0.363,1.447C57.117,223.031,56.793,223.211,56.388,223.211L56.388,223.211z M56.393,222.834
	c0.531,0,0.797-0.54,0.797-1.619c0-1.056-0.262-1.583-0.787-1.583c-0.523,0-0.784,0.533-0.784,1.599
	C55.619,222.3,55.877,222.834,56.393,222.834L56.393,222.834z"/>
<polygon points="55.537,198.09 55.537,197.714 56.291,197.714 56.291,194.74 55.537,194.928 55.537,194.542 56.795,194.228 
	56.795,197.714 57.549,197.714 57.549,198.09 "/>
<line fill="none" stroke="#000000" stroke-miterlimit="10" x1="58.47" y1="196.364" x2="60.555" y2="196.364"/>
<path d="M55.186,170.457v-0.44c0.146-0.341,0.441-0.713,0.886-1.115l0.288-0.257c0.37-0.334,0.555-0.666,0.555-0.995
	c0-0.21-0.063-0.376-0.19-0.496c-0.126-0.121-0.3-0.181-0.521-0.181c-0.261,0-0.569,0.101-0.924,0.303v-0.443
	c0.334-0.158,0.666-0.237,0.995-0.237c0.353,0,0.636,0.095,0.85,0.285c0.214,0.19,0.321,0.442,0.321,0.756
	c0,0.226-0.054,0.426-0.162,0.601c-0.108,0.175-0.308,0.387-0.602,0.636l-0.193,0.165c-0.402,0.341-0.635,0.667-0.698,0.978h1.637
	v0.44H55.186z"/>
<line fill="none" stroke="#000000" stroke-miterlimit="10" x1="58.47" y1="168.477" x2="60.555" y2="168.477"/>
<path d="M55.283,142.275v-0.468c0.36,0.143,0.643,0.214,0.85,0.214c0.239,0,0.434-0.07,0.584-0.21
	c0.15-0.14,0.225-0.321,0.225-0.544c0-0.53-0.371-0.794-1.113-0.794h-0.199v-0.339l0.176-0.003c0.696,0,1.044-0.245,1.044-0.736
	c0-0.385-0.229-0.578-0.687-0.578c-0.251,0-0.528,0.07-0.83,0.211v-0.438c0.297-0.1,0.586-0.15,0.866-0.15
	c0.771,0,1.156,0.291,1.156,0.873c0,0.443-0.262,0.759-0.787,0.947c0.608,0.141,0.911,0.474,0.911,0.998
	c0,0.355-0.117,0.633-0.351,0.835c-0.234,0.202-0.556,0.303-0.965,0.303C55.931,142.397,55.638,142.356,55.283,142.275
	L55.283,142.275z"/>
<line fill="none" stroke="#000000" stroke-miterlimit="10" x1="58.47" y1="140.589" x2="60.555" y2="140.589"/>
<path d="M56.716,114.669v-1.067h-1.695v-0.379l1.695-2.322h0.471v2.291h0.504v0.41h-0.504v1.067H56.716z M55.512,113.193h1.237
	v-1.675L55.512,113.193z"/>
<line fill="none" stroke="#000000" stroke-miterlimit="10" x1="58.47" y1="112.701" x2="60.555" y2="112.701"/>
<path d="M55.387,86.53v-0.448c0.249,0.1,0.487,0.15,0.713,0.15c0.248,0,0.443-0.073,0.584-0.219
	c0.142-0.146,0.213-0.347,0.213-0.603c0-0.565-0.39-0.848-1.169-0.848c-0.088,0-0.181,0.006-0.277,0.018v-1.833h1.907v0.438h-1.466
	v0.993c0.484,0,0.861,0.111,1.133,0.334c0.272,0.222,0.407,0.53,0.407,0.924c0,0.367-0.123,0.654-0.37,0.862
	c-0.247,0.208-0.589,0.312-1.027,0.312C55.844,86.609,55.628,86.583,55.387,86.53L55.387,86.53z"/>
<line fill="none" stroke="#000000" stroke-miterlimit="10" x1="58.47" y1="84.813" x2="60.555" y2="84.813"/>
<path d="M55.649,56.929c0.239-0.311,0.541-0.466,0.904-0.466c0.329,0,0.599,0.109,0.808,0.327c0.21,0.218,0.314,0.498,0.314,0.839
	c0,0.392-0.118,0.715-0.353,0.967c-0.235,0.253-0.533,0.379-0.895,0.379c-0.416,0-0.741-0.167-0.975-0.502
	c-0.234-0.334-0.351-0.799-0.351-1.393c0-0.653,0.135-1.161,0.404-1.522s0.648-0.542,1.137-0.542c0.224,0,0.504,0.048,0.84,0.143
	v0.438c-0.355-0.136-0.645-0.204-0.871-0.204C55.97,55.394,55.649,55.906,55.649,56.929L55.649,56.929z M57.172,57.741
	c0-0.285-0.064-0.509-0.192-0.672c-0.128-0.163-0.306-0.244-0.533-0.244c-0.212,0-0.395,0.071-0.547,0.214
	c-0.153,0.143-0.229,0.314-0.229,0.514c0,0.316,0.073,0.569,0.218,0.76s0.337,0.286,0.577,0.286c0.216,0,0.387-0.078,0.516-0.233
	C57.108,58.211,57.172,58.002,57.172,57.741L57.172,57.741z"/>
<line fill="none" stroke="#000000" stroke-miterlimit="10" x1="58.47" y1="56.925" x2="60.555" y2="56.925"/>
<path d="M55.537,30.727c0.049-0.294,0.119-0.547,0.21-0.761c0.091-0.214,0.252-0.507,0.482-0.881l1.029-1.655h-1.94v-0.471h2.418
	v0.471c-0.966,1.424-1.506,2.523-1.622,3.297H55.537z"/>
<line fill="none" stroke="#000000" stroke-miterlimit="10" x1="58.47" y1="29.037" x2="60.555" y2="29.037"/>
<path d="M15.209,212.689v-3.318h0.602v0.623c0.238-0.464,0.585-0.697,1.039-0.697c0.061,0,0.125,0.005,0.192,0.015v0.562
	c-0.104-0.035-0.196-0.052-0.275-0.052c-0.381,0-0.7,0.226-0.956,0.678v2.187H15.209z"/>
<path fill="#7D7DFF" d="M119.334,168.477c0,1.152-0.934,2.086-2.086,2.086c-1.152,0-2.086-0.934-2.086-2.086
	c0-1.152,0.934-2.086,2.086-2.086C118.4,166.391,119.334,167.325,119.334,168.477L119.334,168.477z"/>
<path fill="none" stroke="#000000" stroke-linecap="round" stroke-linejoin="round" stroke-miterlimit="10" d="M119.334,168.477
	c0,1.152-0.934,2.086-2.086,2.086c-1.152,0-2.086-0.934-2.086-2.086c0-1.152,0.934-2.086,2.086-2.086
	C118.4,166.391,119.334,167.325,119.334,168.477L119.334,168.477z"/>
<path fill="#7D7DFF" d="M117.546,161.172c-0.36,0.332-0.708,0.498-1.042,0.498c-0.275,0-0.503-0.086-0.684-0.258
	s-0.272-0.39-0.272-0.652c0-0.363,0.152-0.641,0.457-0.836s0.741-0.292,1.309-0.292h0.144v-0.4c0-0.385-0.198-0.577-0.593-0.577
	c-0.318,0-0.661,0.098-1.03,0.293v-0.498c0.405-0.165,0.785-0.247,1.139-0.247c0.371,0,0.644,0.083,0.82,0.25
	c0.176,0.167,0.264,0.427,0.264,0.779v1.503c0,0.344,0.106,0.516,0.318,0.516c0.026,0,0.065-0.004,0.116-0.012l0.043,0.333
	c-0.136,0.065-0.287,0.098-0.452,0.098C117.803,161.67,117.624,161.504,117.546,161.172L117.546,161.172z M117.458,160.845v-0.858
	l-0.202-0.006c-0.33,0-0.597,0.063-0.8,0.188c-0.204,0.125-0.305,0.29-0.305,0.493c0,0.145,0.051,0.267,0.153,0.367
	c0.102,0.1,0.226,0.15,0.373,0.15C116.926,161.178,117.187,161.067,117.458,160.845L117.458,160.845z"/>
<path fill="#0000FF" d="M90.987,140.589c0,1.152-0.934,2.086-2.086,2.086c-1.152,0-2.086-0.934-2.086-2.086s0.934-2.086,2.086-2.086
	C90.054,138.503,90.987,139.437,90.987,140.589L90.987,140.589z"/>
<path fill="none" stroke="#000000" stroke-linecap="round" stroke-linejoin="round" stroke-miterlimit="10" d="M90.987,140.589
	c0,1.152-0.934,2.086-2.086,2.086c-1.152,0-2.086-0.934-2.086-2.086s0.934-2.086,2.086-2.086
	C90.054,138.503,90.987,139.437,90.987,140.589L90.987,140.589z"/>
<path fill="#0000FF" d="M91.33,136.604v-4.86h0.602v2.129c0.246-0.464,0.616-0.697,1.109-0.697c0.399,0,0.713,0.146,0.942,0.437
	c0.229,0.291,0.344,0.689,0.344,1.194c0,0.55-0.13,0.993-0.39,1.33s-0.601,0.506-1.025,0.506c-0.393,0-0.72-0.151-0.981-0.452
	l-0.073,0.412H91.33z M91.932,135.776c0.31,0.277,0.605,0.415,0.886,0.415c0.578,0,0.868-0.441,0.868-1.323
	c0-0.778-0.257-1.167-0.77-1.167c-0.336,0-0.664,0.182-0.984,0.547V135.776z"/>
<path fill="#0000FF" d="M119.334,112.701c0,1.152-0.934,2.086-2.086,2.086c-1.152,0-2.086-0.934-2.086-2.086
	c0-1.152,0.934-2.086,2.086-2.086C118.4,110.615,119.334,111.549,119.334,112.701L119.334,112.701z"/>
<path fill="none" stroke="#000000" stroke-linecap="round" stroke-linejoin="round" stroke-miterlimit="10" d="M119.334,112.701
	c0,1.152-0.934,2.086-2.086,2.086c-1.152,0-2.086-0.934-2.086-2.086c0-1.152,0.934-2.086,2.086-2.086
	C118.4,110.615,119.334,111.549,119.334,112.701L119.334,112.701z"/>
<path fill="#0000FF" d="M121.302,108.489c-0.448,0-0.82-0.166-1.115-0.498c-0.295-0.332-0.443-0.751-0.443-1.256
	c0-0.54,0.146-0.96,0.438-1.262c0.292-0.301,0.7-0.452,1.224-0.452c0.259,0,0.548,0.036,0.868,0.107v0.504
	c-0.34-0.1-0.617-0.15-0.831-0.15c-0.308,0-0.554,0.116-0.741,0.347c-0.186,0.231-0.28,0.539-0.28,0.924
	c0,0.373,0.096,0.674,0.287,0.904c0.191,0.23,0.442,0.345,0.752,0.345c0.275,0,0.558-0.07,0.849-0.211v0.519
	C121.921,108.43,121.585,108.489,121.302,108.489L121.302,108.489z"/>
<path fill="none" stroke="#FF0000" stroke-width="2" stroke-linecap="square" stroke-miterlimit="10" d="M143.509,194.279
	l4.171,4.171 M143.509,198.45l4.171-4.171"/>
<path fill="#FF0000" d="M150.29,192.355v-0.623c-0.244,0.466-0.613,0.7-1.106,0.7c-0.399,0-0.713-0.146-0.942-0.437
	c-0.229-0.291-0.344-0.689-0.344-1.194c0-0.552,0.13-0.996,0.39-1.332c0.26-0.336,0.601-0.504,1.025-0.504
	c0.393,0,0.719,0.151,0.978,0.452v-1.885h0.605v4.824H150.29z M150.29,189.829c-0.312-0.275-0.607-0.412-0.886-0.412
	c-0.576,0-0.865,0.441-0.865,1.323c0,0.776,0.257,1.164,0.77,1.164c0.334,0,0.661-0.182,0.981-0.547V189.829z"/>
<path fill="none" stroke="#FF0000" stroke-width="2" stroke-linecap="square" stroke-miterlimit="10" d="M200.202,166.391
	l4.171,4.171 M200.202,170.562l4.171-4.171"/>
<path fill="#FF0000" d="M207.423,164.094c-0.403,0.122-0.748,0.183-1.036,0.183c-0.489,0-0.887-0.162-1.196-0.487
	c-0.309-0.325-0.463-0.746-0.463-1.263c0-0.503,0.136-0.915,0.408-1.237c0.272-0.322,0.62-0.483,1.043-0.483
	c0.401,0,0.711,0.143,0.93,0.428c0.219,0.285,0.328,0.69,0.328,1.216l-0.003,0.186h-2.093c0.088,0.788,0.474,1.182,1.158,1.182
	c0.251,0,0.558-0.067,0.923-0.202V164.094z M205.37,162.184h1.463c0-0.617-0.23-0.926-0.69-0.926
	C205.681,161.259,205.423,161.567,205.37,162.184L205.37,162.184z"/>
<g>
	<path d="M178.246,78.482l0.182,2.701h-0.182c-0.242-0.809-0.588-1.391-1.037-1.746s-0.988-0.533-1.617-0.533
		c-0.527,0-1.004,0.134-1.43,0.401s-0.761,0.694-1.005,1.28s-0.366,1.314-0.366,2.186c0,0.719,0.115,1.342,0.346,1.869
		s0.577,0.932,1.04,1.213s0.991,0.422,1.585,0.422c0.516,0,0.971-0.11,1.365-0.331s0.828-0.659,1.301-1.315l0.182,0.117
		c-0.398,0.707-0.863,1.225-1.395,1.553s-1.162,0.492-1.893,0.492c-1.316,0-2.336-0.488-3.059-1.465
		c-0.539-0.727-0.809-1.582-0.809-2.566c0-0.793,0.178-1.521,0.533-2.186s0.845-1.179,1.468-1.544s1.304-0.548,2.042-0.548
		c0.574,0,1.141,0.141,1.699,0.422c0.164,0.086,0.281,0.129,0.352,0.129c0.105,0,0.197-0.037,0.275-0.111
		c0.102-0.105,0.174-0.252,0.217-0.439H178.246z"/>
	<path d="M181.246,78.277v7.119c0,0.336,0.024,0.559,0.073,0.668s0.124,0.192,0.226,0.249s0.291,0.085,0.568,0.085v0.211h-2.631
		v-0.211c0.246,0,0.414-0.025,0.504-0.076s0.16-0.135,0.211-0.252s0.076-0.342,0.076-0.674v-4.875c0-0.605-0.014-0.978-0.041-1.116
		s-0.071-0.233-0.132-0.284s-0.138-0.076-0.231-0.076c-0.102,0-0.23,0.031-0.387,0.094l-0.1-0.205l1.6-0.656H181.246z"/>
	<path d="M185.775,85.835c-0.551,0.426-0.896,0.672-1.037,0.738c-0.211,0.098-0.436,0.146-0.674,0.146
		c-0.371,0-0.677-0.127-0.917-0.381s-0.36-0.588-0.36-1.002c0-0.262,0.059-0.488,0.176-0.68c0.16-0.266,0.438-0.516,0.835-0.75
		s1.056-0.52,1.978-0.855v-0.211c0-0.535-0.085-0.902-0.255-1.102s-0.417-0.299-0.741-0.299c-0.246,0-0.441,0.066-0.586,0.199
		c-0.148,0.133-0.223,0.285-0.223,0.457l0.012,0.34c0,0.18-0.046,0.318-0.138,0.416S183.633,83,183.484,83
		c-0.145,0-0.263-0.051-0.354-0.152s-0.138-0.24-0.138-0.416c0-0.336,0.172-0.645,0.516-0.926s0.826-0.422,1.447-0.422
		c0.477,0,0.867,0.08,1.172,0.24c0.23,0.121,0.4,0.311,0.51,0.568c0.07,0.168,0.105,0.512,0.105,1.031v1.822
		c0,0.512,0.01,0.825,0.029,0.94s0.052,0.192,0.097,0.231s0.097,0.059,0.155,0.059c0.062,0,0.117-0.014,0.164-0.041
		c0.082-0.051,0.24-0.193,0.475-0.428v0.328c-0.438,0.586-0.855,0.879-1.254,0.879c-0.191,0-0.344-0.066-0.457-0.199
		S185.779,86.156,185.775,85.835z M185.775,85.455V83.41c-0.59,0.234-0.971,0.4-1.143,0.498c-0.309,0.172-0.529,0.352-0.662,0.539
		s-0.199,0.393-0.199,0.615c0,0.281,0.084,0.515,0.252,0.7s0.361,0.278,0.58,0.278C184.9,86.041,185.291,85.845,185.775,85.455z"/>
	<path d="M191.529,81.083v1.828h-0.193c-0.148-0.574-0.339-0.965-0.571-1.172s-0.528-0.311-0.888-0.311
		c-0.273,0-0.494,0.072-0.662,0.217s-0.252,0.305-0.252,0.48c0,0.219,0.062,0.406,0.188,0.562c0.121,0.16,0.367,0.33,0.738,0.51
		l0.855,0.416c0.793,0.387,1.189,0.896,1.189,1.529c0,0.488-0.185,0.882-0.554,1.181s-0.782,0.448-1.239,0.448
		c-0.328,0-0.703-0.059-1.125-0.176c-0.129-0.039-0.234-0.059-0.316-0.059c-0.09,0-0.16,0.051-0.211,0.152h-0.193v-1.916h0.193
		c0.109,0.547,0.318,0.959,0.627,1.236s0.654,0.416,1.037,0.416c0.27,0,0.489-0.079,0.659-0.237s0.255-0.349,0.255-0.571
		c0-0.27-0.095-0.496-0.284-0.68s-0.567-0.416-1.134-0.697s-0.938-0.535-1.113-0.762c-0.176-0.223-0.264-0.504-0.264-0.844
		c0-0.441,0.151-0.811,0.454-1.107s0.694-0.445,1.175-0.445c0.211,0,0.467,0.045,0.768,0.135c0.199,0.059,0.332,0.088,0.398,0.088
		c0.062,0,0.111-0.014,0.146-0.041s0.076-0.088,0.123-0.182H191.529z"/>
	<path d="M193.633,83.263c-0.004,0.797,0.189,1.422,0.58,1.875s0.85,0.68,1.377,0.68c0.352,0,0.657-0.097,0.917-0.29
		s0.478-0.524,0.653-0.993l0.182,0.117c-0.082,0.535-0.32,1.022-0.715,1.462s-0.889,0.659-1.482,0.659
		c-0.645,0-1.196-0.251-1.655-0.753s-0.688-1.177-0.688-2.024c0-0.918,0.235-1.634,0.706-2.147s1.062-0.771,1.772-0.771
		c0.602,0,1.096,0.198,1.482,0.595s0.58,0.927,0.58,1.591H193.633z M193.633,82.923h2.484c-0.02-0.344-0.061-0.586-0.123-0.727
		c-0.098-0.219-0.243-0.391-0.437-0.516s-0.396-0.188-0.606-0.188c-0.324,0-0.614,0.126-0.87,0.378S193.676,82.474,193.633,82.923z"
		/>
	<path d="M202.088,79.443l1.934-0.943h0.193v6.709c0,0.445,0.019,0.723,0.056,0.832s0.114,0.193,0.231,0.252s0.355,0.092,0.715,0.1
		v0.217h-2.988v-0.217c0.375-0.008,0.617-0.04,0.727-0.097s0.186-0.133,0.229-0.229s0.064-0.382,0.064-0.858v-4.289
		c0-0.578-0.02-0.949-0.059-1.113c-0.027-0.125-0.077-0.217-0.149-0.275s-0.159-0.088-0.261-0.088c-0.145,0-0.346,0.061-0.604,0.182
		L202.088,79.443z"/>
</g>
<g>
	<path d="M236.989,139.482l0.182,2.701h-0.182c-0.242-0.809-0.588-1.391-1.037-1.746s-0.988-0.533-1.617-0.533
		c-0.527,0-1.004,0.134-1.43,0.401s-0.761,0.694-1.005,1.28s-0.366,1.314-0.366,2.186c0,0.719,0.115,1.342,0.346,1.869
		s0.577,0.932,1.04,1.213s0.991,0.422,1.585,0.422c0.516,0,0.971-0.11,1.365-0.331s0.828-0.659,1.301-1.315l0.182,0.117
		c-0.398,0.707-0.863,1.225-1.395,1.553s-1.162,0.492-1.893,0.492c-1.316,0-2.336-0.488-3.059-1.465
		c-0.539-0.727-0.809-1.582-0.809-2.566c0-0.793,0.178-1.521,0.533-2.186s0.845-1.179,1.468-1.544s1.304-0.548,2.042-0.548
		c0.574,0,1.141,0.141,1.699,0.422c0.164,0.086,0.281,0.129,0.352,0.129c0.105,0,0.197-0.037,0.275-0.111
		c0.102-0.105,0.174-0.252,0.217-0.439H236.989z"/>
	<path d="M239.989,139.277v7.119c0,0.336,0.024,0.559,0.073,0.668s0.124,0.192,0.226,0.249s0.291,0.085,0.568,0.085v0.211h-2.631
		v-0.211c0.246,0,0.414-0.025,0.504-0.076s0.16-0.135,0.211-0.252s0.076-0.342,0.076-0.674v-4.875c0-0.605-0.014-0.978-0.041-1.116
		s-0.071-0.233-0.132-0.284s-0.138-0.076-0.231-0.076c-0.102,0-0.23,0.031-0.387,0.094l-0.1-0.205l1.6-0.656H239.989z"/>
	<path d="M244.519,146.836c-0.551,0.426-0.896,0.672-1.037,0.738c-0.211,0.098-0.436,0.146-0.674,0.146
		c-0.371,0-0.677-0.127-0.917-0.381s-0.36-0.588-0.36-1.002c0-0.262,0.059-0.488,0.176-0.68c0.16-0.266,0.438-0.516,0.835-0.75
		s1.056-0.52,1.978-0.855v-0.211c0-0.535-0.085-0.902-0.255-1.102s-0.417-0.299-0.741-0.299c-0.246,0-0.441,0.066-0.586,0.199
		c-0.148,0.133-0.223,0.285-0.223,0.457l0.012,0.34c0,0.18-0.046,0.318-0.138,0.416s-0.212,0.146-0.36,0.146
		c-0.145,0-0.263-0.051-0.354-0.152s-0.138-0.24-0.138-0.416c0-0.336,0.172-0.645,0.516-0.926s0.826-0.422,1.447-0.422
		c0.477,0,0.867,0.08,1.172,0.24c0.23,0.121,0.4,0.311,0.51,0.568c0.07,0.168,0.105,0.512,0.105,1.031v1.822
		c0,0.512,0.01,0.825,0.029,0.94s0.052,0.192,0.097,0.231s0.097,0.059,0.155,0.059c0.062,0,0.117-0.014,0.164-0.041
		c0.082-0.051,0.24-0.193,0.475-0.428v0.328c-0.438,0.586-0.855,0.879-1.254,0.879c-0.191,0-0.344-0.066-0.457-0.199
		S244.522,147.156,244.519,146.836z M244.519,146.455v-2.045c-0.59,0.234-0.971,0.4-1.143,0.498
		c-0.309,0.172-0.529,0.352-0.662,0.539s-0.199,0.393-0.199,0.615c0,0.281,0.084,0.515,0.252,0.7s0.361,0.278,0.58,0.278
		C243.644,147.041,244.034,146.846,244.519,146.455z"/>
	<path d="M250.272,142.084v1.828h-0.193c-0.148-0.574-0.339-0.965-0.571-1.172s-0.528-0.311-0.888-0.311
		c-0.273,0-0.494,0.072-0.662,0.217s-0.252,0.305-0.252,0.48c0,0.219,0.062,0.406,0.188,0.562c0.121,0.16,0.367,0.33,0.738,0.51
		l0.855,0.416c0.793,0.387,1.189,0.896,1.189,1.529c0,0.488-0.185,0.882-0.554,1.181s-0.782,0.448-1.239,0.448
		c-0.328,0-0.703-0.059-1.125-0.176c-0.129-0.039-0.234-0.059-0.316-0.059c-0.09,0-0.16,0.051-0.211,0.152h-0.193v-1.916h0.193
		c0.109,0.547,0.318,0.959,0.627,1.236s0.654,0.416,1.037,0.416c0.27,0,0.489-0.079,0.659-0.237s0.255-0.349,0.255-0.571
		c0-0.27-0.095-0.496-0.284-0.68s-0.567-0.416-1.134-0.697s-0.938-0.535-1.113-0.762c-0.176-0.223-0.264-0.504-0.264-0.844
		c0-0.441,0.151-0.811,0.454-1.107s0.694-0.445,1.175-0.445c0.211,0,0.467,0.045,0.768,0.135c0.199,0.059,0.332,0.088,0.398,0.088
		c0.062,0,0.111-0.014,0.146-0.041s0.076-0.088,0.123-0.182H250.272z"/>
	<path d="M252.376,144.264c-0.004,0.797,0.189,1.422,0.58,1.875s0.85,0.68,1.377,0.68c0.352,0,0.657-0.097,0.917-0.29
		s0.478-0.524,0.653-0.993l0.182,0.117c-0.082,0.535-0.32,1.022-0.715,1.462s-0.889,0.659-1.482,0.659
		c-0.645,0-1.196-0.251-1.655-0.753s-0.688-1.177-0.688-2.024c0-0.918,0.235-1.634,0.706-2.147s1.062-0.771,1.772-0.771
		c0.602,0,1.096,0.198,1.482,0.595s0.58,0.927,0.58,1.591H252.376z M252.376,143.924h2.484c-0.02-0.344-0.061-0.586-0.123-0.727
		c-0.098-0.219-0.243-0.391-0.437-0.516s-0.396-0.188-0.606-0.188c-0.324,0-0.614,0.126-0.87,0.378S252.419,143.475,252.376,143.924
		z"/>
	<path d="M264.927,146.08l-0.557,1.529h-4.688v-0.217c1.379-1.258,2.35-2.285,2.912-3.082s0.844-1.525,0.844-2.186
		c0-0.504-0.154-0.918-0.463-1.242s-0.678-0.486-1.107-0.486c-0.391,0-0.741,0.114-1.052,0.343s-0.54,0.563-0.688,1.005h-0.217
		c0.098-0.723,0.349-1.277,0.753-1.664s0.909-0.58,1.515-0.58c0.645,0,1.183,0.207,1.614,0.621s0.647,0.902,0.647,1.465
		c0,0.402-0.094,0.805-0.281,1.207c-0.289,0.633-0.758,1.303-1.406,2.01c-0.973,1.062-1.58,1.703-1.822,1.922h2.074
		c0.422,0,0.718-0.016,0.888-0.047s0.323-0.095,0.46-0.19s0.256-0.231,0.357-0.407H264.927z"/>
</g>
<g>
	<path d="M310.916,207.671c-0.006,1.195,0.284,2.133,0.87,2.812s1.274,1.02,2.065,1.02c0.527,0,0.986-0.146,1.375-0.436
		c0.391-0.29,0.717-0.786,0.98-1.489l0.272,0.176c-0.123,0.803-0.48,1.533-1.072,2.192s-1.333,0.989-2.224,0.989
		c-0.967,0-1.795-0.377-2.482-1.13c-0.689-0.753-1.033-1.765-1.033-3.036c0-1.377,0.354-2.451,1.059-3.222
		c0.707-0.771,1.593-1.155,2.659-1.155c0.902,0,1.644,0.297,2.224,0.892s0.87,1.391,0.87,2.387H310.916z M310.916,207.161h3.727
		c-0.029-0.516-0.091-0.879-0.185-1.09c-0.146-0.328-0.364-0.586-0.655-0.773c-0.289-0.188-0.593-0.281-0.909-0.281
		c-0.486,0-0.921,0.188-1.306,0.566C311.205,205.961,310.98,206.487,310.916,207.161z"/>
	<path d="M318.219,212.417l1.691-0.825h0.169v5.867c0,0.389,0.017,0.632,0.049,0.728s0.1,0.169,0.202,0.22
		c0.103,0.052,0.311,0.081,0.625,0.088v0.189h-2.613v-0.189c0.328-0.007,0.54-0.035,0.636-0.085c0.095-0.05,0.162-0.116,0.2-0.2
		c0.037-0.083,0.056-0.333,0.056-0.75v-3.751c0-0.506-0.017-0.83-0.052-0.974c-0.023-0.109-0.066-0.189-0.13-0.241
		c-0.063-0.051-0.14-0.076-0.228-0.076c-0.127,0-0.303,0.053-0.528,0.158L318.219,212.417z"/>
</g>
<g>
	<path d="M68.501,24.019c-0.006,1.195,0.284,2.133,0.87,2.812s1.274,1.02,2.065,1.02c0.527,0,0.986-0.145,1.375-0.435
		s0.716-0.787,0.98-1.49l0.272,0.176c-0.123,0.803-0.48,1.534-1.072,2.193s-1.333,0.989-2.224,0.989
		c-0.967,0-1.794-0.376-2.483-1.129s-1.033-1.765-1.033-3.037c0-1.377,0.353-2.451,1.059-3.221s1.592-1.156,2.659-1.156
		c0.902,0,1.644,0.297,2.224,0.892s0.87,1.39,0.87,2.386H68.501z M68.501,23.509h3.727c-0.029-0.516-0.091-0.879-0.185-1.09
		c-0.146-0.328-0.365-0.586-0.655-0.773s-0.593-0.281-0.91-0.281c-0.486,0-0.921,0.189-1.305,0.567S68.565,22.835,68.501,23.509z"/>
	<path d="M79.386,33.694l-0.487,1.337H74.8v-0.189c1.206-1.1,2.055-1.999,2.546-2.695c0.492-0.697,0.738-1.334,0.738-1.911
		c0-0.441-0.135-0.803-0.405-1.086c-0.27-0.284-0.592-0.425-0.968-0.425c-0.342,0-0.648,0.1-0.92,0.3
		c-0.271,0.2-0.472,0.493-0.602,0.879H75c0.085-0.632,0.305-1.117,0.658-1.456c0.354-0.338,0.795-0.507,1.325-0.507
		c0.564,0,1.034,0.181,1.412,0.543c0.377,0.362,0.566,0.789,0.566,1.281c0,0.352-0.082,0.704-0.246,1.056
		c-0.253,0.553-0.663,1.139-1.229,1.757c-0.851,0.929-1.382,1.49-1.594,1.681h1.814c0.369,0,0.627-0.013,0.776-0.041
		c0.148-0.027,0.282-0.083,0.402-0.167c0.12-0.083,0.224-0.202,0.313-0.356H79.386z"/>
</g>
</svg>
