<svg xmlns="http://www.w3.org/2000/svg" width="100%" height="100%"><g transform="scale(1)"><text font-size="16px" fill="black" x="10" y="15">Input Volume (+pad 1) (7x7x3)</text><text font-size="16px" style="font-family: courier;" fill="black" x="10" y="35">x[:,:,0]</text><rect class="x" id="x_0_0_0" fill="#ddd" stroke="none" stroke-width="2" x="10" y="40" width="25" height="25" /><text font-size="16px" fill="black" x="15" y="55">0</text><rect class="x" id="x_0_1_0" fill="#ddd" stroke="none" stroke-width="2" x="10" y="68" width="25" height="25" /><text font-size="16px" fill="black" x="15" y="83">0</text><rect class="x" id="x_0_2_0" fill="#ddd" stroke="none" stroke-width="2" x="10" y="96" width="25" height="25" /><text font-size="16px" fill="black" x="15" y="111">0</text><rect class="x" id="x_0_3_0" fill="#ddd" stroke="none" stroke-width="2" x="10" y="124" width="25" height="25" /><text font-size="16px" fill="black" x="15" y="139">0</text><rect class="x" id="x_0_4_0" fill="#ddd" stroke="none" stroke-width="2" x="10" y="152" width="25" height="25" /><text font-size="16px" fill="black" x="15" y="167">0</text><rect class="x" id="x_0_5_0" fill="#ddd" stroke="none" stroke-width="2" x="10" y="180" width="25" height="25" /><text font-size="16px" fill="black" x="15" y="195">0</text><rect class="x" id="x_0_6_0" fill="#ddd" stroke="none" stroke-width="2" x="10" y="208" width="25" height="25" /><text font-size="16px" fill="black" x="15" y="223">0</text><rect class="x" id="x_1_0_0" fill="#ddd" stroke="none" stroke-width="2" x="38" y="40" width="25" height="25" /><text font-size="16px" fill="black" x="43" y="55">0</text><rect class="x" id="x_1_1_0" fill="#ddf" stroke="none" stroke-width="2" x="38" y="68" width="25" height="25" /><text font-size="16px" fill="black" x="43" y="83">1</text><rect class="x" id="x_1_2_0" fill="#ddf" stroke="none" stroke-width="2" x="38" y="96" width="25" height="25" /><text font-size="16px" fill="black" x="43" y="111">0</text><rect class="x" id="x_1_3_0" fill="#ddf" stroke="none" stroke-width="2" x="38" y="124" width="25" height="25" /><text font-size="16px" fill="black" x="43" y="139">2</text><rect class="x" id="x_1_4_0" fill="#ddf" stroke="none" stroke-width="2" x="38" y="152" width="25" height="25" /><text font-size="16px" fill="black" x="43" y="167">0</text><rect class="x" id="x_1_5_0" fill="#ddf" stroke="none" stroke-width="2" x="38" y="180" width="25" height="25" /><text font-size="16px" fill="black" x="43" y="195">0</text><rect class="x" id="x_1_6_0" fill="#ddd" stroke="none" stroke-width="2" x="38" y="208" width="25" height="25" /><text font-size="16px" fill="black" x="43" y="223">0</text><rect class="x" id="x_2_0_0" fill="#ddd" stroke="none" stroke-width="2" x="66" y="40" width="25" height="25" /><text font-size="16px" fill="black" x="71" y="55">0</text><rect class="x" id="x_2_1_0" fill="#ddf" stroke="none" stroke-width="2" x="66" y="68" width="25" height="25" /><text font-size="16px" fill="black" x="71" y="83">1</text><rect class="x" id="x_2_2_0" fill="#ddf" stroke="none" stroke-width="2" x="66" y="96" width="25" height="25" /><text font-size="16px" fill="black" x="71" y="111">1</text><rect class="x" id="x_2_3_0" fill="#ddf" stroke="none" stroke-width="2" x="66" y="124" width="25" height="25" /><text font-size="16px" fill="black" x="71" y="139">0</text><rect class="x" id="x_2_4_0" fill="#ddf" stroke="none" stroke-width="2" x="66" y="152" width="25" height="25" /><text font-size="16px" fill="black" x="71" y="167">1</text><rect class="x" id="x_2_5_0" fill="#ddf" stroke="none" stroke-width="2" x="66" y="180" width="25" height="25" /><text font-size="16px" fill="black" x="71" y="195">1</text><rect class="x" id="x_2_6_0" fill="#ddd" stroke="none" stroke-width="2" x="66" y="208" width="25" height="25" /><text font-size="16px" fill="black" x="71" y="223">0</text><rect class="x" id="x_3_0_0" fill="#ddd" stroke="none" stroke-width="2" x="94" y="40" width="25" height="25" /><text font-size="16px" fill="black" x="99" y="55">0</text><rect class="x" id="x_3_1_0" fill="#ddf" stroke="none" stroke-width="2" x="94" y="68" width="25" height="25" /><text font-size="16px" fill="black" x="99" y="83">1</text><rect class="x" id="x_3_2_0" fill="#ddf" stroke="none" stroke-width="2" x="94" y="96" width="25" height="25" /><text font-size="16px" fill="black" x="99" y="111">2</text><rect class="x" id="x_3_3_0" fill="#ddf" stroke="none" stroke-width="2" x="94" y="124" width="25" height="25" /><text font-size="16px" fill="black" x="99" y="139">2</text><rect class="x" id="x_3_4_0" fill="#ddf" stroke="none" stroke-width="2" x="94" y="152" width="25" height="25" /><text font-size="16px" fill="black" x="99" y="167">1</text><rect class="x" id="x_3_5_0" fill="#ddf" stroke="none" stroke-width="2" x="94" y="180" width="25" height="25" /><text font-size="16px" fill="black" x="99" y="195">2</text><rect class="x" id="x_3_6_0" fill="#ddd" stroke="none" stroke-width="2" x="94" y="208" width="25" height="25" /><text font-size="16px" fill="black" x="99" y="223">0</text><rect class="x" id="x_4_0_0" fill="#ddd" stroke="none" stroke-width="2" x="122" y="40" width="25" height="25" /><text font-size="16px" fill="black" x="127" y="55">0</text><rect class="x" id="x_4_1_0" fill="#ddf" stroke="none" stroke-width="2" x="122" y="68" width="25" height="25" /><text font-size="16px" fill="black" x="127" y="83">0</text><rect class="x" id="x_4_2_0" fill="#ddf" stroke="#00a" stroke-width="2" x="122" y="96" width="25" height="25" /><text font-size="16px" fill="black" x="127" y="111">1</text><rect class="x" id="x_4_3_0" fill="#ddf" stroke="#00a" stroke-width="2" x="122" y="124" width="25" height="25" /><text font-size="16px" fill="black" x="127" y="139">0</text><rect class="x" id="x_4_4_0" fill="#ddf" stroke="#00a" stroke-width="2" x="122" y="152" width="25" height="25" /><text font-size="16px" fill="black" x="127" y="167">2</text><rect class="x" id="x_4_5_0" fill="#ddf" stroke="none" stroke-width="2" x="122" y="180" width="25" height="25" /><text font-size="16px" fill="black" x="127" y="195">0</text><rect class="x" id="x_4_6_0" fill="#ddd" stroke="none" stroke-width="2" x="122" y="208" width="25" height="25" /><text font-size="16px" fill="black" x="127" y="223">0</text><rect class="x" id="x_5_0_0" fill="#ddd" stroke="none" stroke-width="2" x="150" y="40" width="25" height="25" /><text font-size="16px" fill="black" x="155" y="55">0</text><rect class="x" id="x_5_1_0" fill="#ddf" stroke="none" stroke-width="2" x="150" y="68" width="25" height="25" /><text font-size="16px" fill="black" x="155" y="83">0</text><rect class="x" id="x_5_2_0" fill="#ddf" stroke="#00a" stroke-width="2" x="150" y="96" width="25" height="25" /><text font-size="16px" fill="black" x="155" y="111">2</text><rect class="x" id="x_5_3_0" fill="#ddf" stroke="#00a" stroke-width="2" x="150" y="124" width="25" height="25" /><text font-size="16px" fill="black" x="155" y="139">0</text><rect class="x" id="x_5_4_0" fill="#ddf" stroke="#00a" stroke-width="2" x="150" y="152" width="25" height="25" /><text font-size="16px" fill="black" x="155" y="167">1</text><rect class="x" id="x_5_5_0" fill="#ddf" stroke="none" stroke-width="2" x="150" y="180" width="25" height="25" /><text font-size="16px" fill="black" x="155" y="195">1</text><rect class="x" id="x_5_6_0" fill="#ddd" stroke="none" stroke-width="2" x="150" y="208" width="25" height="25" /><text font-size="16px" fill="black" x="155" y="223">0</text><rect class="x" id="x_6_0_0" fill="#ddd" stroke="none" stroke-width="2" x="178" y="40" width="25" height="25" /><text font-size="16px" fill="black" x="183" y="55">0</text><rect class="x" id="x_6_1_0" fill="#ddd" stroke="none" stroke-width="2" x="178" y="68" width="25" height="25" /><text font-size="16px" fill="black" x="183" y="83">0</text><rect class="x" id="x_6_2_0" fill="#ddd" stroke="#00a" stroke-width="2" x="178" y="96" width="25" height="25" /><text font-size="16px" fill="black" x="183" y="111">0</text><rect class="x" id="x_6_3_0" fill="#ddd" stroke="#00a" stroke-width="2" x="178" y="124" width="25" height="25" /><text font-size="16px" fill="black" x="183" y="139">0</text><rect class="x" id="x_6_4_0" fill="#ddd" stroke="#00a" stroke-width="2" x="178" y="152" width="25" height="25" /><text font-size="16px" fill="black" x="183" y="167">0</text><rect class="x" id="x_6_5_0" fill="#ddd" stroke="none" stroke-width="2" x="178" y="180" width="25" height="25" /><text font-size="16px" fill="black" x="183" y="195">0</text><rect class="x" id="x_6_6_0" fill="#ddd" stroke="none" stroke-width="2" x="178" y="208" width="25" height="25" /><text font-size="16px" fill="black" x="183" y="223">0</text><text font-size="16px" style="font-family: courier;" fill="black" x="10" y="251">x[:,:,1]</text><rect class="x" id="x_0_0_1" fill="#ddd" stroke="none" stroke-width="2" x="10" y="256" width="25" height="25" /><text font-size="16px" fill="black" x="15" y="271">0</text><rect class="x" id="x_0_1_1" fill="#ddd" stroke="none" stroke-width="2" x="10" y="284" width="25" height="25" /><text font-size="16px" fill="black" x="15" y="299">0</text><rect class="x" id="x_0_2_1" fill="#ddd" stroke="none" stroke-width="2" x="10" y="312" width="25" height="25" /><text font-size="16px" fill="black" x="15" y="327">0</text><rect class="x" id="x_0_3_1" fill="#ddd" stroke="none" stroke-width="2" x="10" y="340" width="25" height="25" /><text font-size="16px" fill="black" x="15" y="355">0</text><rect class="x" id="x_0_4_1" fill="#ddd" stroke="none" stroke-width="2" x="10" y="368" width="25" height="25" /><text font-size="16px" fill="black" x="15" y="383">0</text><rect class="x" id="x_0_5_1" fill="#ddd" stroke="none" stroke-width="2" x="10" y="396" width="25" height="25" /><text font-size="16px" fill="black" x="15" y="411">0</text><rect class="x" id="x_0_6_1" fill="#ddd" stroke="none" stroke-width="2" x="10" y="424" width="25" height="25" /><text font-size="16px" fill="black" x="15" y="439">0</text><rect class="x" id="x_1_0_1" fill="#ddd" stroke="none" stroke-width="2" x="38" y="256" width="25" height="25" /><text font-size="16px" fill="black" x="43" y="271">0</text><rect class="x" id="x_1_1_1" fill="#ddf" stroke="none" stroke-width="2" x="38" y="284" width="25" height="25" /><text font-size="16px" fill="black" x="43" y="299">0</text><rect class="x" id="x_1_2_1" fill="#ddf" stroke="none" stroke-width="2" x="38" y="312" width="25" height="25" /><text font-size="16px" fill="black" x="43" y="327">2</text><rect class="x" id="x_1_3_1" fill="#ddf" stroke="none" stroke-width="2" x="38" y="340" width="25" height="25" /><text font-size="16px" fill="black" x="43" y="355">0</text><rect class="x" id="x_1_4_1" fill="#ddf" stroke="none" stroke-width="2" x="38" y="368" width="25" height="25" /><text font-size="16px" fill="black" x="43" y="383">2</text><rect class="x" id="x_1_5_1" fill="#ddf" stroke="none" stroke-width="2" x="38" y="396" width="25" height="25" /><text font-size="16px" fill="black" x="43" y="411">0</text><rect class="x" id="x_1_6_1" fill="#ddd" stroke="none" stroke-width="2" x="38" y="424" width="25" height="25" /><text font-size="16px" fill="black" x="43" y="439">0</text><rect class="x" id="x_2_0_1" fill="#ddd" stroke="none" stroke-width="2" x="66" y="256" width="25" height="25" /><text font-size="16px" fill="black" x="71" y="271">0</text><rect class="x" id="x_2_1_1" fill="#ddf" stroke="none" stroke-width="2" x="66" y="284" width="25" height="25" /><text font-size="16px" fill="black" x="71" y="299">0</text><rect class="x" id="x_2_2_1" fill="#ddf" stroke="none" stroke-width="2" x="66" y="312" width="25" height="25" /><text font-size="16px" fill="black" x="71" y="327">0</text><rect class="x" id="x_2_3_1" fill="#ddf" stroke="none" stroke-width="2" x="66" y="340" width="25" height="25" /><text font-size="16px" fill="black" x="71" y="355">1</text><rect class="x" id="x_2_4_1" fill="#ddf" stroke="none" stroke-width="2" x="66" y="368" width="25" height="25" /><text font-size="16px" fill="black" x="71" y="383">2</text><rect class="x" id="x_2_5_1" fill="#ddf" stroke="none" stroke-width="2" x="66" y="396" width="25" height="25" /><text font-size="16px" fill="black" x="71" y="411">1</text><rect class="x" id="x_2_6_1" fill="#ddd" stroke="none" stroke-width="2" x="66" y="424" width="25" height="25" /><text font-size="16px" fill="black" x="71" y="439">0</text><rect class="x" id="x_3_0_1" fill="#ddd" stroke="none" stroke-width="2" x="94" y="256" width="25" height="25" /><text font-size="16px" fill="black" x="99" y="271">0</text><rect class="x" id="x_3_1_1" fill="#ddf" stroke="none" stroke-width="2" x="94" y="284" width="25" height="25" /><text font-size="16px" fill="black" x="99" y="299">1</text><rect class="x" id="x_3_2_1" fill="#ddf" stroke="none" stroke-width="2" x="94" y="312" width="25" height="25" /><text font-size="16px" fill="black" x="99" y="327">0</text><rect class="x" id="x_3_3_1" fill="#ddf" stroke="none" stroke-width="2" x="94" y="340" width="25" height="25" /><text font-size="16px" fill="black" x="99" y="355">1</text><rect class="x" id="x_3_4_1" fill="#ddf" stroke="none" stroke-width="2" x="94" y="368" width="25" height="25" /><text font-size="16px" fill="black" x="99" y="383">1</text><rect class="x" id="x_3_5_1" fill="#ddf" stroke="none" stroke-width="2" x="94" y="396" width="25" height="25" /><text font-size="16px" fill="black" x="99" y="411">0</text><rect class="x" id="x_3_6_1" fill="#ddd" stroke="none" stroke-width="2" x="94" y="424" width="25" height="25" /><text font-size="16px" fill="black" x="99" y="439">0</text><rect class="x" id="x_4_0_1" fill="#ddd" stroke="none" stroke-width="2" x="122" y="256" width="25" height="25" /><text font-size="16px" fill="black" x="127" y="271">0</text><rect class="x" id="x_4_1_1" fill="#ddf" stroke="none" stroke-width="2" x="122" y="284" width="25" height="25" /><text font-size="16px" fill="black" x="127" y="299">1</text><rect class="x" id="x_4_2_1" fill="#ddf" stroke="#00a" stroke-width="2" x="122" y="312" width="25" height="25" /><text font-size="16px" fill="black" x="127" y="327">1</text><rect class="x" id="x_4_3_1" fill="#ddf" stroke="#00a" stroke-width="2" x="122" y="340" width="25" height="25" /><text font-size="16px" fill="black" x="127" y="355">1</text><rect class="x" id="x_4_4_1" fill="#ddf" stroke="#00a" stroke-width="2" x="122" y="368" width="25" height="25" /><text font-size="16px" fill="black" x="127" y="383">1</text><rect class="x" id="x_4_5_1" fill="#ddf" stroke="none" stroke-width="2" x="122" y="396" width="25" height="25" /><text font-size="16px" fill="black" x="127" y="411">1</text><rect class="x" id="x_4_6_1" fill="#ddd" stroke="none" stroke-width="2" x="122" y="424" width="25" height="25" /><text font-size="16px" fill="black" x="127" y="439">0</text><rect class="x" id="x_5_0_1" fill="#ddd" stroke="none" stroke-width="2" x="150" y="256" width="25" height="25" /><text font-size="16px" fill="black" x="155" y="271">0</text><rect class="x" id="x_5_1_1" fill="#ddf" stroke="none" stroke-width="2" x="150" y="284" width="25" height="25" /><text font-size="16px" fill="black" x="155" y="299">0</text><rect class="x" id="x_5_2_1" fill="#ddf" stroke="#00a" stroke-width="2" x="150" y="312" width="25" height="25" /><text font-size="16px" fill="black" x="155" y="327">1</text><rect class="x" id="x_5_3_1" fill="#ddf" stroke="#00a" stroke-width="2" x="150" y="340" width="25" height="25" /><text font-size="16px" fill="black" x="155" y="355">1</text><rect class="x" id="x_5_4_1" fill="#ddf" stroke="#00a" stroke-width="2" x="150" y="368" width="25" height="25" /><text font-size="16px" fill="black" x="155" y="383">0</text><rect class="x" id="x_5_5_1" fill="#ddf" stroke="none" stroke-width="2" x="150" y="396" width="25" height="25" /><text font-size="16px" fill="black" x="155" y="411">0</text><rect class="x" id="x_5_6_1" fill="#ddd" stroke="none" stroke-width="2" x="150" y="424" width="25" height="25" /><text font-size="16px" fill="black" x="155" y="439">0</text><rect class="x" id="x_6_0_1" fill="#ddd" stroke="none" stroke-width="2" x="178" y="256" width="25" height="25" /><text font-size="16px" fill="black" x="183" y="271">0</text><rect class="x" id="x_6_1_1" fill="#ddd" stroke="none" stroke-width="2" x="178" y="284" width="25" height="25" /><text font-size="16px" fill="black" x="183" y="299">0</text><rect class="x" id="x_6_2_1" fill="#ddd" stroke="#00a" stroke-width="2" x="178" y="312" width="25" height="25" /><text font-size="16px" fill="black" x="183" y="327">0</text><rect class="x" id="x_6_3_1" fill="#ddd" stroke="#00a" stroke-width="2" x="178" y="340" width="25" height="25" /><text font-size="16px" fill="black" x="183" y="355">0</text><rect class="x" id="x_6_4_1" fill="#ddd" stroke="#00a" stroke-width="2" x="178" y="368" width="25" height="25" /><text font-size="16px" fill="black" x="183" y="383">0</text><rect class="x" id="x_6_5_1" fill="#ddd" stroke="none" stroke-width="2" x="178" y="396" width="25" height="25" /><text font-size="16px" fill="black" x="183" y="411">0</text><rect class="x" id="x_6_6_1" fill="#ddd" stroke="none" stroke-width="2" x="178" y="424" width="25" height="25" /><text font-size="16px" fill="black" x="183" y="439">0</text><text font-size="16px" style="font-family: courier;" fill="black" x="10" y="467">x[:,:,2]</text><rect class="x" id="x_0_0_2" fill="#ddd" stroke="none" stroke-width="2" x="10" y="472" width="25" height="25" /><text font-size="16px" fill="black" x="15" y="487">0</text><rect class="x" id="x_0_1_2" fill="#ddd" stroke="none" stroke-width="2" x="10" y="500" width="25" height="25" /><text font-size="16px" fill="black" x="15" y="515">0</text><rect class="x" id="x_0_2_2" fill="#ddd" stroke="none" stroke-width="2" x="10" y="528" width="25" height="25" /><text font-size="16px" fill="black" x="15" y="543">0</text><rect class="x" id="x_0_3_2" fill="#ddd" stroke="none" stroke-width="2" x="10" y="556" width="25" height="25" /><text font-size="16px" fill="black" x="15" y="571">0</text><rect class="x" id="x_0_4_2" fill="#ddd" stroke="none" stroke-width="2" x="10" y="584" width="25" height="25" /><text font-size="16px" fill="black" x="15" y="599">0</text><rect class="x" id="x_0_5_2" fill="#ddd" stroke="none" stroke-width="2" x="10" y="612" width="25" height="25" /><text font-size="16px" fill="black" x="15" y="627">0</text><rect class="x" id="x_0_6_2" fill="#ddd" stroke="none" stroke-width="2" x="10" y="640" width="25" height="25" /><text font-size="16px" fill="black" x="15" y="655">0</text><rect class="x" id="x_1_0_2" fill="#ddd" stroke="none" stroke-width="2" x="38" y="472" width="25" height="25" /><text font-size="16px" fill="black" x="43" y="487">0</text><rect class="x" id="x_1_1_2" fill="#ddf" stroke="none" stroke-width="2" x="38" y="500" width="25" height="25" /><text font-size="16px" fill="black" x="43" y="515">0</text><rect class="x" id="x_1_2_2" fill="#ddf" stroke="none" stroke-width="2" x="38" y="528" width="25" height="25" /><text font-size="16px" fill="black" x="43" y="543">2</text><rect class="x" id="x_1_3_2" fill="#ddf" stroke="none" stroke-width="2" x="38" y="556" width="25" height="25" /><text font-size="16px" fill="black" x="43" y="571">2</text><rect class="x" id="x_1_4_2" fill="#ddf" stroke="none" stroke-width="2" x="38" y="584" width="25" height="25" /><text font-size="16px" fill="black" x="43" y="599">2</text><rect class="x" id="x_1_5_2" fill="#ddf" stroke="none" stroke-width="2" x="38" y="612" width="25" height="25" /><text font-size="16px" fill="black" x="43" y="627">2</text><rect class="x" id="x_1_6_2" fill="#ddd" stroke="none" stroke-width="2" x="38" y="640" width="25" height="25" /><text font-size="16px" fill="black" x="43" y="655">0</text><rect class="x" id="x_2_0_2" fill="#ddd" stroke="none" stroke-width="2" x="66" y="472" width="25" height="25" /><text font-size="16px" fill="black" x="71" y="487">0</text><rect class="x" id="x_2_1_2" fill="#ddf" stroke="none" stroke-width="2" x="66" y="500" width="25" height="25" /><text font-size="16px" fill="black" x="71" y="515">1</text><rect class="x" id="x_2_2_2" fill="#ddf" stroke="none" stroke-width="2" x="66" y="528" width="25" height="25" /><text font-size="16px" fill="black" x="71" y="543">1</text><rect class="x" id="x_2_3_2" fill="#ddf" stroke="none" stroke-width="2" x="66" y="556" width="25" height="25" /><text font-size="16px" fill="black" x="71" y="571">2</text><rect class="x" id="x_2_4_2" fill="#ddf" stroke="none" stroke-width="2" x="66" y="584" width="25" height="25" /><text font-size="16px" fill="black" x="71" y="599">1</text><rect class="x" id="x_2_5_2" fill="#ddf" stroke="none" stroke-width="2" x="66" y="612" width="25" height="25" /><text font-size="16px" fill="black" x="71" y="627">2</text><rect class="x" id="x_2_6_2" fill="#ddd" stroke="none" stroke-width="2" x="66" y="640" width="25" height="25" /><text font-size="16px" fill="black" x="71" y="655">0</text><rect class="x" id="x_3_0_2" fill="#ddd" stroke="none" stroke-width="2" x="94" y="472" width="25" height="25" /><text font-size="16px" fill="black" x="99" y="487">0</text><rect class="x" id="x_3_1_2" fill="#ddf" stroke="none" stroke-width="2" x="94" y="500" width="25" height="25" /><text font-size="16px" fill="black" x="99" y="515">0</text><rect class="x" id="x_3_2_2" fill="#ddf" stroke="none" stroke-width="2" x="94" y="528" width="25" height="25" /><text font-size="16px" fill="black" x="99" y="543">0</text><rect class="x" id="x_3_3_2" fill="#ddf" stroke="none" stroke-width="2" x="94" y="556" width="25" height="25" /><text font-size="16px" fill="black" x="99" y="571">1</text><rect class="x" id="x_3_4_2" fill="#ddf" stroke="none" stroke-width="2" x="94" y="584" width="25" height="25" /><text font-size="16px" fill="black" x="99" y="599">2</text><rect class="x" id="x_3_5_2" fill="#ddf" stroke="none" stroke-width="2" x="94" y="612" width="25" height="25" /><text font-size="16px" fill="black" x="99" y="627">1</text><rect class="x" id="x_3_6_2" fill="#ddd" stroke="none" stroke-width="2" x="94" y="640" width="25" height="25" /><text font-size="16px" fill="black" x="99" y="655">0</text><rect class="x" id="x_4_0_2" fill="#ddd" stroke="none" stroke-width="2" x="122" y="472" width="25" height="25" /><text font-size="16px" fill="black" x="127" y="487">0</text><rect class="x" id="x_4_1_2" fill="#ddf" stroke="none" stroke-width="2" x="122" y="500" width="25" height="25" /><text font-size="16px" fill="black" x="127" y="515">1</text><rect class="x" id="x_4_2_2" fill="#ddf" stroke="#00a" stroke-width="2" x="122" y="528" width="25" height="25" /><text font-size="16px" fill="black" x="127" y="543">2</text><rect class="x" id="x_4_3_2" fill="#ddf" stroke="#00a" stroke-width="2" x="122" y="556" width="25" height="25" /><text font-size="16px" fill="black" x="127" y="571">1</text><rect class="x" id="x_4_4_2" fill="#ddf" stroke="#00a" stroke-width="2" x="122" y="584" width="25" height="25" /><text font-size="16px" fill="black" x="127" y="599">1</text><rect class="x" id="x_4_5_2" fill="#ddf" stroke="none" stroke-width="2" x="122" y="612" width="25" height="25" /><text font-size="16px" fill="black" x="127" y="627">1</text><rect class="x" id="x_4_6_2" fill="#ddd" stroke="none" stroke-width="2" x="122" y="640" width="25" height="25" /><text font-size="16px" fill="black" x="127" y="655">0</text><rect class="x" id="x_5_0_2" fill="#ddd" stroke="none" stroke-width="2" x="150" y="472" width="25" height="25" /><text font-size="16px" fill="black" x="155" y="487">0</text><rect class="x" id="x_5_1_2" fill="#ddf" stroke="none" stroke-width="2" x="150" y="500" width="25" height="25" /><text font-size="16px" fill="black" x="155" y="515">1</text><rect class="x" id="x_5_2_2" fill="#ddf" stroke="#00a" stroke-width="2" x="150" y="528" width="25" height="25" /><text font-size="16px" fill="black" x="155" y="543">0</text><rect class="x" id="x_5_3_2" fill="#ddf" stroke="#00a" stroke-width="2" x="150" y="556" width="25" height="25" /><text font-size="16px" fill="black" x="155" y="571">1</text><rect class="x" id="x_5_4_2" fill="#ddf" stroke="#00a" stroke-width="2" x="150" y="584" width="25" height="25" /><text font-size="16px" fill="black" x="155" y="599">2</text><rect class="x" id="x_5_5_2" fill="#ddf" stroke="none" stroke-width="2" x="150" y="612" width="25" height="25" /><text font-size="16px" fill="black" x="155" y="627">1</text><rect class="x" id="x_5_6_2" fill="#ddd" stroke="none" stroke-width="2" x="150" y="640" width="25" height="25" /><text font-size="16px" fill="black" x="155" y="655">0</text><rect class="x" id="x_6_0_2" fill="#ddd" stroke="none" stroke-width="2" x="178" y="472" width="25" height="25" /><text font-size="16px" fill="black" x="183" y="487">0</text><rect class="x" id="x_6_1_2" fill="#ddd" stroke="none" stroke-width="2" x="178" y="500" width="25" height="25" /><text font-size="16px" fill="black" x="183" y="515">0</text><rect class="x" id="x_6_2_2" fill="#ddd" stroke="#00a" stroke-width="2" x="178" y="528" width="25" height="25" /><text font-size="16px" fill="black" x="183" y="543">0</text><rect class="x" id="x_6_3_2" fill="#ddd" stroke="#00a" stroke-width="2" x="178" y="556" width="25" height="25" /><text font-size="16px" fill="black" x="183" y="571">0</text><rect class="x" id="x_6_4_2" fill="#ddd" stroke="#00a" stroke-width="2" x="178" y="584" width="25" height="25" /><text font-size="16px" fill="black" x="183" y="599">0</text><rect class="x" id="x_6_5_2" fill="#ddd" stroke="none" stroke-width="2" x="178" y="612" width="25" height="25" /><text font-size="16px" fill="black" x="183" y="627">0</text><rect class="x" id="x_6_6_2" fill="#ddd" stroke="none" stroke-width="2" x="178" y="640" width="25" height="25" /><text font-size="16px" fill="black" x="183" y="655">0</text><text font-size="16px" fill="black" x="270" y="15">Filter W0 (3x3x3)</text><text font-size="16px" style="font-family: courier;" fill="black" x="270" y="35">w0[:,:,0]</text><rect class="w0" id="w0_0_0_0" fill="#fdd" stroke="#a00" stroke-width="2" x="270" y="40" width="25" height="25" /><text font-size="16px" fill="black" x="275" y="55">0</text><rect class="w0" id="w0_0_1_0" fill="#fdd" stroke="#a00" stroke-width="2" x="270" y="68" width="25" height="25" /><text font-size="16px" fill="black" x="275" y="83">-1</text><rect class="w0" id="w0_0_2_0" fill="#fdd" stroke="#a00" stroke-width="2" x="270" y="96" width="25" height="25" /><text font-size="16px" fill="black" x="275" y="111">1</text><rect class="w0" id="w0_1_0_0" fill="#fdd" stroke="#a00" stroke-width="2" x="298" y="40" width="25" height="25" /><text font-size="16px" fill="black" x="303" y="55">-1</text><rect class="w0" id="w0_1_1_0" fill="#fdd" stroke="#a00" stroke-width="2" x="298" y="68" width="25" height="25" /><text font-size="16px" fill="black" x="303" y="83">-1</text><rect class="w0" id="w0_1_2_0" fill="#fdd" stroke="#a00" stroke-width="2" x="298" y="96" width="25" height="25" /><text font-size="16px" fill="black" x="303" y="111">1</text><rect class="w0" id="w0_2_0_0" fill="#fdd" stroke="#a00" stroke-width="2" x="326" y="40" width="25" height="25" /><text font-size="16px" fill="black" x="331" y="55">-1</text><rect class="w0" id="w0_2_1_0" fill="#fdd" stroke="#a00" stroke-width="2" x="326" y="68" width="25" height="25" /><text font-size="16px" fill="black" x="331" y="83">0</text><rect class="w0" id="w0_2_2_0" fill="#fdd" stroke="#a00" stroke-width="2" x="326" y="96" width="25" height="25" /><text font-size="16px" fill="black" x="331" y="111">-1</text><text font-size="16px" style="font-family: courier;" fill="black" x="270" y="139">w0[:,:,1]</text><rect class="w0" id="w0_0_0_1" fill="#fdd" stroke="#a00" stroke-width="2" x="270" y="144" width="25" height="25" /><text font-size="16px" fill="black" x="275" y="159">-1</text><rect class="w0" id="w0_0_1_1" fill="#fdd" stroke="#a00" stroke-width="2" x="270" y="172" width="25" height="25" /><text font-size="16px" fill="black" x="275" y="187">0</text><rect class="w0" id="w0_0_2_1" fill="#fdd" stroke="#a00" stroke-width="2" x="270" y="200" width="25" height="25" /><text font-size="16px" fill="black" x="275" y="215">0</text><rect class="w0" id="w0_1_0_1" fill="#fdd" stroke="#a00" stroke-width="2" x="298" y="144" width="25" height="25" /><text font-size="16px" fill="black" x="303" y="159">1</text><rect class="w0" id="w0_1_1_1" fill="#fdd" stroke="#a00" stroke-width="2" x="298" y="172" width="25" height="25" /><text font-size="16px" fill="black" x="303" y="187">0</text><rect class="w0" id="w0_1_2_1" fill="#fdd" stroke="#a00" stroke-width="2" x="298" y="200" width="25" height="25" /><text font-size="16px" fill="black" x="303" y="215">1</text><rect class="w0" id="w0_2_0_1" fill="#fdd" stroke="#a00" stroke-width="2" x="326" y="144" width="25" height="25" /><text font-size="16px" fill="black" x="331" y="159">-1</text><rect class="w0" id="w0_2_1_1" fill="#fdd" stroke="#a00" stroke-width="2" x="326" y="172" width="25" height="25" /><text font-size="16px" fill="black" x="331" y="187">0</text><rect class="w0" id="w0_2_2_1" fill="#fdd" stroke="#a00" stroke-width="2" x="326" y="200" width="25" height="25" /><text font-size="16px" fill="black" x="331" y="215">1</text><text font-size="16px" style="font-family: courier;" fill="black" x="270" y="243">w0[:,:,2]</text><rect class="w0" id="w0_0_0_2" fill="#fdd" stroke="#a00" stroke-width="2" x="270" y="248" width="25" height="25" /><text font-size="16px" fill="black" x="275" y="263">0</text><rect class="w0" id="w0_0_1_2" fill="#fdd" stroke="#a00" stroke-width="2" x="270" y="276" width="25" height="25" /><text font-size="16px" fill="black" x="275" y="291">-1</text><rect class="w0" id="w0_0_2_2" fill="#fdd" stroke="#a00" stroke-width="2" x="270" y="304" width="25" height="25" /><text font-size="16px" fill="black" x="275" y="319">-1</text><rect class="w0" id="w0_1_0_2" fill="#fdd" stroke="#a00" stroke-width="2" x="298" y="248" width="25" height="25" /><text font-size="16px" fill="black" x="303" y="263">1</text><rect class="w0" id="w0_1_1_2" fill="#fdd" stroke="#a00" stroke-width="2" x="298" y="276" width="25" height="25" /><text font-size="16px" fill="black" x="303" y="291">0</text><rect class="w0" id="w0_1_2_2" fill="#fdd" stroke="#a00" stroke-width="2" x="298" y="304" width="25" height="25" /><text font-size="16px" fill="black" x="303" y="319">0</text><rect class="w0" id="w0_2_0_2" fill="#fdd" stroke="#a00" stroke-width="2" x="326" y="248" width="25" height="25" /><text font-size="16px" fill="black" x="331" y="263">-1</text><rect class="w0" id="w0_2_1_2" fill="#fdd" stroke="#a00" stroke-width="2" x="326" y="276" width="25" height="25" /><text font-size="16px" fill="black" x="331" y="291">0</text><rect class="w0" id="w0_2_2_2" fill="#fdd" stroke="#a00" stroke-width="2" x="326" y="304" width="25" height="25" /><text font-size="16px" fill="black" x="331" y="319">0</text><text font-size="16px" fill="black" x="270" y="365">Bias b0 (1x1x1)</text><text font-size="16px" style="font-family: courier;" fill="black" x="270" y="385">b0[:,:,0]</text><rect class="b0" id="b0_0_0_0" fill="#fdd" stroke="#a00" stroke-width="2" x="270" y="390" width="25" height="25" /><text font-size="16px" fill="black" x="275" y="405">1</text><text font-size="16px" fill="black" x="440" y="15">Filter W1 (3x3x3)</text><text font-size="16px" style="font-family: courier;" fill="black" x="440" y="35">w1[:,:,0]</text><rect class="w1" id="w1_0_0_0" fill="#fdd" stroke="none" stroke-width="2" x="440" y="40" width="25" height="25" /><text font-size="16px" fill="black" x="445" y="55">-1</text><rect class="w1" id="w1_0_1_0" fill="#fdd" stroke="none" stroke-width="2" x="440" y="68" width="25" height="25" /><text font-size="16px" fill="black" x="445" y="83">-1</text><rect class="w1" id="w1_0_2_0" fill="#fdd" stroke="none" stroke-width="2" x="440" y="96" width="25" height="25" /><text font-size="16px" fill="black" x="445" y="111">0</text><rect class="w1" id="w1_1_0_0" fill="#fdd" stroke="none" stroke-width="2" x="468" y="40" width="25" height="25" /><text font-size="16px" fill="black" x="473" y="55">0</text><rect class="w1" id="w1_1_1_0" fill="#fdd" stroke="none" stroke-width="2" x="468" y="68" width="25" height="25" /><text font-size="16px" fill="black" x="473" y="83">0</text><rect class="w1" id="w1_1_2_0" fill="#fdd" stroke="none" stroke-width="2" x="468" y="96" width="25" height="25" /><text font-size="16px" fill="black" x="473" y="111">-1</text><rect class="w1" id="w1_2_0_0" fill="#fdd" stroke="none" stroke-width="2" x="496" y="40" width="25" height="25" /><text font-size="16px" fill="black" x="501" y="55">1</text><rect class="w1" id="w1_2_1_0" fill="#fdd" stroke="none" stroke-width="2" x="496" y="68" width="25" height="25" /><text font-size="16px" fill="black" x="501" y="83">1</text><rect class="w1" id="w1_2_2_0" fill="#fdd" stroke="none" stroke-width="2" x="496" y="96" width="25" height="25" /><text font-size="16px" fill="black" x="501" y="111">1</text><text font-size="16px" style="font-family: courier;" fill="black" x="440" y="139">w1[:,:,1]</text><rect class="w1" id="w1_0_0_1" fill="#fdd" stroke="none" stroke-width="2" x="440" y="144" width="25" height="25" /><text font-size="16px" fill="black" x="445" y="159">0</text><rect class="w1" id="w1_0_1_1" fill="#fdd" stroke="none" stroke-width="2" x="440" y="172" width="25" height="25" /><text font-size="16px" fill="black" x="445" y="187">1</text><rect class="w1" id="w1_0_2_1" fill="#fdd" stroke="none" stroke-width="2" x="440" y="200" width="25" height="25" /><text font-size="16px" fill="black" x="445" y="215">1</text><rect class="w1" id="w1_1_0_1" fill="#fdd" stroke="none" stroke-width="2" x="468" y="144" width="25" height="25" /><text font-size="16px" fill="black" x="473" y="159">1</text><rect class="w1" id="w1_1_1_1" fill="#fdd" stroke="none" stroke-width="2" x="468" y="172" width="25" height="25" /><text font-size="16px" fill="black" x="473" y="187">-1</text><rect class="w1" id="w1_1_2_1" fill="#fdd" stroke="none" stroke-width="2" x="468" y="200" width="25" height="25" /><text font-size="16px" fill="black" x="473" y="215">0</text><rect class="w1" id="w1_2_0_1" fill="#fdd" stroke="none" stroke-width="2" x="496" y="144" width="25" height="25" /><text font-size="16px" fill="black" x="501" y="159">1</text><rect class="w1" id="w1_2_1_1" fill="#fdd" stroke="none" stroke-width="2" x="496" y="172" width="25" height="25" /><text font-size="16px" fill="black" x="501" y="187">0</text><rect class="w1" id="w1_2_2_1" fill="#fdd" stroke="none" stroke-width="2" x="496" y="200" width="25" height="25" /><text font-size="16px" fill="black" x="501" y="215">-1</text><text font-size="16px" style="font-family: courier;" fill="black" x="440" y="243">w1[:,:,2]</text><rect class="w1" id="w1_0_0_2" fill="#fdd" stroke="none" stroke-width="2" x="440" y="248" width="25" height="25" /><text font-size="16px" fill="black" x="445" y="263">-1</text><rect class="w1" id="w1_0_1_2" fill="#fdd" stroke="none" stroke-width="2" x="440" y="276" width="25" height="25" /><text font-size="16px" fill="black" x="445" y="291">-1</text><rect class="w1" id="w1_0_2_2" fill="#fdd" stroke="none" stroke-width="2" x="440" y="304" width="25" height="25" /><text font-size="16px" fill="black" x="445" y="319">1</text><rect class="w1" id="w1_1_0_2" fill="#fdd" stroke="none" stroke-width="2" x="468" y="248" width="25" height="25" /><text font-size="16px" fill="black" x="473" y="263">1</text><rect class="w1" id="w1_1_1_2" fill="#fdd" stroke="none" stroke-width="2" x="468" y="276" width="25" height="25" /><text font-size="16px" fill="black" x="473" y="291">-1</text><rect class="w1" id="w1_1_2_2" fill="#fdd" stroke="none" stroke-width="2" x="468" y="304" width="25" height="25" /><text font-size="16px" fill="black" x="473" y="319">-1</text><rect class="w1" id="w1_2_0_2" fill="#fdd" stroke="none" stroke-width="2" x="496" y="248" width="25" height="25" /><text font-size="16px" fill="black" x="501" y="263">-1</text><rect class="w1" id="w1_2_1_2" fill="#fdd" stroke="none" stroke-width="2" x="496" y="276" width="25" height="25" /><text font-size="16px" fill="black" x="501" y="291">-1</text><rect class="w1" id="w1_2_2_2" fill="#fdd" stroke="none" stroke-width="2" x="496" y="304" width="25" height="25" /><text font-size="16px" fill="black" x="501" y="319">-1</text><text font-size="16px" fill="black" x="440" y="365">Bias b1 (1x1x1)</text><text font-size="16px" style="font-family: courier;" fill="black" x="440" y="385">b1[:,:,0]</text><rect class="b1" id="b1_0_0_0" fill="#fdd" stroke="none" stroke-width="2" x="440" y="390" width="25" height="25" /><text font-size="16px" fill="black" x="445" y="405">0</text><text font-size="16px" fill="black" x="600" y="15">Output Volume (3x3x2)</text><text font-size="16px" style="font-family: courier;" fill="black" x="600" y="35">o[:,:,0]</text><rect class="o" id="o_0_0_0" fill="#dfd" stroke="none" stroke-width="2" x="600" y="40" width="25" height="25" /><text font-size="16px" fill="black" x="605" y="55">1</text><rect class="o" id="o_0_1_0" fill="#dfd" stroke="none" stroke-width="2" x="600" y="68" width="25" height="25" /><text font-size="16px" fill="black" x="605" y="83">4</text><rect class="o" id="o_0_2_0" fill="#dfd" stroke="none" stroke-width="2" x="600" y="96" width="25" height="25" /><text font-size="16px" fill="black" x="605" y="111">1</text><rect class="o" id="o_1_0_0" fill="#dfd" stroke="none" stroke-width="2" x="628" y="40" width="25" height="25" /><text font-size="16px" fill="black" x="633" y="55">0</text><rect class="o" id="o_1_1_0" fill="#dfd" stroke="none" stroke-width="2" x="628" y="68" width="25" height="25" /><text font-size="16px" fill="black" x="633" y="83">-8</text><rect class="o" id="o_1_2_0" fill="#dfd" stroke="none" stroke-width="2" x="628" y="96" width="25" height="25" /><text font-size="16px" fill="black" x="633" y="111">-8</text><rect class="o" id="o_2_0_0" fill="#dfd" stroke="none" stroke-width="2" x="656" y="40" width="25" height="25" /><text font-size="16px" fill="black" x="661" y="55">2</text><rect class="o" id="o_2_1_0" fill="#dfd" stroke="#0a0" stroke-width="2" x="656" y="68" width="25" height="25" /><text font-size="16px" fill="black" x="661" y="83">0</text><rect class="o" id="o_2_2_0" fill="#dfd" stroke="none" stroke-width="2" x="656" y="96" width="25" height="25" /><text font-size="16px" fill="black" x="661" y="111">-1</text><text font-size="16px" style="font-family: courier;" fill="black" x="600" y="139">o[:,:,1]</text><rect class="o" id="o_0_0_1" fill="#dfd" stroke="none" stroke-width="2" x="600" y="144" width="25" height="25" /><text font-size="16px" fill="black" x="605" y="159">-2</text><rect class="o" id="o_0_1_1" fill="#dfd" stroke="none" stroke-width="2" x="600" y="172" width="25" height="25" /><text font-size="16px" fill="black" x="605" y="187">-4</text><rect class="o" id="o_0_2_1" fill="#dfd" stroke="none" stroke-width="2" x="600" y="200" width="25" height="25" /><text font-size="16px" fill="black" x="605" y="215">3</text><rect class="o" id="o_1_0_1" fill="#dfd" stroke="none" stroke-width="2" x="628" y="144" width="25" height="25" /><text font-size="16px" fill="black" x="633" y="159">-7</text><rect class="o" id="o_1_1_1" fill="#dfd" stroke="none" stroke-width="2" x="628" y="172" width="25" height="25" /><text font-size="16px" fill="black" x="633" y="187">-6</text><rect class="o" id="o_1_2_1" fill="#dfd" stroke="none" stroke-width="2" x="628" y="200" width="25" height="25" /><text font-size="16px" fill="black" x="633" y="215">-1</text><rect class="o" id="o_2_0_1" fill="#dfd" stroke="none" stroke-width="2" x="656" y="144" width="25" height="25" /><text font-size="16px" fill="black" x="661" y="159">0</text><rect class="o" id="o_2_1_1" fill="#dfd" stroke="none" stroke-width="2" x="656" y="172" width="25" height="25" /><text font-size="16px" fill="black" x="661" y="187">-5</text><rect class="o" id="o_2_2_1" fill="#dfd" stroke="none" stroke-width="2" x="656" y="200" width="25" height="25" /><text font-size="16px" fill="black" x="661" y="215">-2</text><text font-size="16px" fill="black" x="520" y="470">toggle movement</text><rect style="cursor:pointer;" fill="rgba(200, 200, 200, 0.1)" stroke="black" stroke-width="2" x="500" y="450" width="150" height="30" /><line class="ll" stroke="black" stroke-width="1" x1="122" y1="96" x2="270" y2="40" /><line class="ll" stroke="black" stroke-width="1" x1="122" y1="177" x2="270" y2="121" /><line class="ll" stroke="black" stroke-width="1" x1="203" y1="96" x2="351" y2="40" /><line class="ll" stroke="black" stroke-width="1" x1="203" y1="177" x2="351" y2="121" /><line class="ll" stroke="black" stroke-width="1" x1="122" y1="312" x2="270" y2="144" /><line class="ll" stroke="black" stroke-width="1" x1="122" y1="393" x2="270" y2="225" /><line class="ll" stroke="black" stroke-width="1" x1="203" y1="312" x2="351" y2="144" /><line class="ll" stroke="black" stroke-width="1" x1="203" y1="393" x2="351" y2="225" /><line class="ll" stroke="black" stroke-width="1" x1="122" y1="528" x2="270" y2="248" /><line class="ll" stroke="black" stroke-width="1" x1="122" y1="609" x2="270" y2="329" /><line class="ll" stroke="black" stroke-width="1" x1="203" y1="528" x2="351" y2="248" /><line class="ll" stroke="black" stroke-width="1" x1="203" y1="609" x2="351" y2="329" /></g></svg>