<?xml version="1.0" encoding="UTF-8"?>
<!DOCTYPE svg PUBLIC "-//W3C//DTD SVG 1.1//EN" "http://www.w3.org/Graphics/SVG/1.1/DTD/svg11.dtd">
<svg xmlns="http://www.w3.org/2000/svg" style="background-color: rgb(255, 255, 255);" viewBox="-0.5 -0.5 481 721" width="481px" height="721px" version="1.1" xmlns:xlink="http://www.w3.org/1999/xlink"><defs /><g><rect fill="#fff2cc" pointer-events="all" stroke="#d6b656" x="0" y="640" width="80" height="80" /><rect fill="#fff2cc" pointer-events="all" stroke="#d6b656" x="100" y="640" width="80" height="80" /><rect fill="#fff2cc" pointer-events="all" stroke="#d6b656" x="200" y="640" width="80" height="80" /><rect fill="#fff2cc" pointer-events="all" stroke="#d6b656" x="300" y="640" width="80" height="80" /><rect fill="#fff2cc" pointer-events="all" stroke="#d6b656" x="400" y="640" width="80" height="80" /><ellipse fill="#dae8fc" fill-opacity="0.3" pointer-events="all" stroke="#6c8ebf" stroke-opacity="0.3" cx="40" cy="520" rx="40" ry="40" /><ellipse fill="#dae8fc" pointer-events="all" stroke="#6c8ebf" cx="140" cy="520" rx="40" ry="40" /><ellipse fill="#dae8fc" pointer-events="all" stroke="#6c8ebf" cx="240" cy="520" rx="40" ry="40" /><ellipse fill="#dae8fc" pointer-events="all" stroke="#6c8ebf" cx="340" cy="520" rx="40" ry="40" /><ellipse fill="#dae8fc" fill-opacity="0.3" pointer-events="all" stroke="#6c8ebf" stroke-opacity="0.3" cx="440" cy="520" rx="40" ry="40" /><rect fill="#fff2cc" pointer-events="all" stroke="#d6b656" x="100" y="320" width="80" height="80" /><rect fill="#fff2cc" pointer-events="all" stroke="#d6b656" x="200" y="320" width="80" height="80" /><rect fill="#fff2cc" pointer-events="all" stroke="#d6b656" x="300" y="320" width="80" height="80" /><ellipse fill="#dae8fc" pointer-events="all" stroke="#6c8ebf" cx="240" cy="200" rx="40" ry="40" /><path fill="none" pointer-events="stroke" stroke="#000000" stroke-miterlimit="10" d="M 40 640 L 110.32 555.62" /><path fill="#000000" pointer-events="all" stroke="#000000" stroke-miterlimit="10" d="M 113.68 551.59 L 111.88 559.21 L 110.32 555.62 L 106.51 554.72 Z" /><path fill="none" pointer-events="stroke" stroke="#000000" stroke-miterlimit="10" d="M 140 640 L 140 567.37" /><path fill="#000000" pointer-events="all" stroke="#000000" stroke-miterlimit="10" d="M 140 562.12 L 143.5 569.12 L 140 567.37 L 136.5 569.12 Z" /><path fill="none" pointer-events="stroke" stroke="#000000" stroke-miterlimit="10" d="M 240 640 L 172.21 553.3" /><path fill="#000000" pointer-events="all" stroke="#000000" stroke-miterlimit="10" d="M 168.97 549.16 L 176.04 552.52 L 172.21 553.3 L 170.53 556.84 Z" /><path fill="none" pointer-events="stroke" stroke="#000000" stroke-miterlimit="10" d="M 140 640 L 207.79 553.3" /><path fill="#000000" pointer-events="all" stroke="#000000" stroke-miterlimit="10" d="M 211.03 549.16 L 209.47 556.84 L 207.79 553.3 L 203.96 552.52 Z" /><path fill="none" pointer-events="stroke" stroke="#000000" stroke-miterlimit="10" d="M 240 640 L 240 566.37" /><path fill="#000000" pointer-events="all" stroke="#000000" stroke-miterlimit="10" d="M 240 561.12 L 243.5 568.12 L 240 566.37 L 236.5 568.12 Z" /><path fill="none" pointer-events="stroke" stroke="#000000" stroke-miterlimit="10" d="M 340 640 L 272.21 553.3" /><path fill="#000000" pointer-events="all" stroke="#000000" stroke-miterlimit="10" d="M 268.97 549.16 L 276.04 552.52 L 272.21 553.3 L 270.53 556.84 Z" /><path fill="none" pointer-events="stroke" stroke="#000000" stroke-miterlimit="10" d="M 240 640 L 307.79 553.3" /><path fill="#000000" pointer-events="all" stroke="#000000" stroke-miterlimit="10" d="M 311.03 549.16 L 309.47 556.84 L 307.79 553.3 L 303.96 552.52 Z" /><path fill="none" pointer-events="stroke" stroke="#000000" stroke-miterlimit="10" d="M 340 640 L 340 566.37" /><path fill="#000000" pointer-events="all" stroke="#000000" stroke-miterlimit="10" d="M 340 561.12 L 343.5 568.12 L 340 566.37 L 336.5 568.12 Z" /><path fill="none" pointer-events="stroke" stroke="#000000" stroke-miterlimit="10" d="M 440 640 L 372.21 553.3" /><path fill="#000000" pointer-events="all" stroke="#000000" stroke-miterlimit="10" d="M 368.97 549.16 L 376.04 552.52 L 372.21 553.3 L 370.53 556.84 Z" /><path fill="none" pointer-events="stroke" stroke="#000000" stroke-miterlimit="10" d="M 340 640 L 407.79 553.3" /><path fill="#000000" pointer-events="all" stroke="#000000" stroke-miterlimit="10" d="M 411.03 549.16 L 409.47 556.84 L 407.79 553.3 L 403.96 552.52 Z" /><path fill="none" pointer-events="stroke" stroke="#000000" stroke-miterlimit="10" d="M 440 640 L 440 566.37" /><path fill="#000000" pointer-events="all" stroke="#000000" stroke-miterlimit="10" d="M 440 561.12 L 443.5 568.12 L 440 566.37 L 436.5 568.12 Z" /><path fill="none" pointer-events="stroke" stroke="#000000" stroke-miterlimit="10" d="M 140 640 L 72.21 553.3" /><path fill="#000000" pointer-events="all" stroke="#000000" stroke-miterlimit="10" d="M 68.97 549.16 L 76.04 552.52 L 72.21 553.3 L 70.53 556.84 Z" /><path fill="none" pointer-events="stroke" stroke="#000000" stroke-miterlimit="10" d="M 40 640 L 40 566.37" /><path fill="#000000" pointer-events="all" stroke="#000000" stroke-miterlimit="10" d="M 40 561.12 L 43.5 568.12 L 40 566.37 L 36.5 568.12 Z" /><path fill="none" pointer-events="stroke" stroke="#000000" stroke-miterlimit="10" d="M 140 480 L 140 406.37" /><path fill="#000000" pointer-events="all" stroke="#000000" stroke-miterlimit="10" d="M 140 401.12 L 143.5 408.12 L 140 406.37 L 136.5 408.12 Z" /><path fill="none" pointer-events="stroke" stroke="#000000" stroke-miterlimit="10" d="M 240 480 L 240 406.37" /><path fill="#000000" pointer-events="all" stroke="#000000" stroke-miterlimit="10" d="M 240 401.12 L 243.5 408.12 L 240 406.37 L 236.5 408.12 Z" /><path fill="none" pointer-events="stroke" stroke="#000000" stroke-miterlimit="10" d="M 340 480 L 340 406.37" /><path fill="#000000" pointer-events="all" stroke="#000000" stroke-miterlimit="10" d="M 340 401.12 L 343.5 408.12 L 340 406.37 L 336.5 408.12 Z" /><path fill="none" pointer-events="stroke" stroke="#000000" stroke-miterlimit="10" d="M 140 320 L 207.79 233.3" /><path fill="#000000" pointer-events="all" stroke="#000000" stroke-miterlimit="10" d="M 211.03 229.16 L 209.47 236.84 L 207.79 233.3 L 203.96 232.52 Z" /><path fill="none" pointer-events="stroke" stroke="#000000" stroke-miterlimit="10" d="M 240 320 L 240 246.37" /><path fill="#000000" pointer-events="all" stroke="#000000" stroke-miterlimit="10" d="M 240 241.12 L 243.5 248.12 L 240 246.37 L 236.5 248.12 Z" /><path fill="none" pointer-events="stroke" stroke="#000000" stroke-miterlimit="10" d="M 340 320 L 272.21 233.3" /><path fill="#000000" pointer-events="all" stroke="#000000" stroke-miterlimit="10" d="M 268.97 229.16 L 276.04 232.52 L 272.21 233.3 L 270.53 236.84 Z" /><rect fill="#fff2cc" pointer-events="all" stroke="#d6b656" x="200" y="0" width="80" height="80" /><path fill="none" pointer-events="stroke" stroke="#000000" stroke-miterlimit="10" d="M 240 160 L 240 86.37" /><path fill="#000000" pointer-events="all" stroke="#000000" stroke-miterlimit="10" d="M 240 81.12 L 243.5 88.12 L 240 86.37 L 236.5 88.12 Z" /><ellipse fill="#dae8fc" fill-opacity="0.3" pointer-events="all" stroke="#6c8ebf" stroke-opacity="0.3" cx="140" cy="200" rx="40" ry="40" /><ellipse fill="#dae8fc" fill-opacity="0.3" pointer-events="all" stroke="#6c8ebf" stroke-opacity="0.3" cx="340" cy="200" rx="40" ry="40" /><path fill="none" pointer-events="stroke" stroke="#000000" stroke-miterlimit="10" d="M 139.5 320 L 139.5 246.37" /><path fill="#000000" pointer-events="all" stroke="#000000" stroke-miterlimit="10" d="M 139.5 241.12 L 143 248.12 L 139.5 246.37 L 136 248.12 Z" /><path fill="none" pointer-events="stroke" stroke="#000000" stroke-miterlimit="10" d="M 339.5 320 L 339.5 246.37" /><path fill="#000000" pointer-events="all" stroke="#000000" stroke-miterlimit="10" d="M 339.5 241.12 L 343 248.12 L 339.5 246.37 L 336 248.12 Z" /><path fill="none" pointer-events="stroke" stroke="#000000" stroke-miterlimit="10" d="M 240 320 L 172.21 233.3" /><path fill="#000000" pointer-events="all" stroke="#000000" stroke-miterlimit="10" d="M 168.97 229.16 L 176.04 232.52 L 172.21 233.3 L 170.53 236.84 Z" /><path fill="none" pointer-events="stroke" stroke="#000000" stroke-miterlimit="10" d="M 240 320 L 310.32 235.62" /><path fill="#000000" pointer-events="all" stroke="#000000" stroke-miterlimit="10" d="M 313.68 231.59 L 311.88 239.21 L 310.32 235.62 L 306.51 234.72 Z" /></g></svg>