<?xml version="1.0" encoding="utf-8"?>
<!-- Generator: Adobe Illustrator 17.0.0, SVG Export Plug-In . SVG Version: 6.00 Build 0)  -->
<!DOCTYPE svg PUBLIC "-//W3C//DTD SVG 1.1//EN" "http://www.w3.org/Graphics/SVG/1.1/DTD/svg11.dtd">
<svg version="1.1" id="Capa_1" xmlns="http://www.w3.org/2000/svg" xmlns:xlink="http://www.w3.org/1999/xlink" x="0px" y="0px"
	 width="670px" height="254px" viewBox="0 0 670 254" enable-background="new 0 0 670 254" xml:space="preserve">
<ellipse fill="#E5CE45" stroke="#000000" stroke-width="2" stroke-miterlimit="10" cx="413.5" cy="130" rx="75.5" ry="45"/>
<g>
	<g>
		
			<line fill="none" stroke="#000000" stroke-width="2" stroke-miterlimit="10" x1="181.026" y1="38.307" x2="340.699" y2="101.063"/>
		<g>
			<circle cx="181.201" cy="38.375" r="3.76"/>
		</g>
		<g>
			<polygon points="335.927,107.223 350.717,105.001 341.398,93.302 			"/>
		</g>
	</g>
</g>
<g>
	<g>
		
			<line fill="none" stroke="#000000" stroke-width="2" stroke-miterlimit="10" x1="181.239" y1="100.245" x2="327.339" y2="120.52"/>
		<g>
			<circle cx="181.426" cy="100.27" r="3.76"/>
		</g>
		<g>
			<polygon points="324.143,127.628 338,122.001 326.199,112.812 			"/>
		</g>
	</g>
</g>
<g>
	<g>
		
			<line fill="none" stroke="#000000" stroke-width="2" stroke-miterlimit="10" x1="182.026" y1="223.954" x2="341.699" y2="161.198"/>
		<g>
			<circle cx="182.201" cy="223.886" r="3.76"/>
		</g>
		<g>
			<polygon points="342.399,168.96 351.717,157.262 336.927,155.038 			"/>
		</g>
	</g>
</g>
<g>
	<g>
		
			<line fill="none" stroke="#000000" stroke-width="2" stroke-miterlimit="10" x1="182.239" y1="162.016" x2="328.339" y2="141.74"/>
		<g>
			<circle cx="182.426" cy="161.99" r="3.76"/>
		</g>
		<g>
			<polygon points="327.199,149.45 339,140.262 325.143,134.634 			"/>
		</g>
	</g>
</g>
<g>
	<g>
		<line fill="none" stroke="#000000" stroke-width="2" stroke-miterlimit="10" x1="489" y1="130" x2="560.57" y2="130"/>
		<g>
			<polygon points="558.381,137.479 571.333,130.001 558.381,122.521 			"/>
		</g>
	</g>
</g>
<g>
	<path d="M424.945,120.008l-1.047,0.019c-0.863-3.72-2.628-5.58-5.294-5.58l-14.834-0.057l9.293,14.282l-10.417,12.854l15.558-0.019
		c1.777,0,3.107-0.391,3.989-1.172c0.883-0.78,1.73-2.313,2.543-4.599h1.143l-1.752,9.122H397.39l12.13-14.739L398,112.372
		l26.432-0.038L424.945,120.008z"/>
</g>
<g>
	<path d="M54.464,39.863c0,0.384,0.021,0.69,0.063,0.918s0.107,0.409,0.195,0.542s0.207,0.238,0.356,0.312s0.384,0.148,0.703,0.22
		v0.479h-4.287v-0.479c0.404-0.104,0.674-0.22,0.811-0.347s0.226-0.308,0.269-0.542s0.063-0.592,0.063-1.074v-8.447
		c0-0.449-0.016-0.776-0.049-0.981s-0.086-0.365-0.161-0.479s-0.174-0.205-0.298-0.273s-0.335-0.145-0.635-0.229v-0.479h4.844
		c1.523,0,2.658,0.292,3.403,0.874s1.118,1.47,1.118,2.661c0,0.677-0.117,1.286-0.352,1.826s-0.566,0.983-0.996,1.328
		s-0.938,0.592-1.523,0.742s-1.201,0.225-1.846,0.225c-0.723,0-1.283-0.013-1.68-0.039V39.863z M54.464,35.81h1.133
		c0.736,0,1.343-0.096,1.821-0.288s0.845-0.511,1.099-0.957s0.381-1.037,0.381-1.772c0-0.56-0.075-1.027-0.225-1.401
		s-0.356-0.675-0.62-0.903s-0.578-0.389-0.942-0.483s-0.762-0.142-1.191-0.142c-0.645,0-1.129,0.013-1.455,0.039V35.81z"/>
	<path d="M66.216,42.49c-1.354,0-2.388-0.399-3.101-1.196s-1.069-1.978-1.069-3.54c0-1.074,0.187-1.982,0.562-2.725
		s0.887-1.294,1.538-1.655s1.393-0.542,2.227-0.542c1.393,0,2.448,0.405,3.164,1.216s1.074,1.974,1.074,3.491
		c0,1.081-0.179,1.992-0.537,2.734s-0.866,1.297-1.523,1.665S67.114,42.49,66.216,42.49z M63.892,37.548
		c0,1.341,0.213,2.372,0.64,3.091s1.037,1.079,1.831,1.079c0.436,0,0.807-0.106,1.113-0.317s0.555-0.497,0.747-0.854
		s0.331-0.773,0.415-1.245s0.127-0.965,0.127-1.479c0-0.957-0.106-1.751-0.317-2.383s-0.5-1.095-0.864-1.392
		s-0.781-0.444-1.25-0.444c-0.788,0-1.392,0.342-1.812,1.025S63.892,36.285,63.892,37.548z"/>
	<path d="M78.846,35.136h-0.938c-0.143-0.391-0.312-0.698-0.508-0.923s-0.417-0.382-0.664-0.474s-0.55-0.137-0.908-0.137
		c-0.521,0-0.936,0.122-1.245,0.366s-0.464,0.578-0.464,1.001c0,0.299,0.062,0.547,0.186,0.742s0.316,0.377,0.576,0.547
		s0.719,0.394,1.377,0.674c0.664,0.287,1.177,0.55,1.538,0.791s0.645,0.521,0.85,0.84s0.308,0.7,0.308,1.143
		c0,0.514-0.088,0.947-0.264,1.299s-0.423,0.638-0.742,0.859s-0.698,0.381-1.138,0.479s-0.919,0.146-1.44,0.146
		c-0.547,0-1.078-0.041-1.592-0.122s-1.016-0.187-1.504-0.317v-2.041h0.957c0.176,0.599,0.436,1.034,0.781,1.304
		s0.82,0.405,1.426,0.405c0.234,0,0.464-0.024,0.688-0.073s0.425-0.13,0.601-0.244s0.316-0.269,0.42-0.464s0.156-0.439,0.156-0.732
		c0-0.332-0.065-0.602-0.195-0.811s-0.332-0.399-0.605-0.571s-0.755-0.405-1.445-0.698c-0.592-0.248-1.068-0.488-1.426-0.723
		s-0.64-0.511-0.845-0.83s-0.308-0.697-0.308-1.133c0-0.534,0.145-0.998,0.435-1.392s0.708-0.695,1.255-0.903
		s1.188-0.312,1.924-0.312c0.43,0,0.845,0.021,1.245,0.063s0.903,0.125,1.509,0.249V35.136z"/>
	<path d="M80.617,41.855c0.254-0.078,0.435-0.146,0.542-0.205s0.199-0.14,0.273-0.244s0.133-0.264,0.176-0.479
		s0.063-0.55,0.063-1.006v-4.258c0-0.417-0.006-0.752-0.02-1.006s-0.059-0.458-0.137-0.61s-0.197-0.267-0.356-0.342
		s-0.386-0.138-0.679-0.19v-0.518l2.275-0.088h0.596v6.982c0,0.56,0.026,0.949,0.078,1.167s0.151,0.384,0.298,0.498
		s0.386,0.213,0.718,0.298v0.479h-3.828V41.855z M83.41,29.169v1.895h-1.797v-1.895H83.41z"/>
	<path d="M93.168,33.222v2.041h-1.24c-0.111-0.423-0.248-0.757-0.41-1.001s-0.352-0.415-0.566-0.513s-0.482-0.146-0.801-0.146
		c-0.456,0-0.859,0.146-1.211,0.439s-0.63,0.739-0.835,1.338s-0.308,1.332-0.308,2.197c0,0.553,0.039,1.06,0.117,1.519
		s0.211,0.851,0.4,1.177s0.439,0.58,0.752,0.762s0.7,0.273,1.162,0.273c0.449,0,0.868-0.088,1.255-0.264s0.79-0.485,1.206-0.928
		l0.557,0.645c-0.332,0.365-0.625,0.646-0.879,0.845s-0.526,0.365-0.815,0.498s-0.576,0.231-0.859,0.293s-0.591,0.093-0.923,0.093
		c-1.23,0-2.171-0.409-2.822-1.226s-0.977-1.997-0.977-3.54c0-0.963,0.182-1.818,0.547-2.563s0.875-1.32,1.533-1.724
		s1.416-0.605,2.275-0.605c0.534,0,1.027,0.031,1.479,0.093S92.713,33.085,93.168,33.222z"/>
	<path d="M94.432,41.855c0.254-0.078,0.435-0.146,0.542-0.205s0.199-0.14,0.273-0.244s0.133-0.264,0.176-0.479
		s0.063-0.55,0.063-1.006v-4.258c0-0.417-0.006-0.752-0.02-1.006s-0.059-0.458-0.137-0.61s-0.197-0.267-0.356-0.342
		s-0.386-0.138-0.679-0.19v-0.518l2.275-0.088h0.596v6.982c0,0.56,0.026,0.949,0.078,1.167s0.151,0.384,0.298,0.498
		s0.386,0.213,0.718,0.298v0.479h-3.828V41.855z M97.225,29.169v1.895h-1.797v-1.895H97.225z"/>
	<path d="M103.956,42.49c-1.354,0-2.388-0.399-3.101-1.196s-1.069-1.978-1.069-3.54c0-1.074,0.187-1.982,0.562-2.725
		s0.887-1.294,1.538-1.655s1.393-0.542,2.227-0.542c1.393,0,2.448,0.405,3.164,1.216s1.074,1.974,1.074,3.491
		c0,1.081-0.179,1.992-0.537,2.734s-0.866,1.297-1.523,1.665S104.854,42.49,103.956,42.49z M101.632,37.548
		c0,1.341,0.213,2.372,0.64,3.091s1.037,1.079,1.831,1.079c0.436,0,0.807-0.106,1.113-0.317s0.555-0.497,0.747-0.854
		s0.331-0.773,0.415-1.245s0.127-0.965,0.127-1.479c0-0.957-0.106-1.751-0.317-2.383s-0.5-1.095-0.864-1.392
		s-0.781-0.444-1.25-0.444c-0.788,0-1.392,0.342-1.812,1.025S101.632,36.285,101.632,37.548z M106.534,28.251v0.488l-3.096,3.145
		l-0.635-0.508l2.021-3.125H106.534z"/>
	<path d="M119.555,42.333h-3.848v-0.479c0.254-0.078,0.436-0.146,0.547-0.205s0.204-0.14,0.278-0.244s0.133-0.265,0.176-0.483
		s0.063-0.548,0.063-0.991v-2.559c0-0.456-0.013-0.869-0.039-1.24s-0.07-0.675-0.132-0.913s-0.137-0.423-0.225-0.557
		s-0.192-0.248-0.312-0.342s-0.259-0.169-0.415-0.225s-0.361-0.083-0.615-0.083s-0.495,0.05-0.723,0.151s-0.479,0.275-0.752,0.522
		s-0.472,0.492-0.596,0.732s-0.186,0.518-0.186,0.83v3.643c0,0.56,0.026,0.949,0.078,1.167s0.151,0.384,0.298,0.498
		s0.386,0.213,0.718,0.298v0.479h-3.828v-0.479c0.254-0.078,0.435-0.146,0.542-0.205s0.199-0.14,0.273-0.244
		s0.133-0.264,0.176-0.479s0.063-0.55,0.063-1.006v-4.258c0-0.417-0.006-0.752-0.02-1.006s-0.059-0.458-0.137-0.61
		s-0.197-0.267-0.356-0.342s-0.386-0.138-0.679-0.19v-0.518l2.285-0.088h0.596l-0.107,1.592l0.137,0.039
		c0.482-0.488,0.871-0.836,1.167-1.045s0.596-0.37,0.898-0.483s0.624-0.171,0.962-0.171c0.352,0,0.666,0.041,0.942,0.122
		s0.521,0.207,0.732,0.376s0.386,0.379,0.522,0.63s0.239,0.552,0.308,0.903s0.103,0.797,0.103,1.338v3.682
		c0,0.449,0.013,0.775,0.039,0.977s0.072,0.358,0.137,0.469s0.16,0.204,0.283,0.278s0.338,0.155,0.645,0.239V42.333z"/>
	<path d="M132.325,33.222v2.041h-1.24c-0.111-0.423-0.248-0.757-0.41-1.001s-0.352-0.415-0.566-0.513s-0.482-0.146-0.801-0.146
		c-0.456,0-0.859,0.146-1.211,0.439s-0.63,0.739-0.835,1.338s-0.308,1.332-0.308,2.197c0,0.553,0.039,1.06,0.117,1.519
		s0.211,0.851,0.4,1.177s0.439,0.58,0.752,0.762s0.7,0.273,1.162,0.273c0.449,0,0.868-0.088,1.255-0.264s0.79-0.485,1.206-0.928
		l0.557,0.645c-0.332,0.365-0.625,0.646-0.879,0.845s-0.526,0.365-0.815,0.498s-0.576,0.231-0.859,0.293s-0.591,0.093-0.923,0.093
		c-1.23,0-2.171-0.409-2.822-1.226s-0.977-1.997-0.977-3.54c0-0.963,0.182-1.818,0.547-2.563s0.875-1.32,1.533-1.724
		s1.416-0.605,2.275-0.605c0.534,0,1.027,0.031,1.479,0.093S131.87,33.085,132.325,33.222z"/>
	<path d="M137.836,42.49c-1.354,0-2.388-0.399-3.101-1.196s-1.069-1.978-1.069-3.54c0-1.074,0.187-1.982,0.562-2.725
		s0.887-1.294,1.538-1.655s1.393-0.542,2.227-0.542c1.393,0,2.448,0.405,3.164,1.216s1.074,1.974,1.074,3.491
		c0,1.081-0.179,1.992-0.537,2.734s-0.866,1.297-1.523,1.665S138.735,42.49,137.836,42.49z M135.512,37.548
		c0,1.341,0.213,2.372,0.64,3.091s1.037,1.079,1.831,1.079c0.436,0,0.807-0.106,1.113-0.317s0.555-0.497,0.747-0.854
		s0.331-0.773,0.415-1.245s0.127-0.965,0.127-1.479c0-0.957-0.106-1.751-0.317-2.383s-0.5-1.095-0.864-1.392
		s-0.781-0.444-1.25-0.444c-0.788,0-1.392,0.342-1.812,1.025S135.512,36.285,135.512,37.548z"/>
	<path d="M151.199,33.222v2.041h-1.24c-0.111-0.423-0.248-0.757-0.41-1.001s-0.352-0.415-0.566-0.513s-0.482-0.146-0.801-0.146
		c-0.456,0-0.859,0.146-1.211,0.439s-0.63,0.739-0.835,1.338s-0.308,1.332-0.308,2.197c0,0.553,0.039,1.06,0.117,1.519
		s0.211,0.851,0.4,1.177s0.439,0.58,0.752,0.762s0.7,0.273,1.162,0.273c0.449,0,0.868-0.088,1.255-0.264s0.79-0.485,1.206-0.928
		l0.557,0.645c-0.332,0.365-0.625,0.646-0.879,0.845s-0.526,0.365-0.815,0.498s-0.576,0.231-0.859,0.293s-0.591,0.093-0.923,0.093
		c-1.23,0-2.171-0.409-2.822-1.226s-0.977-1.997-0.977-3.54c0-0.963,0.182-1.818,0.547-2.563s0.875-1.32,1.533-1.724
		s1.416-0.605,2.275-0.605c0.534,0,1.027,0.031,1.479,0.093S150.743,33.085,151.199,33.222z"/>
	<path d="M155.079,34.531l0.039,0.01c0.508-0.514,0.91-0.874,1.206-1.079s0.589-0.36,0.879-0.464s0.601-0.156,0.933-0.156
		c0.358,0,0.677,0.042,0.957,0.127s0.526,0.213,0.737,0.386s0.384,0.384,0.518,0.635s0.233,0.55,0.298,0.898s0.098,0.79,0.098,1.323
		v3.682c0,0.566,0.024,0.952,0.073,1.157s0.137,0.365,0.264,0.479s0.382,0.223,0.767,0.327v0.479h-3.848v-0.479
		c0.254-0.078,0.436-0.146,0.547-0.205s0.204-0.14,0.278-0.244s0.133-0.265,0.176-0.483s0.063-0.548,0.063-0.991v-2.559
		c0-0.866-0.044-1.528-0.132-1.987s-0.26-0.802-0.518-1.03s-0.617-0.342-1.079-0.342c-0.26,0-0.495,0.045-0.703,0.137
		s-0.449,0.254-0.723,0.488s-0.48,0.475-0.62,0.723s-0.21,0.511-0.21,0.791v3.74c0,0.443,0.011,0.758,0.034,0.947
		s0.067,0.347,0.132,0.474s0.165,0.231,0.298,0.312s0.34,0.158,0.62,0.229v0.479h-3.867v-0.479c0.287-0.078,0.492-0.153,0.615-0.225
		s0.22-0.163,0.288-0.273s0.119-0.27,0.151-0.479s0.049-0.537,0.049-0.986v-8.174c0-0.625-0.005-1.061-0.015-1.309
		s-0.036-0.458-0.078-0.63s-0.101-0.308-0.176-0.405s-0.176-0.176-0.303-0.234s-0.356-0.117-0.688-0.176v-0.508l2.354-0.098h0.586
		V34.531z"/>
	<path d="M171.02,40.673c-0.417,0.436-0.799,0.778-1.147,1.025s-0.731,0.441-1.147,0.581s-0.875,0.21-1.377,0.21
		c-1.341,0-2.354-0.402-3.037-1.206s-1.025-1.991-1.025-3.56c0-0.97,0.174-1.826,0.522-2.568s0.845-1.315,1.489-1.719
		s1.387-0.605,2.227-0.605c0.658,0,1.217,0.104,1.68,0.312s0.832,0.493,1.108,0.854s0.492,0.817,0.645,1.367
		s0.239,1.268,0.259,2.153h-6.152v0.176c0,0.768,0.086,1.415,0.259,1.938s0.456,0.934,0.85,1.23s0.907,0.444,1.538,0.444
		c0.534,0,1.014-0.099,1.44-0.298s0.851-0.522,1.274-0.972L171.02,40.673z M169.379,36.708c-0.039-0.703-0.127-1.278-0.264-1.724
		s-0.342-0.788-0.615-1.025s-0.631-0.356-1.074-0.356c-0.67,0-1.206,0.269-1.606,0.806s-0.636,1.304-0.708,2.3H169.379z"/>
</g>
<g>
	<path d="M44.295,90.312v0.479c-0.299,0.052-0.527,0.117-0.684,0.195s-0.273,0.189-0.352,0.332s-0.117,0.335-0.117,0.576
		c0,0.221,0.026,0.46,0.078,0.718s0.127,0.545,0.225,0.864l2.285,7.969l2.803-8.027c0.039-0.124,0.078-0.254,0.117-0.391
		s0.073-0.27,0.103-0.4s0.049-0.244,0.059-0.342s0.015-0.189,0.015-0.273c0-0.391-0.089-0.675-0.269-0.854s-0.483-0.301-0.913-0.366
		v-0.479h4.102v0.479c-0.267,0.065-0.482,0.16-0.645,0.283s-0.324,0.322-0.483,0.596s-0.353,0.709-0.581,1.309l-4.053,10.82h-1.279
		L41.415,92.91c-0.176-0.592-0.329-1.014-0.459-1.265s-0.273-0.439-0.43-0.566s-0.371-0.223-0.645-0.288v-0.479H44.295z"/>
	<path d="M58.84,101.982c-0.417,0.436-0.799,0.778-1.147,1.025s-0.731,0.441-1.147,0.581s-0.875,0.21-1.377,0.21
		c-1.341,0-2.354-0.402-3.037-1.206s-1.025-1.991-1.025-3.56c0-0.97,0.174-1.826,0.522-2.568s0.845-1.315,1.489-1.719
		s1.387-0.605,2.227-0.605c0.658,0,1.217,0.104,1.68,0.312s0.832,0.493,1.108,0.854s0.492,0.817,0.645,1.367
		s0.239,1.268,0.259,2.153h-6.152v0.176c0,0.768,0.086,1.415,0.259,1.938s0.456,0.934,0.85,1.23s0.907,0.444,1.538,0.444
		c0.534,0,1.014-0.099,1.44-0.298s0.851-0.522,1.274-0.972L58.84,101.982z M57.199,98.018c-0.039-0.703-0.127-1.278-0.264-1.724
		s-0.342-0.788-0.615-1.025s-0.631-0.356-1.074-0.356c-0.67,0-1.206,0.269-1.606,0.806s-0.636,1.304-0.708,2.3H57.199z"/>
	<path d="M63.12,101.201c0,0.56,0.026,0.949,0.078,1.167s0.151,0.384,0.298,0.498s0.386,0.213,0.718,0.298v0.479h-3.877v-0.479
		c0.326-0.084,0.552-0.172,0.679-0.264s0.218-0.2,0.273-0.327s0.094-0.299,0.117-0.518s0.034-0.503,0.034-0.854v-8.174
		c0-0.625-0.005-1.061-0.015-1.309s-0.036-0.458-0.078-0.63s-0.101-0.308-0.176-0.405s-0.176-0.176-0.303-0.234
		s-0.356-0.117-0.688-0.176v-0.508l2.354-0.098h0.586V101.201z"/>
	<path d="M69.911,103.799c-1.354,0-2.388-0.399-3.101-1.196s-1.069-1.978-1.069-3.54c0-1.074,0.187-1.982,0.562-2.725
		s0.887-1.294,1.538-1.655s1.393-0.542,2.227-0.542c1.393,0,2.448,0.405,3.164,1.216s1.074,1.974,1.074,3.491
		c0,1.081-0.179,1.992-0.537,2.734s-0.866,1.297-1.523,1.665S70.809,103.799,69.911,103.799z M67.586,98.857
		c0,1.341,0.213,2.372,0.64,3.091s1.037,1.079,1.831,1.079c0.436,0,0.807-0.106,1.113-0.317s0.555-0.497,0.747-0.854
		s0.331-0.773,0.415-1.245s0.127-0.965,0.127-1.479c0-0.957-0.106-1.751-0.317-2.383s-0.5-1.095-0.864-1.392
		s-0.781-0.444-1.25-0.444c-0.788,0-1.392,0.342-1.812,1.025S67.586,97.594,67.586,98.857z"/>
	<path d="M83.273,94.531v2.041h-1.24c-0.111-0.423-0.248-0.757-0.41-1.001s-0.352-0.415-0.566-0.513s-0.482-0.146-0.801-0.146
		c-0.456,0-0.859,0.146-1.211,0.439s-0.63,0.739-0.835,1.338s-0.308,1.332-0.308,2.197c0,0.553,0.039,1.06,0.117,1.519
		s0.211,0.851,0.4,1.177s0.439,0.58,0.752,0.762s0.7,0.273,1.162,0.273c0.449,0,0.868-0.088,1.255-0.264s0.79-0.485,1.206-0.928
		l0.557,0.645c-0.332,0.365-0.625,0.646-0.879,0.845s-0.526,0.365-0.815,0.498s-0.576,0.231-0.859,0.293s-0.591,0.093-0.923,0.093
		c-1.23,0-2.171-0.409-2.822-1.226s-0.977-1.997-0.977-3.54c0-0.963,0.182-1.818,0.547-2.563s0.875-1.32,1.533-1.724
		s1.416-0.605,2.275-0.605c0.534,0,1.027,0.031,1.479,0.093S82.817,94.395,83.273,94.531z"/>
	<path d="M84.536,103.164c0.254-0.078,0.435-0.146,0.542-0.205s0.199-0.14,0.273-0.244s0.133-0.264,0.176-0.479
		s0.063-0.55,0.063-1.006v-4.258c0-0.417-0.006-0.752-0.02-1.006s-0.059-0.458-0.137-0.61s-0.197-0.267-0.356-0.342
		s-0.386-0.138-0.679-0.19v-0.518l2.275-0.088h0.596v6.982c0,0.56,0.026,0.949,0.078,1.167s0.151,0.384,0.298,0.498
		s0.386,0.213,0.718,0.298v0.479h-3.828V103.164z M87.329,90.479v1.895h-1.797v-1.895H87.329z"/>
	<path d="M96.404,93.027c0-0.625-0.005-1.061-0.015-1.309s-0.036-0.458-0.078-0.63s-0.101-0.308-0.176-0.405
		s-0.176-0.176-0.303-0.234s-0.356-0.117-0.688-0.176v-0.508l2.363-0.098h0.576v11.309c0,0.508,0.01,0.871,0.029,1.089
		s0.062,0.392,0.127,0.522s0.167,0.236,0.308,0.317s0.386,0.158,0.737,0.229v0.508l-2.305,0.098h-0.586l0.117-1.602l-0.146-0.039
		c-0.41,0.436-0.767,0.763-1.069,0.981s-0.625,0.392-0.967,0.522s-0.708,0.195-1.099,0.195c-1.068,0-1.891-0.405-2.471-1.216
		s-0.869-1.981-0.869-3.511c0-1.068,0.189-1.974,0.566-2.72s0.887-1.3,1.528-1.665s1.362-0.547,2.163-0.547
		c0.43,0,0.82,0.034,1.172,0.103s0.713,0.181,1.084,0.337V93.027z M96.404,97.852c0-0.508-0.023-0.915-0.068-1.221
		s-0.122-0.563-0.229-0.771s-0.252-0.384-0.435-0.527s-0.382-0.248-0.601-0.312s-0.48-0.098-0.786-0.098
		c-0.833,0-1.468,0.333-1.904,1.001s-0.654,1.626-0.654,2.876s0.179,2.201,0.537,2.852s0.902,0.977,1.631,0.977
		c0.287,0,0.524-0.024,0.713-0.073s0.375-0.127,0.557-0.234s0.368-0.255,0.557-0.444s0.327-0.361,0.415-0.518s0.155-0.335,0.2-0.537
		s0.068-0.462,0.068-0.781V97.852z"/>
	<path d="M106.271,102.246l-0.146-0.039c-0.566,0.58-1.099,0.99-1.597,1.23s-1.027,0.361-1.587,0.361
		c-0.495,0-0.931-0.096-1.309-0.288s-0.667-0.462-0.869-0.811s-0.303-0.75-0.303-1.206c0-0.951,0.47-1.685,1.411-2.202
		s2.352-0.819,4.233-0.903v-0.635c0-0.677-0.065-1.211-0.195-1.602s-0.335-0.677-0.615-0.859s-0.654-0.273-1.123-0.273
		c-0.508,0-0.917,0.133-1.226,0.4s-0.542,0.667-0.698,1.201h-1.279v-1.27c0.625-0.326,1.146-0.565,1.562-0.718
		s0.833-0.273,1.25-0.361s0.84-0.132,1.27-0.132c0.645,0,1.162,0.103,1.553,0.308s0.684,0.519,0.879,0.942s0.293,1.061,0.293,1.914
		v3.398c0,0.482,0.003,0.822,0.01,1.021s0.026,0.382,0.059,0.552s0.082,0.304,0.146,0.405s0.161,0.187,0.288,0.259
		s0.333,0.146,0.62,0.225v0.479h-2.676L106.271,102.246z M106.105,99.189c-1.322,0.013-2.311,0.189-2.969,0.527
		s-0.986,0.85-0.986,1.533c0,0.371,0.075,0.664,0.225,0.879s0.338,0.363,0.566,0.444s0.498,0.122,0.811,0.122
		c0.443,0,0.845-0.107,1.206-0.322s0.643-0.488,0.845-0.82s0.303-0.661,0.303-0.986V99.189z"/>
	<path d="M116.704,93.027c0-0.625-0.005-1.061-0.015-1.309s-0.036-0.458-0.078-0.63s-0.101-0.308-0.176-0.405
		s-0.176-0.176-0.303-0.234s-0.356-0.117-0.688-0.176v-0.508l2.363-0.098h0.576v11.309c0,0.508,0.01,0.871,0.029,1.089
		s0.062,0.392,0.127,0.522s0.167,0.236,0.308,0.317s0.386,0.158,0.737,0.229v0.508l-2.305,0.098h-0.586l0.117-1.602l-0.146-0.039
		c-0.41,0.436-0.767,0.763-1.069,0.981s-0.625,0.392-0.967,0.522s-0.708,0.195-1.099,0.195c-1.068,0-1.891-0.405-2.471-1.216
		s-0.869-1.981-0.869-3.511c0-1.068,0.189-1.974,0.566-2.72s0.887-1.3,1.528-1.665s1.362-0.547,2.163-0.547
		c0.43,0,0.82,0.034,1.172,0.103s0.713,0.181,1.084,0.337V93.027z M116.704,97.852c0-0.508-0.023-0.915-0.068-1.221
		s-0.122-0.563-0.229-0.771s-0.252-0.384-0.435-0.527s-0.382-0.248-0.601-0.312s-0.48-0.098-0.786-0.098
		c-0.833,0-1.468,0.333-1.904,1.001s-0.654,1.626-0.654,2.876s0.179,2.201,0.537,2.852s0.902,0.977,1.631,0.977
		c0.287,0,0.524-0.024,0.713-0.073s0.375-0.127,0.557-0.234s0.368-0.255,0.557-0.444s0.327-0.361,0.415-0.518s0.155-0.335,0.2-0.537
		s0.068-0.462,0.068-0.781V97.852z"/>
	<path d="M132.326,94.531v2.041h-1.24c-0.111-0.423-0.248-0.757-0.41-1.001s-0.352-0.415-0.566-0.513s-0.482-0.146-0.801-0.146
		c-0.456,0-0.859,0.146-1.211,0.439s-0.63,0.739-0.835,1.338s-0.308,1.332-0.308,2.197c0,0.553,0.039,1.06,0.117,1.519
		s0.211,0.851,0.4,1.177s0.439,0.58,0.752,0.762s0.7,0.273,1.162,0.273c0.449,0,0.868-0.088,1.255-0.264s0.79-0.485,1.206-0.928
		l0.557,0.645c-0.332,0.365-0.625,0.646-0.879,0.845s-0.526,0.365-0.815,0.498s-0.576,0.231-0.859,0.293s-0.591,0.093-0.923,0.093
		c-1.23,0-2.171-0.409-2.822-1.226s-0.977-1.997-0.977-3.54c0-0.963,0.182-1.818,0.547-2.563s0.875-1.32,1.533-1.724
		s1.416-0.605,2.275-0.605c0.534,0,1.027,0.031,1.479,0.093S131.87,94.395,132.326,94.531z"/>
	<path d="M137.836,103.799c-1.354,0-2.388-0.399-3.101-1.196s-1.069-1.978-1.069-3.54c0-1.074,0.187-1.982,0.562-2.725
		s0.887-1.294,1.538-1.655s1.393-0.542,2.227-0.542c1.393,0,2.448,0.405,3.164,1.216s1.074,1.974,1.074,3.491
		c0,1.081-0.179,1.992-0.537,2.734s-0.866,1.297-1.523,1.665S138.735,103.799,137.836,103.799z M135.512,98.857
		c0,1.341,0.213,2.372,0.64,3.091s1.037,1.079,1.831,1.079c0.436,0,0.807-0.106,1.113-0.317s0.555-0.497,0.747-0.854
		s0.331-0.773,0.415-1.245s0.127-0.965,0.127-1.479c0-0.957-0.106-1.751-0.317-2.383s-0.5-1.095-0.864-1.392
		s-0.781-0.444-1.25-0.444c-0.788,0-1.392,0.342-1.812,1.025S135.512,97.594,135.512,98.857z"/>
	<path d="M151.199,94.531v2.041h-1.24c-0.111-0.423-0.248-0.757-0.41-1.001s-0.352-0.415-0.566-0.513s-0.482-0.146-0.801-0.146
		c-0.456,0-0.859,0.146-1.211,0.439s-0.63,0.739-0.835,1.338s-0.308,1.332-0.308,2.197c0,0.553,0.039,1.06,0.117,1.519
		s0.211,0.851,0.4,1.177s0.439,0.58,0.752,0.762s0.7,0.273,1.162,0.273c0.449,0,0.868-0.088,1.255-0.264s0.79-0.485,1.206-0.928
		l0.557,0.645c-0.332,0.365-0.625,0.646-0.879,0.845s-0.526,0.365-0.815,0.498s-0.576,0.231-0.859,0.293s-0.591,0.093-0.923,0.093
		c-1.23,0-2.171-0.409-2.822-1.226s-0.977-1.997-0.977-3.54c0-0.963,0.182-1.818,0.547-2.563s0.875-1.32,1.533-1.724
		s1.416-0.605,2.275-0.605c0.534,0,1.027,0.031,1.479,0.093S150.744,94.395,151.199,94.531z"/>
	<path d="M155.079,95.84l0.039,0.01c0.508-0.514,0.91-0.874,1.206-1.079s0.589-0.36,0.879-0.464s0.601-0.156,0.933-0.156
		c0.358,0,0.677,0.042,0.957,0.127s0.526,0.213,0.737,0.386s0.384,0.384,0.518,0.635s0.233,0.55,0.298,0.898s0.098,0.79,0.098,1.323
		v3.682c0,0.566,0.024,0.952,0.073,1.157s0.137,0.365,0.264,0.479s0.382,0.223,0.767,0.327v0.479h-3.848v-0.479
		c0.254-0.078,0.436-0.146,0.547-0.205s0.204-0.14,0.278-0.244s0.133-0.265,0.176-0.483s0.063-0.548,0.063-0.991v-2.559
		c0-0.866-0.044-1.528-0.132-1.987s-0.26-0.802-0.518-1.03s-0.617-0.342-1.079-0.342c-0.26,0-0.495,0.045-0.703,0.137
		s-0.449,0.254-0.723,0.488s-0.48,0.475-0.62,0.723s-0.21,0.511-0.21,0.791v3.74c0,0.443,0.011,0.758,0.034,0.947
		s0.067,0.347,0.132,0.474s0.165,0.231,0.298,0.312s0.34,0.158,0.62,0.229v0.479h-3.867v-0.479c0.287-0.078,0.492-0.153,0.615-0.225
		s0.22-0.163,0.288-0.273s0.119-0.27,0.151-0.479s0.049-0.537,0.049-0.986v-8.174c0-0.625-0.005-1.061-0.015-1.309
		s-0.036-0.458-0.078-0.63s-0.101-0.308-0.176-0.405s-0.176-0.176-0.303-0.234s-0.356-0.117-0.688-0.176v-0.508l2.354-0.098h0.586
		V95.84z"/>
	<path d="M171.02,101.982c-0.417,0.436-0.799,0.778-1.147,1.025s-0.731,0.441-1.147,0.581s-0.875,0.21-1.377,0.21
		c-1.341,0-2.354-0.402-3.037-1.206s-1.025-1.991-1.025-3.56c0-0.97,0.174-1.826,0.522-2.568s0.845-1.315,1.489-1.719
		s1.387-0.605,2.227-0.605c0.658,0,1.217,0.104,1.68,0.312s0.832,0.493,1.108,0.854s0.492,0.817,0.645,1.367
		s0.239,1.268,0.259,2.153h-6.152v0.176c0,0.768,0.086,1.415,0.259,1.938s0.456,0.934,0.85,1.23s0.907,0.444,1.538,0.444
		c0.534,0,1.014-0.099,1.44-0.298s0.851-0.522,1.274-0.972L171.02,101.982z M169.379,98.018c-0.039-0.703-0.127-1.278-0.264-1.724
		s-0.342-0.788-0.615-1.025s-0.631-0.356-1.074-0.356c-0.67,0-1.206,0.269-1.606,0.806s-0.636,1.304-0.708,2.3H169.379z"/>
</g>
<g>
	<path d="M33.843,162.48c0,0.385,0.021,0.69,0.063,0.918c0.042,0.229,0.107,0.409,0.195,0.542c0.088,0.134,0.207,0.238,0.356,0.312
		c0.15,0.075,0.384,0.148,0.703,0.22v0.479h-4.287v-0.479c0.404-0.104,0.674-0.22,0.811-0.347s0.226-0.308,0.269-0.542
		s0.063-0.592,0.063-1.074v-8.447c0-0.449-0.016-0.776-0.049-0.981s-0.086-0.364-0.161-0.479c-0.075-0.113-0.174-0.205-0.298-0.273
		s-0.335-0.145-0.635-0.229v-0.479h4.844c1.523,0,2.658,0.292,3.403,0.874c0.746,0.583,1.118,1.47,1.118,2.661
		c0,0.678-0.117,1.286-0.352,1.826c-0.234,0.541-0.566,0.983-0.996,1.328c-0.43,0.346-0.938,0.593-1.523,0.742
		c-0.586,0.15-1.201,0.225-1.846,0.225c-0.723,0-1.283-0.013-1.68-0.039V162.48z M33.843,158.428h1.133
		c0.736,0,1.343-0.096,1.821-0.288c0.479-0.191,0.845-0.511,1.099-0.957c0.254-0.445,0.381-1.036,0.381-1.772
		c0-0.56-0.075-1.026-0.225-1.401c-0.15-0.374-0.356-0.675-0.62-0.903c-0.264-0.228-0.578-0.389-0.942-0.483
		c-0.365-0.094-0.762-0.142-1.191-0.142c-0.645,0-1.129,0.014-1.455,0.039V158.428z"/>
	<path d="M45.594,165.107c-1.354,0-2.388-0.398-3.101-1.196c-0.713-0.797-1.069-1.978-1.069-3.54c0-1.074,0.187-1.982,0.562-2.725
		s0.887-1.294,1.538-1.655s1.393-0.542,2.227-0.542c1.393,0,2.448,0.405,3.164,1.216s1.074,1.975,1.074,3.491
		c0,1.081-0.179,1.992-0.537,2.734s-0.866,1.298-1.523,1.665C47.271,164.924,46.493,165.107,45.594,165.107z M43.27,160.166
		c0,1.342,0.213,2.372,0.64,3.091c0.426,0.72,1.037,1.079,1.831,1.079c0.436,0,0.807-0.105,1.113-0.317
		c0.306-0.211,0.555-0.496,0.747-0.854c0.192-0.357,0.331-0.772,0.415-1.245c0.084-0.472,0.127-0.965,0.127-1.479
		c0-0.957-0.106-1.751-0.317-2.383c-0.211-0.631-0.5-1.095-0.864-1.392c-0.365-0.296-0.781-0.444-1.25-0.444
		c-0.788,0-1.392,0.342-1.812,1.025S43.27,158.903,43.27,160.166z"/>
	<path d="M58.224,157.754h-0.938c-0.143-0.391-0.312-0.698-0.508-0.923s-0.417-0.382-0.664-0.474
		c-0.248-0.091-0.55-0.137-0.908-0.137c-0.521,0-0.936,0.122-1.245,0.366s-0.464,0.578-0.464,1.001c0,0.3,0.062,0.547,0.186,0.742
		s0.316,0.378,0.576,0.547c0.26,0.17,0.719,0.395,1.377,0.674c0.664,0.287,1.177,0.551,1.538,0.791
		c0.361,0.241,0.645,0.521,0.85,0.84c0.205,0.319,0.308,0.7,0.308,1.143c0,0.515-0.088,0.947-0.264,1.299s-0.423,0.639-0.742,0.859
		c-0.319,0.222-0.698,0.381-1.138,0.479s-0.919,0.146-1.44,0.146c-0.547,0-1.078-0.04-1.592-0.122
		c-0.514-0.081-1.016-0.187-1.504-0.317v-2.041h0.957c0.176,0.6,0.436,1.034,0.781,1.304c0.345,0.271,0.82,0.405,1.426,0.405
		c0.234,0,0.464-0.024,0.688-0.073s0.425-0.13,0.601-0.244c0.176-0.113,0.316-0.269,0.42-0.464s0.156-0.439,0.156-0.732
		c0-0.332-0.065-0.602-0.195-0.811c-0.13-0.208-0.332-0.398-0.605-0.571c-0.273-0.172-0.755-0.405-1.445-0.698
		c-0.592-0.247-1.068-0.488-1.426-0.723s-0.64-0.511-0.845-0.83c-0.205-0.318-0.308-0.696-0.308-1.133
		c0-0.533,0.145-0.997,0.435-1.392c0.29-0.394,0.708-0.694,1.255-0.903c0.547-0.208,1.188-0.312,1.924-0.312
		c0.43,0,0.845,0.021,1.245,0.063c0.4,0.043,0.903,0.126,1.509,0.249V157.754z"/>
	<path d="M59.995,164.473c0.254-0.078,0.435-0.146,0.542-0.205s0.199-0.14,0.273-0.244c0.075-0.104,0.133-0.264,0.176-0.479
		s0.063-0.55,0.063-1.006v-4.258c0-0.416-0.006-0.752-0.02-1.006s-0.059-0.457-0.137-0.61c-0.078-0.152-0.197-0.267-0.356-0.342
		c-0.16-0.074-0.386-0.138-0.679-0.19v-0.518l2.275-0.088h0.596v6.982c0,0.561,0.026,0.949,0.078,1.167
		c0.052,0.219,0.151,0.385,0.298,0.498c0.146,0.114,0.386,0.214,0.718,0.298v0.479h-3.828V164.473z M62.788,151.787v1.895h-1.797
		v-1.895H62.788z"/>
	<path d="M72.547,155.84v2.041h-1.24c-0.111-0.423-0.248-0.757-0.41-1.001s-0.352-0.415-0.566-0.513s-0.482-0.146-0.801-0.146
		c-0.456,0-0.859,0.146-1.211,0.439s-0.63,0.739-0.835,1.338c-0.205,0.6-0.308,1.332-0.308,2.197c0,0.554,0.039,1.06,0.117,1.519
		s0.211,0.852,0.4,1.177c0.189,0.326,0.439,0.58,0.752,0.762c0.312,0.183,0.7,0.273,1.162,0.273c0.449,0,0.868-0.088,1.255-0.264
		s0.79-0.484,1.206-0.928l0.557,0.645c-0.332,0.365-0.625,0.646-0.879,0.845c-0.254,0.199-0.526,0.365-0.815,0.498
		c-0.29,0.134-0.576,0.231-0.859,0.293c-0.283,0.062-0.591,0.093-0.923,0.093c-1.23,0-2.171-0.408-2.822-1.226
		c-0.651-0.816-0.977-1.997-0.977-3.54c0-0.963,0.182-1.817,0.547-2.563c0.365-0.745,0.875-1.319,1.533-1.724
		c0.658-0.403,1.416-0.605,2.275-0.605c0.534,0,1.027,0.031,1.479,0.093C71.637,155.604,72.091,155.703,72.547,155.84z"/>
	<path d="M73.81,164.473c0.254-0.078,0.435-0.146,0.542-0.205s0.199-0.14,0.273-0.244c0.075-0.104,0.133-0.264,0.176-0.479
		s0.063-0.55,0.063-1.006v-4.258c0-0.416-0.006-0.752-0.02-1.006s-0.059-0.457-0.137-0.61c-0.078-0.152-0.197-0.267-0.356-0.342
		c-0.16-0.074-0.386-0.138-0.679-0.19v-0.518l2.275-0.088h0.596v6.982c0,0.561,0.026,0.949,0.078,1.167
		c0.052,0.219,0.151,0.385,0.298,0.498c0.146,0.114,0.386,0.214,0.718,0.298v0.479H73.81V164.473z M76.603,151.787v1.895h-1.797
		v-1.895H76.603z"/>
	<path d="M83.334,165.107c-1.354,0-2.388-0.398-3.101-1.196c-0.713-0.797-1.069-1.978-1.069-3.54c0-1.074,0.187-1.982,0.562-2.725
		s0.887-1.294,1.538-1.655s1.393-0.542,2.227-0.542c1.393,0,2.448,0.405,3.164,1.216s1.074,1.975,1.074,3.491
		c0,1.081-0.179,1.992-0.537,2.734s-0.866,1.298-1.523,1.665C85.011,164.924,84.233,165.107,83.334,165.107z M81.01,160.166
		c0,1.342,0.213,2.372,0.64,3.091c0.426,0.72,1.037,1.079,1.831,1.079c0.436,0,0.807-0.105,1.113-0.317
		c0.306-0.211,0.555-0.496,0.747-0.854c0.192-0.357,0.331-0.772,0.415-1.245c0.084-0.472,0.127-0.965,0.127-1.479
		c0-0.957-0.106-1.751-0.317-2.383c-0.211-0.631-0.5-1.095-0.864-1.392c-0.365-0.296-0.781-0.444-1.25-0.444
		c-0.788,0-1.392,0.342-1.812,1.025S81.01,158.903,81.01,160.166z M85.913,150.869v0.488l-3.096,3.145l-0.635-0.508l2.021-3.125
		H85.913z"/>
	<path d="M98.934,164.951h-3.848v-0.479c0.254-0.078,0.436-0.146,0.547-0.205s0.204-0.14,0.278-0.244
		c0.075-0.104,0.133-0.265,0.176-0.483c0.042-0.218,0.063-0.548,0.063-0.991v-2.559c0-0.455-0.013-0.869-0.039-1.24
		s-0.07-0.675-0.132-0.913c-0.062-0.237-0.137-0.423-0.225-0.557c-0.088-0.133-0.192-0.247-0.312-0.342
		c-0.121-0.094-0.259-0.169-0.415-0.225c-0.156-0.055-0.361-0.083-0.615-0.083s-0.495,0.051-0.723,0.151
		c-0.228,0.102-0.479,0.275-0.752,0.522c-0.273,0.248-0.472,0.492-0.596,0.732c-0.124,0.241-0.186,0.518-0.186,0.83v3.643
		c0,0.561,0.026,0.949,0.078,1.167c0.052,0.219,0.151,0.385,0.298,0.498c0.146,0.114,0.386,0.214,0.718,0.298v0.479h-3.828v-0.479
		c0.254-0.078,0.435-0.146,0.542-0.205s0.199-0.14,0.273-0.244c0.075-0.104,0.133-0.264,0.176-0.479s0.063-0.55,0.063-1.006v-4.258
		c0-0.416-0.006-0.752-0.02-1.006s-0.059-0.457-0.137-0.61c-0.078-0.152-0.197-0.267-0.356-0.342
		c-0.16-0.074-0.386-0.138-0.679-0.19v-0.518l2.285-0.088h0.596l-0.107,1.592l0.137,0.039c0.482-0.488,0.871-0.836,1.167-1.045
		c0.296-0.208,0.596-0.369,0.898-0.483c0.303-0.113,0.624-0.171,0.962-0.171c0.352,0,0.666,0.041,0.942,0.122
		c0.277,0.082,0.521,0.207,0.732,0.376c0.211,0.17,0.386,0.38,0.522,0.63c0.137,0.251,0.239,0.552,0.308,0.903
		s0.103,0.798,0.103,1.338v3.682c0,0.449,0.013,0.775,0.039,0.977c0.026,0.202,0.072,0.358,0.137,0.469
		c0.065,0.111,0.16,0.204,0.283,0.278c0.124,0.075,0.338,0.155,0.645,0.239V164.951z"/>
	<path d="M107.075,164.658v2.061c0,0.424,0.015,0.739,0.044,0.947c0.029,0.209,0.082,0.373,0.156,0.493
		c0.075,0.121,0.182,0.22,0.322,0.298s0.366,0.15,0.679,0.215v0.479h-3.984v-0.479c0.234-0.064,0.425-0.132,0.571-0.2
		s0.259-0.169,0.337-0.303c0.078-0.133,0.13-0.313,0.156-0.542c0.026-0.228,0.039-0.53,0.039-0.908v-8.379
		c0-0.469-0.006-0.802-0.02-1.001c-0.013-0.198-0.039-0.362-0.078-0.493c-0.039-0.13-0.096-0.237-0.171-0.322
		c-0.075-0.084-0.176-0.156-0.303-0.215s-0.337-0.117-0.63-0.176v-0.518l2.295-0.088h0.596l-0.127,1.592l0.146,0.039
		c0.404-0.41,0.723-0.708,0.957-0.894s0.477-0.34,0.728-0.464c0.25-0.123,0.492-0.211,0.723-0.264
		c0.231-0.052,0.477-0.078,0.737-0.078c1.074,0,1.899,0.402,2.476,1.206c0.576,0.805,0.864,1.981,0.864,3.53
		c0,1.074-0.163,1.978-0.488,2.71s-0.799,1.283-1.421,1.65c-0.622,0.368-1.362,0.552-2.222,0.552c-0.482,0-0.918-0.04-1.309-0.122
		C107.758,164.904,107.4,164.795,107.075,164.658z M107.075,161.436c0,0.625,0.039,1.107,0.117,1.445
		c0.078,0.339,0.216,0.614,0.415,0.825c0.199,0.212,0.433,0.37,0.703,0.474c0.27,0.104,0.626,0.156,1.069,0.156
		c0.788,0,1.38-0.327,1.777-0.981s0.596-1.619,0.596-2.896c0-2.552-0.746-3.828-2.236-3.828c-0.365,0-0.679,0.058-0.942,0.171
		c-0.264,0.114-0.526,0.298-0.786,0.552s-0.444,0.5-0.552,0.737c-0.107,0.238-0.161,0.493-0.161,0.767V161.436z"/>
	<path d="M123.074,163.291c-0.417,0.437-0.799,0.778-1.147,1.025c-0.348,0.248-0.731,0.441-1.147,0.581
		c-0.417,0.141-0.875,0.21-1.377,0.21c-1.341,0-2.354-0.401-3.037-1.206c-0.684-0.804-1.025-1.99-1.025-3.56
		c0-0.97,0.174-1.826,0.522-2.568s0.845-1.314,1.489-1.719c0.645-0.403,1.387-0.605,2.227-0.605c0.658,0,1.217,0.104,1.68,0.312
		c0.462,0.209,0.832,0.493,1.108,0.854s0.492,0.817,0.645,1.367c0.153,0.551,0.239,1.269,0.259,2.153h-6.152v0.176
		c0,0.769,0.086,1.415,0.259,1.938c0.172,0.524,0.456,0.935,0.85,1.23c0.394,0.297,0.907,0.444,1.538,0.444
		c0.534,0,1.014-0.099,1.44-0.298c0.426-0.198,0.851-0.522,1.274-0.972L123.074,163.291z M121.434,159.326
		c-0.039-0.703-0.127-1.277-0.264-1.724c-0.137-0.445-0.342-0.787-0.615-1.025c-0.273-0.237-0.631-0.356-1.074-0.356
		c-0.67,0-1.206,0.269-1.606,0.806s-0.636,1.304-0.708,2.3H121.434z M121.834,150.869v0.488l-3.096,3.145l-0.635-0.508l2.021-3.125
		H121.834z"/>
	<path d="M134.259,164.951h-3.848v-0.479c0.254-0.078,0.436-0.146,0.547-0.205s0.204-0.14,0.278-0.244
		c0.075-0.104,0.133-0.265,0.176-0.483c0.042-0.218,0.063-0.548,0.063-0.991v-2.559c0-0.455-0.013-0.869-0.039-1.24
		s-0.07-0.675-0.132-0.913c-0.062-0.237-0.137-0.423-0.225-0.557c-0.088-0.133-0.192-0.247-0.312-0.342
		c-0.121-0.094-0.259-0.169-0.415-0.225c-0.156-0.055-0.361-0.083-0.615-0.083s-0.495,0.051-0.723,0.151
		c-0.228,0.102-0.479,0.275-0.752,0.522c-0.273,0.248-0.472,0.492-0.596,0.732c-0.124,0.241-0.186,0.518-0.186,0.83v3.643
		c0,0.561,0.026,0.949,0.078,1.167c0.052,0.219,0.151,0.385,0.298,0.498c0.146,0.114,0.386,0.214,0.718,0.298v0.479h-3.828v-0.479
		c0.254-0.078,0.435-0.146,0.542-0.205s0.199-0.14,0.273-0.244c0.075-0.104,0.133-0.264,0.176-0.479s0.063-0.55,0.063-1.006v-4.258
		c0-0.416-0.006-0.752-0.02-1.006s-0.059-0.457-0.137-0.61c-0.078-0.152-0.197-0.267-0.356-0.342
		c-0.16-0.074-0.386-0.138-0.679-0.19v-0.518l2.285-0.088h0.596l-0.107,1.592l0.137,0.039c0.482-0.488,0.871-0.836,1.167-1.045
		c0.296-0.208,0.596-0.369,0.898-0.483c0.303-0.113,0.624-0.171,0.962-0.171c0.352,0,0.666,0.041,0.942,0.122
		c0.277,0.082,0.521,0.207,0.732,0.376c0.211,0.17,0.386,0.38,0.522,0.63c0.137,0.251,0.239,0.552,0.308,0.903
		s0.103,0.798,0.103,1.338v3.682c0,0.449,0.013,0.775,0.039,0.977c0.026,0.202,0.072,0.358,0.137,0.469
		c0.065,0.111,0.16,0.204,0.283,0.278c0.124,0.075,0.338,0.155,0.645,0.239V164.951z"/>
	<path d="M142.221,154.336c0-0.625-0.005-1.061-0.015-1.309c-0.01-0.247-0.036-0.457-0.078-0.63
		c-0.042-0.172-0.101-0.308-0.176-0.405s-0.176-0.176-0.303-0.234s-0.356-0.117-0.688-0.176v-0.508l2.363-0.098h0.576v11.309
		c0,0.508,0.01,0.871,0.029,1.089c0.02,0.219,0.062,0.393,0.127,0.522c0.065,0.131,0.167,0.236,0.308,0.317
		c0.14,0.082,0.386,0.158,0.737,0.229v0.508l-2.305,0.098h-0.586l0.117-1.602l-0.146-0.039c-0.41,0.437-0.767,0.764-1.069,0.981
		c-0.303,0.219-0.625,0.393-0.967,0.522c-0.342,0.131-0.708,0.195-1.099,0.195c-1.068,0-1.891-0.405-2.471-1.216
		s-0.869-1.98-0.869-3.511c0-1.067,0.189-1.974,0.566-2.72c0.377-0.745,0.887-1.3,1.528-1.665c0.641-0.364,1.362-0.547,2.163-0.547
		c0.43,0,0.82,0.034,1.172,0.103s0.713,0.181,1.084,0.337V154.336z M142.221,159.16c0-0.508-0.023-0.914-0.068-1.221
		c-0.045-0.306-0.122-0.562-0.229-0.771c-0.107-0.208-0.252-0.384-0.435-0.527c-0.182-0.143-0.382-0.247-0.601-0.312
		c-0.218-0.064-0.48-0.098-0.786-0.098c-0.833,0-1.468,0.334-1.904,1.001c-0.436,0.668-0.654,1.626-0.654,2.876
		s0.179,2.201,0.537,2.852c0.358,0.651,0.902,0.977,1.631,0.977c0.287,0,0.524-0.024,0.713-0.073s0.375-0.127,0.557-0.234
		s0.368-0.255,0.557-0.444c0.189-0.188,0.327-0.361,0.415-0.518s0.155-0.335,0.2-0.537c0.045-0.201,0.068-0.462,0.068-0.781V159.16z
		"/>
	<path d="M146.208,155.615h2.783v4.971c0,0.762,0.029,1.342,0.088,1.738c0.059,0.397,0.146,0.697,0.264,0.898
		c0.117,0.202,0.283,0.371,0.498,0.508s0.511,0.205,0.889,0.205c0.248,0,0.485-0.049,0.713-0.146s0.482-0.269,0.762-0.513
		s0.48-0.486,0.601-0.728c0.121-0.24,0.181-0.521,0.181-0.84v-3.662c0-0.371-0.01-0.65-0.029-0.84
		c-0.02-0.188-0.052-0.34-0.098-0.454c-0.045-0.113-0.099-0.206-0.161-0.278c-0.062-0.071-0.15-0.137-0.264-0.195
		s-0.298-0.12-0.552-0.186v-0.479h2.783v6.67c0,0.502,0.01,0.863,0.029,1.084c0.02,0.222,0.062,0.397,0.127,0.527
		c0.065,0.131,0.166,0.236,0.303,0.317c0.137,0.082,0.381,0.158,0.732,0.229v0.508l-2.236,0.098h-0.596l0.059-1.602l-0.146-0.039
		c-0.541,0.586-1.056,1.016-1.548,1.289s-0.985,0.41-1.479,0.41c-0.592,0-1.081-0.117-1.465-0.352s-0.67-0.584-0.859-1.05
		c-0.189-0.465-0.283-1.121-0.283-1.968v-3.691c0-0.547-0.021-0.923-0.063-1.128s-0.124-0.367-0.244-0.488
		c-0.121-0.12-0.382-0.232-0.786-0.337V155.615z"/>
	<path d="M159.815,162.51c0,0.561,0.026,0.949,0.078,1.167c0.052,0.219,0.151,0.385,0.298,0.498
		c0.146,0.114,0.386,0.214,0.718,0.298v0.479h-3.877v-0.479c0.326-0.084,0.552-0.172,0.679-0.264c0.127-0.091,0.218-0.2,0.273-0.327
		s0.094-0.299,0.117-0.518c0.023-0.218,0.034-0.503,0.034-0.854v-8.174c0-0.625-0.005-1.061-0.015-1.309
		c-0.01-0.247-0.036-0.457-0.078-0.63c-0.042-0.172-0.101-0.308-0.176-0.405s-0.176-0.176-0.303-0.234s-0.356-0.117-0.688-0.176
		v-0.508l2.354-0.098h0.586V162.51z"/>
	<path d="M166.605,165.107c-1.354,0-2.388-0.398-3.101-1.196c-0.713-0.797-1.069-1.978-1.069-3.54c0-1.074,0.187-1.982,0.562-2.725
		s0.887-1.294,1.538-1.655s1.393-0.542,2.227-0.542c1.393,0,2.448,0.405,3.164,1.216S171,158.64,171,160.156
		c0,1.081-0.179,1.992-0.537,2.734s-0.866,1.298-1.523,1.665C168.282,164.924,167.504,165.107,166.605,165.107z M164.281,160.166
		c0,1.342,0.213,2.372,0.64,3.091c0.426,0.72,1.037,1.079,1.831,1.079c0.436,0,0.807-0.105,1.113-0.317
		c0.306-0.211,0.555-0.496,0.747-0.854c0.192-0.357,0.331-0.772,0.415-1.245c0.084-0.472,0.127-0.965,0.127-1.479
		c0-0.957-0.106-1.751-0.317-2.383c-0.211-0.631-0.5-1.095-0.864-1.392c-0.365-0.296-0.781-0.444-1.25-0.444
		c-0.788,0-1.392,0.342-1.812,1.025S164.281,158.903,164.281,160.166z"/>
</g>
<g>
	<path d="M23.673,212.931v0.479c-0.299,0.053-0.527,0.117-0.684,0.195s-0.273,0.189-0.352,0.332
		c-0.078,0.144-0.117,0.336-0.117,0.576c0,0.222,0.026,0.461,0.078,0.718c0.052,0.258,0.127,0.546,0.225,0.864l2.285,7.969
		l2.803-8.027c0.039-0.123,0.078-0.254,0.117-0.391s0.073-0.27,0.103-0.4c0.029-0.13,0.049-0.244,0.059-0.342
		s0.015-0.188,0.015-0.273c0-0.391-0.089-0.675-0.269-0.854c-0.179-0.179-0.483-0.301-0.913-0.366v-0.479h4.102v0.479
		c-0.267,0.065-0.482,0.16-0.645,0.283c-0.163,0.124-0.324,0.322-0.483,0.596s-0.353,0.71-0.581,1.309l-4.053,10.82h-1.279
		l-3.291-10.889c-0.176-0.592-0.329-1.014-0.459-1.265c-0.13-0.25-0.273-0.439-0.43-0.566s-0.371-0.223-0.645-0.288v-0.479H23.673z"
		/>
	<path d="M38.218,224.601c-0.417,0.437-0.799,0.778-1.147,1.025c-0.348,0.248-0.731,0.441-1.147,0.581
		c-0.417,0.141-0.875,0.21-1.377,0.21c-1.341,0-2.354-0.401-3.037-1.206c-0.684-0.804-1.025-1.99-1.025-3.56
		c0-0.97,0.174-1.826,0.522-2.568s0.845-1.314,1.489-1.719c0.645-0.403,1.387-0.605,2.227-0.605c0.658,0,1.217,0.104,1.68,0.312
		c0.462,0.209,0.832,0.493,1.108,0.854s0.492,0.817,0.645,1.367c0.153,0.551,0.239,1.269,0.259,2.153h-6.152v0.176
		c0,0.769,0.086,1.415,0.259,1.938c0.172,0.524,0.456,0.935,0.85,1.23c0.394,0.297,0.907,0.444,1.538,0.444
		c0.534,0,1.014-0.099,1.44-0.298c0.426-0.198,0.851-0.522,1.274-0.972L38.218,224.601z M36.577,220.636
		c-0.039-0.703-0.127-1.277-0.264-1.724c-0.137-0.445-0.342-0.787-0.615-1.025c-0.273-0.237-0.631-0.356-1.074-0.356
		c-0.67,0-1.206,0.269-1.606,0.806s-0.636,1.304-0.708,2.3H36.577z"/>
	<path d="M42.498,223.819c0,0.561,0.026,0.949,0.078,1.167c0.052,0.219,0.151,0.385,0.298,0.498
		c0.146,0.114,0.386,0.214,0.718,0.298v0.479h-3.877v-0.479c0.326-0.084,0.552-0.172,0.679-0.264c0.127-0.091,0.218-0.2,0.273-0.327
		s0.094-0.299,0.117-0.518c0.023-0.218,0.034-0.503,0.034-0.854v-8.174c0-0.625-0.005-1.061-0.015-1.309
		c-0.01-0.247-0.036-0.457-0.078-0.63c-0.042-0.172-0.101-0.308-0.176-0.405s-0.176-0.176-0.303-0.234s-0.356-0.117-0.688-0.176
		v-0.508l2.354-0.098h0.586V223.819z"/>
	<path d="M49.289,226.417c-1.354,0-2.388-0.398-3.101-1.196c-0.713-0.797-1.069-1.978-1.069-3.54c0-1.074,0.187-1.982,0.562-2.725
		s0.887-1.294,1.538-1.655s1.393-0.542,2.227-0.542c1.393,0,2.448,0.405,3.164,1.216s1.074,1.975,1.074,3.491
		c0,1.081-0.179,1.992-0.537,2.734s-0.866,1.298-1.523,1.665C50.965,226.233,50.187,226.417,49.289,226.417z M46.964,221.476
		c0,1.342,0.213,2.372,0.64,3.091c0.426,0.72,1.037,1.079,1.831,1.079c0.436,0,0.807-0.105,1.113-0.317
		c0.306-0.211,0.555-0.496,0.747-0.854c0.192-0.357,0.331-0.772,0.415-1.245c0.084-0.472,0.127-0.965,0.127-1.479
		c0-0.957-0.106-1.751-0.317-2.383c-0.211-0.631-0.5-1.095-0.864-1.392c-0.365-0.296-0.781-0.444-1.25-0.444
		c-0.788,0-1.392,0.342-1.812,1.025S46.964,220.213,46.964,221.476z"/>
	<path d="M62.651,217.149v2.041h-1.24c-0.111-0.423-0.248-0.757-0.41-1.001s-0.352-0.415-0.566-0.513s-0.482-0.146-0.801-0.146
		c-0.456,0-0.859,0.146-1.211,0.439s-0.63,0.739-0.835,1.338c-0.205,0.6-0.308,1.332-0.308,2.197c0,0.554,0.039,1.06,0.117,1.519
		s0.211,0.852,0.4,1.177c0.189,0.326,0.439,0.58,0.752,0.762c0.312,0.183,0.7,0.273,1.162,0.273c0.449,0,0.868-0.088,1.255-0.264
		s0.79-0.484,1.206-0.928l0.557,0.645c-0.332,0.365-0.625,0.646-0.879,0.845c-0.254,0.199-0.526,0.365-0.815,0.498
		c-0.29,0.134-0.576,0.231-0.859,0.293c-0.283,0.062-0.591,0.093-0.923,0.093c-1.23,0-2.171-0.408-2.822-1.226
		c-0.651-0.816-0.977-1.997-0.977-3.54c0-0.963,0.182-1.817,0.547-2.563c0.365-0.745,0.875-1.319,1.533-1.724
		c0.658-0.403,1.416-0.605,2.275-0.605c0.534,0,1.027,0.031,1.479,0.093C61.741,216.914,62.195,217.013,62.651,217.149z"/>
	<path d="M63.914,225.782c0.254-0.078,0.435-0.146,0.542-0.205s0.199-0.14,0.273-0.244c0.075-0.104,0.133-0.264,0.176-0.479
		s0.063-0.55,0.063-1.006v-4.258c0-0.416-0.006-0.752-0.02-1.006s-0.059-0.457-0.137-0.61c-0.078-0.152-0.197-0.267-0.356-0.342
		c-0.16-0.074-0.386-0.138-0.679-0.19v-0.518l2.275-0.088h0.596v6.982c0,0.561,0.026,0.949,0.078,1.167
		c0.052,0.219,0.151,0.385,0.298,0.498c0.146,0.114,0.386,0.214,0.718,0.298v0.479h-3.828V225.782z M66.707,213.097v1.895H64.91
		v-1.895H66.707z"/>
	<path d="M75.782,215.646c0-0.625-0.005-1.061-0.015-1.309c-0.01-0.247-0.036-0.457-0.078-0.63
		c-0.042-0.172-0.101-0.308-0.176-0.405s-0.176-0.176-0.303-0.234s-0.356-0.117-0.688-0.176v-0.508l2.363-0.098h0.576v11.309
		c0,0.508,0.01,0.871,0.029,1.089c0.02,0.219,0.062,0.393,0.127,0.522c0.065,0.131,0.167,0.236,0.308,0.317
		c0.14,0.082,0.386,0.158,0.737,0.229v0.508l-2.305,0.098h-0.586l0.117-1.602l-0.146-0.039c-0.41,0.437-0.767,0.764-1.069,0.981
		c-0.303,0.219-0.625,0.393-0.967,0.522c-0.342,0.131-0.708,0.195-1.099,0.195c-1.068,0-1.891-0.405-2.471-1.216
		s-0.869-1.98-0.869-3.511c0-1.067,0.189-1.974,0.566-2.72c0.377-0.745,0.887-1.3,1.528-1.665c0.641-0.364,1.362-0.547,2.163-0.547
		c0.43,0,0.82,0.034,1.172,0.103s0.713,0.181,1.084,0.337V215.646z M75.782,220.47c0-0.508-0.023-0.914-0.068-1.221
		c-0.045-0.306-0.122-0.562-0.229-0.771c-0.107-0.208-0.252-0.384-0.435-0.527c-0.182-0.143-0.382-0.247-0.601-0.312
		c-0.218-0.064-0.48-0.098-0.786-0.098c-0.833,0-1.468,0.334-1.904,1.001c-0.436,0.668-0.654,1.626-0.654,2.876
		s0.179,2.201,0.537,2.852c0.358,0.651,0.902,0.977,1.631,0.977c0.287,0,0.524-0.024,0.713-0.073s0.375-0.127,0.557-0.234
		s0.368-0.255,0.557-0.444c0.189-0.188,0.327-0.361,0.415-0.518s0.155-0.335,0.2-0.537c0.045-0.201,0.068-0.462,0.068-0.781V220.47z
		"/>
	<path d="M85.649,224.864l-0.146-0.039c-0.566,0.58-1.099,0.99-1.597,1.23c-0.498,0.241-1.027,0.361-1.587,0.361
		c-0.495,0-0.931-0.096-1.309-0.288c-0.377-0.191-0.667-0.462-0.869-0.811c-0.202-0.348-0.303-0.75-0.303-1.206
		c0-0.95,0.47-1.685,1.411-2.202s2.352-0.818,4.233-0.903v-0.635c0-0.677-0.065-1.211-0.195-1.602s-0.335-0.677-0.615-0.859
		c-0.28-0.182-0.654-0.273-1.123-0.273c-0.508,0-0.917,0.134-1.226,0.4c-0.309,0.268-0.542,0.668-0.698,1.201h-1.279v-1.27
		c0.625-0.325,1.146-0.564,1.562-0.718c0.417-0.152,0.833-0.273,1.25-0.361s0.84-0.132,1.27-0.132c0.645,0,1.162,0.103,1.553,0.308
		s0.684,0.52,0.879,0.942c0.195,0.424,0.293,1.062,0.293,1.914v3.398c0,0.482,0.003,0.822,0.01,1.021
		c0.006,0.199,0.026,0.383,0.059,0.552c0.033,0.17,0.082,0.305,0.146,0.405c0.065,0.102,0.161,0.188,0.288,0.259
		c0.127,0.072,0.333,0.146,0.62,0.225v0.479H85.6L85.649,224.864z M85.483,221.808c-1.322,0.014-2.311,0.189-2.969,0.527
		c-0.658,0.339-0.986,0.85-0.986,1.533c0,0.371,0.075,0.664,0.225,0.879s0.338,0.363,0.566,0.444
		c0.228,0.082,0.498,0.122,0.811,0.122c0.443,0,0.845-0.107,1.206-0.322s0.643-0.488,0.845-0.82s0.303-0.66,0.303-0.986V221.808z"/>
	<path d="M96.082,215.646c0-0.625-0.005-1.061-0.015-1.309c-0.01-0.247-0.036-0.457-0.078-0.63
		c-0.042-0.172-0.101-0.308-0.176-0.405s-0.176-0.176-0.303-0.234s-0.356-0.117-0.688-0.176v-0.508l2.363-0.098h0.576v11.309
		c0,0.508,0.01,0.871,0.029,1.089c0.02,0.219,0.062,0.393,0.127,0.522c0.065,0.131,0.167,0.236,0.308,0.317
		c0.14,0.082,0.386,0.158,0.737,0.229v0.508l-2.305,0.098h-0.586l0.117-1.602l-0.146-0.039c-0.41,0.437-0.767,0.764-1.069,0.981
		c-0.303,0.219-0.625,0.393-0.967,0.522c-0.342,0.131-0.708,0.195-1.099,0.195c-1.068,0-1.891-0.405-2.471-1.216
		s-0.869-1.98-0.869-3.511c0-1.067,0.189-1.974,0.566-2.72c0.377-0.745,0.887-1.3,1.528-1.665c0.641-0.364,1.362-0.547,2.163-0.547
		c0.43,0,0.82,0.034,1.172,0.103s0.713,0.181,1.084,0.337V215.646z M96.082,220.47c0-0.508-0.023-0.914-0.068-1.221
		c-0.045-0.306-0.122-0.562-0.229-0.771c-0.107-0.208-0.252-0.384-0.435-0.527c-0.182-0.143-0.382-0.247-0.601-0.312
		c-0.218-0.064-0.48-0.098-0.786-0.098c-0.833,0-1.468,0.334-1.904,1.001c-0.436,0.668-0.654,1.626-0.654,2.876
		s0.179,2.201,0.537,2.852c0.358,0.651,0.902,0.977,1.631,0.977c0.287,0,0.524-0.024,0.713-0.073s0.375-0.127,0.557-0.234
		s0.368-0.255,0.557-0.444c0.189-0.188,0.327-0.361,0.415-0.518s0.155-0.335,0.2-0.537c0.045-0.201,0.068-0.462,0.068-0.781V220.47z
		"/>
	<path d="M107.075,225.968v2.061c0,0.424,0.015,0.739,0.044,0.947c0.029,0.209,0.082,0.373,0.156,0.493
		c0.075,0.121,0.182,0.22,0.322,0.298s0.366,0.15,0.679,0.215v0.479h-3.984v-0.479c0.234-0.064,0.425-0.132,0.571-0.2
		s0.259-0.169,0.337-0.303c0.078-0.133,0.13-0.313,0.156-0.542c0.026-0.228,0.039-0.53,0.039-0.908v-8.379
		c0-0.469-0.006-0.802-0.02-1.001c-0.013-0.198-0.039-0.362-0.078-0.493c-0.039-0.13-0.096-0.237-0.171-0.322
		c-0.075-0.084-0.176-0.156-0.303-0.215s-0.337-0.117-0.63-0.176v-0.518l2.295-0.088h0.596l-0.127,1.592l0.146,0.039
		c0.404-0.41,0.723-0.708,0.957-0.894s0.477-0.34,0.728-0.464c0.25-0.123,0.492-0.211,0.723-0.264
		c0.231-0.052,0.477-0.078,0.737-0.078c1.074,0,1.899,0.402,2.476,1.206c0.576,0.805,0.864,1.981,0.864,3.53
		c0,1.074-0.163,1.978-0.488,2.71s-0.799,1.283-1.421,1.65c-0.622,0.368-1.362,0.552-2.222,0.552c-0.482,0-0.918-0.04-1.309-0.122
		C107.758,226.214,107.4,226.104,107.075,225.968z M107.075,222.745c0,0.625,0.039,1.107,0.117,1.445
		c0.078,0.339,0.216,0.614,0.415,0.825c0.199,0.212,0.433,0.37,0.703,0.474c0.27,0.104,0.626,0.156,1.069,0.156
		c0.788,0,1.38-0.327,1.777-0.981s0.596-1.619,0.596-2.896c0-2.552-0.746-3.828-2.236-3.828c-0.365,0-0.679,0.058-0.942,0.171
		c-0.264,0.114-0.526,0.298-0.786,0.552s-0.444,0.5-0.552,0.737c-0.107,0.238-0.161,0.493-0.161,0.767V222.745z"/>
	<path d="M123.074,224.601c-0.417,0.437-0.799,0.778-1.147,1.025c-0.348,0.248-0.731,0.441-1.147,0.581
		c-0.417,0.141-0.875,0.21-1.377,0.21c-1.341,0-2.354-0.401-3.037-1.206c-0.684-0.804-1.025-1.99-1.025-3.56
		c0-0.97,0.174-1.826,0.522-2.568s0.845-1.314,1.489-1.719c0.645-0.403,1.387-0.605,2.227-0.605c0.658,0,1.217,0.104,1.68,0.312
		c0.462,0.209,0.832,0.493,1.108,0.854s0.492,0.817,0.645,1.367c0.153,0.551,0.239,1.269,0.259,2.153h-6.152v0.176
		c0,0.769,0.086,1.415,0.259,1.938c0.172,0.524,0.456,0.935,0.85,1.23c0.394,0.297,0.907,0.444,1.538,0.444
		c0.534,0,1.014-0.099,1.44-0.298c0.426-0.198,0.851-0.522,1.274-0.972L123.074,224.601z M121.433,220.636
		c-0.039-0.703-0.127-1.277-0.264-1.724c-0.137-0.445-0.342-0.787-0.615-1.025c-0.273-0.237-0.631-0.356-1.074-0.356
		c-0.67,0-1.206,0.269-1.606,0.806s-0.636,1.304-0.708,2.3H121.433z M121.833,212.179v0.488l-3.096,3.145l-0.635-0.508l2.021-3.125
		H121.833z"/>
	<path d="M134.259,226.261h-3.848v-0.479c0.254-0.078,0.436-0.146,0.547-0.205s0.204-0.14,0.278-0.244
		c0.075-0.104,0.133-0.265,0.176-0.483c0.042-0.218,0.063-0.548,0.063-0.991V221.3c0-0.455-0.013-0.869-0.039-1.24
		s-0.07-0.675-0.132-0.913c-0.062-0.237-0.137-0.423-0.225-0.557c-0.088-0.133-0.192-0.247-0.312-0.342
		c-0.121-0.094-0.259-0.169-0.415-0.225c-0.156-0.055-0.361-0.083-0.615-0.083s-0.495,0.051-0.723,0.151
		c-0.228,0.102-0.479,0.275-0.752,0.522c-0.273,0.248-0.472,0.492-0.596,0.732c-0.124,0.241-0.186,0.518-0.186,0.83v3.643
		c0,0.561,0.026,0.949,0.078,1.167c0.052,0.219,0.151,0.385,0.298,0.498c0.146,0.114,0.386,0.214,0.718,0.298v0.479h-3.828v-0.479
		c0.254-0.078,0.435-0.146,0.542-0.205s0.199-0.14,0.273-0.244c0.075-0.104,0.133-0.264,0.176-0.479s0.063-0.55,0.063-1.006v-4.258
		c0-0.416-0.006-0.752-0.02-1.006s-0.059-0.457-0.137-0.61c-0.078-0.152-0.197-0.267-0.356-0.342
		c-0.16-0.074-0.386-0.138-0.679-0.19v-0.518l2.285-0.088h0.596l-0.107,1.592l0.137,0.039c0.482-0.488,0.871-0.836,1.167-1.045
		c0.296-0.208,0.596-0.369,0.898-0.483c0.303-0.113,0.624-0.171,0.962-0.171c0.352,0,0.666,0.041,0.942,0.122
		c0.277,0.082,0.521,0.207,0.732,0.376c0.211,0.17,0.386,0.38,0.522,0.63c0.137,0.251,0.239,0.552,0.308,0.903
		s0.103,0.798,0.103,1.338v3.682c0,0.449,0.013,0.775,0.039,0.977c0.026,0.202,0.072,0.358,0.137,0.469
		c0.065,0.111,0.16,0.204,0.283,0.278c0.124,0.075,0.338,0.155,0.645,0.239V226.261z"/>
	<path d="M142.221,215.646c0-0.625-0.005-1.061-0.015-1.309c-0.01-0.247-0.036-0.457-0.078-0.63
		c-0.042-0.172-0.101-0.308-0.176-0.405s-0.176-0.176-0.303-0.234s-0.356-0.117-0.688-0.176v-0.508l2.363-0.098h0.576v11.309
		c0,0.508,0.01,0.871,0.029,1.089c0.02,0.219,0.062,0.393,0.127,0.522c0.065,0.131,0.167,0.236,0.308,0.317
		c0.14,0.082,0.386,0.158,0.737,0.229v0.508l-2.305,0.098h-0.586l0.117-1.602l-0.146-0.039c-0.41,0.437-0.767,0.764-1.069,0.981
		c-0.303,0.219-0.625,0.393-0.967,0.522c-0.342,0.131-0.708,0.195-1.099,0.195c-1.068,0-1.891-0.405-2.471-1.216
		s-0.869-1.98-0.869-3.511c0-1.067,0.189-1.974,0.566-2.72c0.377-0.745,0.887-1.3,1.528-1.665c0.641-0.364,1.362-0.547,2.163-0.547
		c0.43,0,0.82,0.034,1.172,0.103s0.713,0.181,1.084,0.337V215.646z M142.221,220.47c0-0.508-0.023-0.914-0.068-1.221
		c-0.045-0.306-0.122-0.562-0.229-0.771c-0.107-0.208-0.252-0.384-0.435-0.527c-0.182-0.143-0.382-0.247-0.601-0.312
		c-0.218-0.064-0.48-0.098-0.786-0.098c-0.833,0-1.468,0.334-1.904,1.001c-0.436,0.668-0.654,1.626-0.654,2.876
		s0.179,2.201,0.537,2.852c0.358,0.651,0.902,0.977,1.631,0.977c0.287,0,0.524-0.024,0.713-0.073s0.375-0.127,0.557-0.234
		s0.368-0.255,0.557-0.444c0.189-0.188,0.327-0.361,0.415-0.518s0.155-0.335,0.2-0.537c0.045-0.201,0.068-0.462,0.068-0.781V220.47z
		"/>
	<path d="M146.208,216.925h2.783v4.971c0,0.762,0.029,1.342,0.088,1.738c0.059,0.397,0.146,0.697,0.264,0.898
		c0.117,0.202,0.283,0.371,0.498,0.508s0.511,0.205,0.889,0.205c0.248,0,0.485-0.049,0.713-0.146s0.482-0.269,0.762-0.513
		s0.48-0.486,0.601-0.728c0.121-0.24,0.181-0.521,0.181-0.84v-3.662c0-0.371-0.01-0.65-0.029-0.84
		c-0.02-0.188-0.052-0.34-0.098-0.454c-0.045-0.113-0.099-0.206-0.161-0.278c-0.062-0.071-0.15-0.137-0.264-0.195
		s-0.298-0.12-0.552-0.186v-0.479h2.783v6.67c0,0.502,0.01,0.863,0.029,1.084c0.02,0.222,0.062,0.397,0.127,0.527
		c0.065,0.131,0.166,0.236,0.303,0.317c0.137,0.082,0.381,0.158,0.732,0.229v0.508l-2.236,0.098h-0.596l0.059-1.602l-0.146-0.039
		c-0.541,0.586-1.056,1.016-1.548,1.289s-0.985,0.41-1.479,0.41c-0.592,0-1.081-0.117-1.465-0.352s-0.67-0.584-0.859-1.05
		c-0.189-0.465-0.283-1.121-0.283-1.968v-3.691c0-0.547-0.021-0.923-0.063-1.128s-0.124-0.367-0.244-0.488
		c-0.121-0.12-0.382-0.232-0.786-0.337V216.925z"/>
	<path d="M159.815,223.819c0,0.561,0.026,0.949,0.078,1.167c0.052,0.219,0.151,0.385,0.298,0.498
		c0.146,0.114,0.386,0.214,0.718,0.298v0.479h-3.877v-0.479c0.326-0.084,0.552-0.172,0.679-0.264c0.127-0.091,0.218-0.2,0.273-0.327
		s0.094-0.299,0.117-0.518c0.023-0.218,0.034-0.503,0.034-0.854v-8.174c0-0.625-0.005-1.061-0.015-1.309
		c-0.01-0.247-0.036-0.457-0.078-0.63c-0.042-0.172-0.101-0.308-0.176-0.405s-0.176-0.176-0.303-0.234s-0.356-0.117-0.688-0.176
		v-0.508l2.354-0.098h0.586V223.819z"/>
	<path d="M166.605,226.417c-1.354,0-2.388-0.398-3.101-1.196c-0.713-0.797-1.069-1.978-1.069-3.54c0-1.074,0.187-1.982,0.562-2.725
		s0.887-1.294,1.538-1.655s1.393-0.542,2.227-0.542c1.393,0,2.448,0.405,3.164,1.216s1.074,1.975,1.074,3.491
		c0,1.081-0.179,1.992-0.537,2.734s-0.866,1.298-1.523,1.665C168.282,226.233,167.504,226.417,166.605,226.417z M164.281,221.476
		c0,1.342,0.213,2.372,0.64,3.091c0.426,0.72,1.037,1.079,1.831,1.079c0.436,0,0.807-0.105,1.113-0.317
		c0.306-0.211,0.555-0.496,0.747-0.854c0.192-0.357,0.331-0.772,0.415-1.245c0.084-0.472,0.127-0.965,0.127-1.479
		c0-0.957-0.106-1.751-0.317-2.383c-0.211-0.631-0.5-1.095-0.864-1.392c-0.365-0.296-0.781-0.444-1.25-0.444
		c-0.788,0-1.392,0.342-1.812,1.025S164.281,220.213,164.281,221.476z"/>
</g>
<g>
	<path d="M253.793,48.705l-2.559,7.344h-1.357l-2.344-7.246c-0.15-0.469-0.275-0.799-0.376-0.991s-0.208-0.335-0.322-0.43
		s-0.298-0.174-0.552-0.239v-0.479h3.857v0.479c-0.377,0.078-0.633,0.181-0.767,0.308s-0.2,0.317-0.2,0.571
		c0,0.176,0.02,0.36,0.059,0.552s0.098,0.415,0.176,0.669l1.533,4.98l2.51-7.559h1.377l2.129,7.559l1.719-4.775
		c0.091-0.248,0.166-0.483,0.225-0.708s0.088-0.435,0.088-0.63c0-0.273-0.073-0.485-0.22-0.635s-0.396-0.26-0.747-0.332v-0.479
		h3.408v0.479c-0.182,0.045-0.319,0.093-0.41,0.142s-0.181,0.121-0.269,0.215s-0.186,0.241-0.293,0.439s-0.243,0.506-0.405,0.923
		l-2.822,7.188h-1.318L253.793,48.705z"/>
	<path d="M265.166,61.174c0,0.22,0.012,0.386,0.037,0.498c0.025,0.112,0.068,0.203,0.131,0.273c0.062,0.07,0.152,0.125,0.271,0.165
		c0.117,0.04,0.266,0.07,0.444,0.091c0.178,0.021,0.414,0.035,0.706,0.043v0.416h-4.208v-0.416c0.421-0.019,0.722-0.044,0.902-0.077
		c0.18-0.032,0.318-0.081,0.413-0.145c0.095-0.064,0.164-0.156,0.208-0.273c0.043-0.117,0.065-0.309,0.065-0.575v-4.618
		c0-0.151-0.026-0.263-0.08-0.333c-0.053-0.07-0.131-0.105-0.233-0.105c-0.122,0-0.294,0.062-0.518,0.188
		c-0.224,0.125-0.501,0.298-0.831,0.518l-0.251-0.438l2.665-1.588h0.313c-0.023,0.364-0.034,0.869-0.034,1.514V61.174z"/>
</g>
<g>
	<path d="M236.793,92.458l-2.559,7.344h-1.357l-2.344-7.246c-0.15-0.469-0.275-0.799-0.376-0.991s-0.208-0.335-0.322-0.43
		s-0.298-0.174-0.552-0.239v-0.479h3.857v0.479c-0.377,0.078-0.633,0.181-0.767,0.308s-0.2,0.317-0.2,0.571
		c0,0.176,0.02,0.36,0.059,0.552s0.098,0.415,0.176,0.669l1.533,4.98l2.51-7.559h1.377l2.129,7.559l1.719-4.775
		c0.091-0.248,0.166-0.483,0.225-0.708s0.088-0.435,0.088-0.63c0-0.273-0.073-0.485-0.22-0.635s-0.396-0.26-0.747-0.332v-0.479
		h3.408v0.479c-0.182,0.045-0.319,0.093-0.41,0.142s-0.181,0.121-0.269,0.215s-0.186,0.241-0.293,0.439s-0.243,0.506-0.405,0.923
		l-2.822,7.188h-1.318L236.793,92.458z"/>
	<path d="M248.205,105.502c0.186,0,0.336-0.011,0.45-0.034c0.114-0.022,0.205-0.061,0.273-0.114s0.123-0.122,0.162-0.208
		c0.04-0.085,0.09-0.217,0.151-0.396h0.484l-0.097,1.663h-4.686v-0.273c0.163-0.398,0.383-0.806,0.661-1.224
		c0.277-0.417,0.67-0.909,1.178-1.475c0.44-0.485,0.757-0.854,0.951-1.104c0.212-0.273,0.371-0.509,0.475-0.708
		s0.179-0.387,0.225-0.564c0.045-0.176,0.068-0.354,0.068-0.532c0-0.285-0.046-0.536-0.137-0.754
		c-0.091-0.218-0.23-0.39-0.418-0.515c-0.188-0.125-0.424-0.188-0.709-0.188c-0.71,0-1.188,0.395-1.435,1.185h-0.689v-1.093
		c0.459-0.216,0.889-0.373,1.29-0.47s0.76-0.145,1.079-0.145c0.706,0,1.239,0.154,1.6,0.464c0.36,0.309,0.541,0.758,0.541,1.346
		c0,0.202-0.02,0.386-0.06,0.555c-0.04,0.169-0.103,0.336-0.188,0.501c-0.085,0.165-0.2,0.343-0.344,0.533
		c-0.144,0.189-0.304,0.382-0.478,0.578c-0.175,0.195-0.477,0.521-0.905,0.977c-0.721,0.763-1.251,1.429-1.588,1.998H248.205z"/>
</g>
<g>
	<path d="M237.793,133.966l-2.559,7.344h-1.357l-2.344-7.246c-0.15-0.469-0.275-0.799-0.376-0.991
		c-0.101-0.191-0.208-0.335-0.322-0.43c-0.114-0.094-0.298-0.174-0.552-0.239v-0.479h3.857v0.479
		c-0.377,0.078-0.633,0.181-0.767,0.308s-0.2,0.317-0.2,0.571c0,0.176,0.02,0.36,0.059,0.552c0.039,0.192,0.098,0.415,0.176,0.669
		l1.533,4.98l2.51-7.559h1.377l2.129,7.559l1.719-4.775c0.091-0.247,0.166-0.483,0.225-0.708s0.088-0.435,0.088-0.63
		c0-0.273-0.073-0.484-0.22-0.635c-0.146-0.149-0.396-0.26-0.747-0.332v-0.479h3.408v0.479c-0.182,0.046-0.319,0.093-0.41,0.142
		s-0.181,0.121-0.269,0.215c-0.088,0.095-0.186,0.241-0.293,0.439c-0.107,0.199-0.243,0.507-0.405,0.923l-2.822,7.188h-1.318
		L237.793,133.966z"/>
	<path d="M246.114,141.761v-1.082c0.44-0.208,0.852-0.364,1.235-0.467s0.753-0.153,1.11-0.153c0.429,0,0.805,0.066,1.127,0.199
		c0.322,0.133,0.569,0.323,0.74,0.572c0.171,0.249,0.256,0.546,0.256,0.891c0,0.323-0.064,0.606-0.193,0.852
		c-0.129,0.245-0.311,0.458-0.544,0.641c-0.233,0.182-0.536,0.36-0.908,0.535v0.051c0.231,0.042,0.455,0.113,0.669,0.214
		s0.405,0.23,0.572,0.39c0.167,0.16,0.301,0.351,0.401,0.572c0.101,0.223,0.151,0.476,0.151,0.761c0,0.439-0.096,0.831-0.288,1.173
		c-0.191,0.341-0.485,0.61-0.879,0.808c-0.395,0.198-0.875,0.297-1.44,0.297c-0.327,0-0.679-0.037-1.056-0.111
		c-0.378-0.074-0.724-0.172-1.039-0.293v-1.207h0.683c0.133,0.395,0.309,0.681,0.527,0.859s0.515,0.268,0.891,0.268
		c0.493,0,0.866-0.135,1.119-0.404s0.378-0.668,0.378-1.195c0-0.555-0.167-0.978-0.501-1.27c-0.334-0.293-0.824-0.438-1.469-0.438
		h-0.513v-0.501c0.513-0.03,0.944-0.129,1.295-0.296s0.612-0.382,0.783-0.644s0.256-0.557,0.256-0.883
		c0-0.421-0.112-0.746-0.336-0.974s-0.55-0.342-0.979-0.342c-0.357,0-0.647,0.097-0.871,0.291c-0.224,0.193-0.389,0.489-0.496,0.888
		H246.114z"/>
</g>
<g>
	<path d="M253.793,173.705l-2.559,7.344h-1.357l-2.344-7.246c-0.15-0.469-0.275-0.799-0.376-0.991s-0.208-0.335-0.322-0.43
		s-0.298-0.175-0.552-0.239v-0.479h3.857v0.479c-0.377,0.078-0.633,0.181-0.767,0.308s-0.2,0.317-0.2,0.571
		c0,0.176,0.02,0.359,0.059,0.552s0.098,0.415,0.176,0.669l1.533,4.98l2.51-7.559h1.377l2.129,7.559l1.719-4.775
		c0.091-0.248,0.166-0.483,0.225-0.708s0.088-0.435,0.088-0.63c0-0.273-0.073-0.484-0.22-0.635s-0.396-0.26-0.747-0.332v-0.479
		h3.408v0.479c-0.182,0.045-0.319,0.093-0.41,0.142s-0.181,0.12-0.269,0.215s-0.186,0.241-0.293,0.439s-0.243,0.507-0.405,0.923
		l-2.822,7.188h-1.318L253.793,173.705z"/>
	<path d="M264.146,187.381c0.235-0.061,0.393-0.128,0.472-0.201c0.08-0.074,0.132-0.18,0.157-0.316
		c0.024-0.137,0.037-0.346,0.037-0.627v-0.934h-3.166v-0.427l3.331-5.027h0.814v4.902h0.12c0.22,0,0.378-0.017,0.473-0.048
		c0.095-0.033,0.174-0.09,0.236-0.172c0.062-0.081,0.121-0.215,0.173-0.4h0.433l-0.068,1.172h-1.367v0.934
		c0,0.255,0.009,0.441,0.026,0.559s0.045,0.211,0.085,0.279c0.04,0.068,0.099,0.125,0.176,0.17c0.078,0.046,0.204,0.092,0.379,0.137
		v0.279h-2.312V187.381z M262.586,184.751h2.226v-1.418c0-0.356,0.005-0.756,0.017-1.198c0.011-0.442,0.024-0.775,0.04-0.999h-0.057
		l-2.226,3.535V184.751z"/>
</g>
<g>
	<path d="M594.49,122.214v2.705h-0.967c-0.156-0.566-0.355-1.017-0.596-1.353c-0.241-0.335-0.521-0.575-0.84-0.718
		c-0.319-0.143-0.703-0.215-1.152-0.215c-0.671,0-1.269,0.223-1.793,0.669c-0.523,0.446-0.936,1.117-1.234,2.012
		c-0.3,0.895-0.449,1.978-0.449,3.247c0,1.276,0.123,2.365,0.371,3.267c0.247,0.902,0.611,1.582,1.094,2.041
		c0.481,0.459,1.074,0.688,1.777,0.688c0.533,0,0.97-0.076,1.309-0.229c0.338-0.152,0.623-0.396,0.854-0.728
		c0.231-0.332,0.451-0.82,0.66-1.465h0.967v2.793c-0.612,0.163-1.239,0.285-1.881,0.366c-0.641,0.082-1.346,0.122-2.113,0.122
		c-1.654,0-2.904-0.56-3.75-1.68c-0.847-1.119-1.27-2.789-1.27-5.01c0-1.393,0.219-2.613,0.658-3.662s1.086-1.859,1.939-2.432
		c0.853-0.573,1.871-0.859,3.057-0.859c0.592,0,1.139,0.031,1.641,0.093C593.272,121.93,593.846,122.045,594.49,122.214z"/>
	<path d="M600.479,135.417c-1.354,0-2.388-0.398-3.101-1.196c-0.713-0.797-1.069-1.978-1.069-3.54c0-1.074,0.187-1.982,0.562-2.724
		c0.375-0.742,0.887-1.294,1.538-1.655s1.394-0.542,2.227-0.542c1.394,0,2.448,0.405,3.164,1.216s1.074,1.974,1.074,3.491
		c0,1.081-0.179,1.992-0.537,2.734s-0.866,1.298-1.523,1.665C602.156,135.233,601.378,135.417,600.479,135.417z M598.155,130.476
		c0,1.342,0.214,2.372,0.64,3.091c0.426,0.72,1.037,1.079,1.831,1.079c0.437,0,0.808-0.105,1.113-0.317
		c0.306-0.211,0.556-0.496,0.747-0.854c0.191-0.357,0.33-0.772,0.415-1.245c0.085-0.472,0.127-0.965,0.127-1.479
		c0-0.957-0.106-1.751-0.317-2.383c-0.211-0.631-0.5-1.095-0.864-1.391s-0.781-0.444-1.25-0.444c-0.788,0-1.392,0.342-1.812,1.025
		C598.365,128.239,598.155,129.213,598.155,130.476z"/>
	<path d="M616.078,135.261h-3.848v-0.479c0.254-0.078,0.436-0.146,0.547-0.205s0.203-0.14,0.278-0.244
		c0.075-0.104,0.134-0.265,0.176-0.483c0.042-0.218,0.063-0.548,0.063-0.991V130.3c0-0.455-0.014-0.869-0.039-1.24
		s-0.07-0.675-0.132-0.913c-0.062-0.237-0.137-0.423-0.225-0.556s-0.192-0.248-0.312-0.342s-0.259-0.169-0.415-0.225
		s-0.361-0.083-0.615-0.083s-0.494,0.05-0.723,0.151s-0.479,0.275-0.752,0.522s-0.473,0.492-0.596,0.732
		c-0.123,0.241-0.186,0.518-0.186,0.83v3.643c0,0.561,0.025,0.949,0.078,1.167c0.053,0.219,0.151,0.385,0.298,0.498
		c0.146,0.114,0.386,0.214,0.718,0.298v0.479h-3.828v-0.479c0.254-0.078,0.435-0.146,0.542-0.205s0.198-0.14,0.273-0.244
		c0.075-0.104,0.134-0.264,0.176-0.479s0.063-0.55,0.063-1.006v-4.258c0-0.416-0.006-0.751-0.02-1.005s-0.059-0.458-0.137-0.61
		s-0.197-0.267-0.356-0.342s-0.386-0.138-0.679-0.19v-0.518l2.285-0.088h0.596l-0.107,1.592l0.137,0.039
		c0.482-0.488,0.871-0.836,1.167-1.045s0.596-0.37,0.898-0.483s0.624-0.171,0.962-0.171c0.352,0,0.666,0.041,0.942,0.122
		s0.521,0.207,0.732,0.376s0.386,0.379,0.522,0.63s0.239,0.552,0.308,0.903c0.068,0.351,0.103,0.797,0.103,1.337v3.682
		c0,0.449,0.014,0.775,0.039,0.977c0.025,0.202,0.072,0.358,0.137,0.469c0.064,0.111,0.16,0.204,0.283,0.278
		c0.123,0.075,0.338,0.155,0.645,0.239V135.261z"/>
	<path d="M616.863,126.414c0.325-0.052,0.589-0.143,0.791-0.273c0.201-0.13,0.359-0.298,0.473-0.503
		c0.114-0.205,0.204-0.462,0.27-0.771c0.064-0.309,0.133-0.76,0.205-1.353h1.387v2.412h3.154v0.986h-3.154v4.345
		c0,0.632,0.025,1.135,0.078,1.509c0.052,0.375,0.149,0.668,0.293,0.879c0.143,0.212,0.306,0.363,0.488,0.454
		c0.182,0.092,0.416,0.137,0.703,0.137c0.26,0,0.504-0.054,0.732-0.161c0.228-0.107,0.452-0.262,0.674-0.464l0.439,0.527
		c-0.463,0.449-0.9,0.775-1.314,0.977c-0.413,0.202-0.841,0.303-1.283,0.303c-0.84,0-1.465-0.249-1.875-0.747
		s-0.615-1.277-0.615-2.339v-5.419h-1.445V126.414z"/>
	<path d="M626.572,127.546l0.137,0.029c0.358-0.436,0.69-0.78,0.996-1.03c0.307-0.25,0.637-0.444,0.992-0.581
		c0.354-0.137,0.756-0.205,1.205-0.205c0.378,0,0.72,0.02,1.025,0.059v2.246h-1.104c-0.156-0.351-0.322-0.606-0.498-0.766
		s-0.416-0.239-0.723-0.239c-0.234,0-0.467,0.068-0.697,0.205c-0.231,0.137-0.455,0.335-0.67,0.596s-0.362,0.504-0.443,0.732
		c-0.082,0.229-0.123,0.498-0.123,0.811v3.418c0,0.593,0.036,1.001,0.107,1.226c0.072,0.225,0.191,0.39,0.357,0.493
		c0.166,0.104,0.414,0.186,0.746,0.244v0.479h-3.936v-0.479c0.248-0.078,0.426-0.146,0.533-0.205s0.199-0.14,0.277-0.244
		c0.078-0.104,0.137-0.264,0.176-0.479s0.059-0.55,0.059-1.006v-4.258c0-0.416-0.006-0.751-0.02-1.005
		c-0.013-0.254-0.059-0.458-0.137-0.61s-0.196-0.267-0.355-0.342c-0.16-0.075-0.387-0.138-0.68-0.19v-0.508l2.285-0.098h0.596
		L626.572,127.546z"/>
	<path d="M635.883,135.417c-1.354,0-2.388-0.398-3.101-1.196c-0.713-0.797-1.069-1.978-1.069-3.54c0-1.074,0.188-1.982,0.562-2.724
		c0.374-0.742,0.888-1.294,1.538-1.655s1.393-0.542,2.227-0.542c1.393,0,2.447,0.405,3.164,1.216s1.074,1.974,1.074,3.491
		c0,1.081-0.18,1.992-0.537,2.734s-0.865,1.298-1.523,1.665C637.559,135.233,636.781,135.417,635.883,135.417z M633.559,130.476
		c0,1.342,0.213,2.372,0.64,3.091c0.427,0.72,1.036,1.079,1.831,1.079c0.436,0,0.807-0.105,1.113-0.317
		c0.307-0.211,0.555-0.496,0.747-0.854c0.192-0.357,0.331-0.772,0.415-1.245c0.084-0.472,0.127-0.965,0.127-1.479
		c0-0.957-0.105-1.751-0.317-2.383c-0.212-0.631-0.499-1.095-0.864-1.391s-0.781-0.444-1.25-0.444c-0.787,0-1.392,0.342-1.812,1.025
		C633.769,128.239,633.559,129.213,633.559,130.476z"/>
	<path d="M644.577,132.819c0,0.561,0.026,0.949,0.078,1.167c0.052,0.219,0.151,0.385,0.298,0.498
		c0.146,0.114,0.386,0.214,0.718,0.298v0.479h-3.877v-0.479c0.325-0.084,0.552-0.172,0.679-0.264c0.127-0.091,0.219-0.2,0.273-0.327
		s0.094-0.299,0.117-0.518c0.023-0.218,0.034-0.503,0.034-0.854v-8.173c0-0.625-0.005-1.061-0.015-1.309s-0.035-0.458-0.078-0.63
		s-0.102-0.308-0.176-0.405s-0.176-0.176-0.303-0.234s-0.356-0.117-0.688-0.176v-0.508l2.354-0.098h0.586V132.819z"/>
</g>
<g>
</g>
<g>
</g>
<g>
</g>
<g>
</g>
<g>
</g>
<g>
</g>
<g>
</g>
</svg>
