<?xml version="1.0" encoding="utf-8"?>
<!-- Generator: Adobe Illustrator 17.0.0, SVG Export Plug-In . SVG Version: 6.00 Build 0)  -->
<!DOCTYPE svg PUBLIC "-//W3C//DTD SVG 1.1//EN" "http://www.w3.org/Graphics/SVG/1.1/DTD/svg11.dtd">
<svg version="1.1" id="Capa_1" xmlns="http://www.w3.org/2000/svg" xmlns:xlink="http://www.w3.org/1999/xlink" x="0px" y="0px"
	 width="539.973px" height="181.491px" viewBox="0 0 539.973 181.491" enable-background="new 0 0 539.973 181.491"
	 xml:space="preserve">
<ellipse fill="none" stroke="#000000" stroke-width="2" stroke-miterlimit="10" cx="170.899" cy="89.904" rx="55" ry="33"/>
<g>
	<line x1="40.233" y1="41.238" x2="126.216" y2="70.675"/>
	<g>
		<line fill="none" stroke="#000000" stroke-width="2" stroke-miterlimit="10" x1="41.922" y1="41.816" x2="119.427" y2="68.35"/>
		<g>
			<circle cx="42.011" cy="41.847" r="1.88"/>
		</g>
		<g>
			<polygon points="116.432,72.595 126.216,70.675 119.662,63.161 			"/>
		</g>
	</g>
</g>
<g>
	<path d="M68.86,30.487l0.533,5.794c0.896-1.051,1.612-2.037,2.147-2.959c0.314-0.541,0.471-0.932,0.471-1.174
		c0-0.113-0.026-0.214-0.077-0.301c-0.021-0.046-0.102-0.115-0.243-0.205c-0.142-0.09-0.241-0.183-0.298-0.278
		s-0.085-0.197-0.085-0.305c0-0.16,0.06-0.295,0.178-0.406c0.119-0.11,0.271-0.166,0.456-0.166c0.211,0,0.39,0.079,0.537,0.236
		c0.147,0.157,0.22,0.367,0.22,0.629c0,0.268-0.039,0.518-0.116,0.75c-0.155,0.443-0.456,1.015-0.904,1.715
		c-0.546,0.839-1.108,1.618-1.688,2.337c-0.58,0.718-1.011,1.222-1.294,1.51h-0.286l-0.502-5.346l-3.19,5.346h-0.34
		c-0.036-2.199-0.146-3.935-0.332-5.207c-0.077-0.531-0.206-0.878-0.386-1.043c-0.129-0.119-0.325-0.178-0.587-0.178
		c-0.149,0-0.34,0.015-0.571,0.046v-0.278l2.217-0.518c0.309,0.86,0.51,2.181,0.603,3.963c0.031,0.675,0.057,1.1,0.078,1.275
		l3.175-5.238H68.86z"/>
	<path d="M76.635,36.514l-1.45,5.048c-0.084,0.297-0.126,0.512-0.126,0.644c0,0.111,0.038,0.196,0.115,0.254s0.256,0.099,0.538,0.12
		l-0.045,0.167h-2.319l0.063-0.167c0.246-0.006,0.408-0.025,0.486-0.059c0.126-0.054,0.221-0.126,0.284-0.216
		c0.099-0.138,0.2-0.386,0.302-0.743l1.045-3.625c0.063-0.219,0.098-0.345,0.104-0.378c0.009-0.06,0.014-0.119,0.014-0.176
		c0-0.105-0.029-0.188-0.085-0.248c-0.057-0.06-0.135-0.09-0.234-0.09c-0.078,0-0.2,0.018-0.365,0.054l-0.059-0.162l1.518-0.423
		H76.635z"/>
	<path d="M78.941,30.657h8.335v0.634h-8.335V30.657z M78.941,33.176h8.335v0.633h-8.335V33.176z"/>
	<path d="M92.808,33.531l-0.317,1.027h-4.001l0.317-1.027H92.808z"/>
	<path d="M98.81,26.787c0.659,0,1.214,0.275,1.665,0.827s0.676,1.421,0.676,2.611c0,1.02-0.167,2.06-0.502,3.121
		c-0.334,1.061-0.806,1.98-1.414,2.758c-0.484,0.613-0.991,1.056-1.521,1.329c-0.309,0.154-0.667,0.232-1.074,0.232
		c-0.669,0-1.229-0.275-1.68-0.827s-0.676-1.424-0.676-2.619c0-1.179,0.227-2.364,0.68-3.554c0.531-1.391,1.208-2.446,2.032-3.167
		C97.536,27.024,98.141,26.787,98.81,26.787z M98.818,27.189c-0.299,0-0.602,0.117-0.908,0.352c-0.307,0.234-0.623,0.722-0.95,1.464
		c-0.327,0.741-0.64,1.697-0.938,2.866c-0.386,1.53-0.58,2.833-0.58,3.909c0,0.536,0.116,0.936,0.348,1.202
		c0.232,0.265,0.513,0.397,0.842,0.397c0.314,0,0.582-0.103,0.803-0.309c0.592-0.556,1.1-1.506,1.522-2.85
		c0.685-2.199,1.027-3.986,1.027-5.361c0-0.572-0.116-0.993-0.348-1.263C99.405,27.324,99.132,27.189,98.818,27.189z"/>
	<path d="M102.564,36.096c0.221,0,0.408,0.076,0.56,0.228c0.152,0.152,0.228,0.336,0.228,0.552s-0.077,0.4-0.231,0.552
		c-0.155,0.152-0.34,0.228-0.556,0.228s-0.401-0.076-0.553-0.228s-0.228-0.336-0.228-0.552s0.076-0.4,0.228-0.552
		S102.348,36.096,102.564,36.096z"/>
	<path d="M109.285,27.003h3.5l-0.355,1.274h-3.144l-0.579,1.291c0.834,0.134,1.483,0.394,1.947,0.78
		c0.716,0.603,1.074,1.445,1.074,2.526c0,0.716-0.133,1.363-0.398,1.943c-0.265,0.579-0.59,1.065-0.973,1.456
		c-0.384,0.392-0.795,0.7-1.232,0.927c-0.598,0.309-1.2,0.464-1.808,0.464c-0.52,0-0.932-0.113-1.236-0.34
		c-0.206-0.155-0.309-0.351-0.309-0.587c0-0.185,0.067-0.344,0.201-0.475s0.299-0.197,0.495-0.197c0.273,0,0.577,0.136,0.912,0.409
		c0.206,0.17,0.375,0.283,0.51,0.34c0.108,0.046,0.237,0.07,0.386,0.07c0.582,0,1.117-0.29,1.607-0.869
		c0.489-0.58,0.734-1.333,0.734-2.26c0-0.644-0.13-1.192-0.39-1.645c-0.26-0.453-0.591-0.773-0.993-0.958
		c-0.402-0.186-0.938-0.314-1.607-0.386L109.285,27.003z"/>
</g>
<g>
	<path d="M26.451,38.325c-0.036,0.257-0.054,0.471-0.054,0.641c0,0.458,0.162,0.849,0.486,1.17c0.325,0.322,0.719,0.482,1.182,0.482
		c0.371,0,0.727-0.076,1.07-0.228c0.342-0.152,0.851-0.488,1.526-1.008l0.162,0.224c-1.221,1.21-2.385,1.815-3.492,1.815
		c-0.752,0-1.318-0.237-1.7-0.711c-0.381-0.474-0.571-0.997-0.571-1.568c0-0.768,0.237-1.553,0.71-2.356
		c0.474-0.803,1.068-1.428,1.785-1.873c0.716-0.445,1.452-0.668,2.209-0.668c0.546,0,0.95,0.111,1.213,0.333
		c0.263,0.221,0.394,0.484,0.394,0.788c0,0.428-0.17,0.837-0.51,1.229c-0.448,0.51-1.107,0.922-1.978,1.236
		C28.307,38.042,27.496,38.207,26.451,38.325z M26.505,37.946c0.762-0.087,1.383-0.237,1.862-0.448
		c0.633-0.283,1.108-0.622,1.425-1.016c0.316-0.394,0.475-0.769,0.475-1.124c0-0.216-0.068-0.391-0.205-0.525
		c-0.136-0.134-0.331-0.201-0.583-0.201c-0.525,0-1.083,0.28-1.672,0.838C27.217,36.029,26.783,36.854,26.505,37.946z"/>
	<path d="M35.438,40.272l-1.45,5.048c-0.084,0.297-0.126,0.512-0.126,0.644c0,0.111,0.038,0.196,0.115,0.254s0.256,0.099,0.538,0.12
		l-0.045,0.167h-2.319l0.063-0.167c0.246-0.006,0.408-0.025,0.486-0.059c0.126-0.054,0.221-0.126,0.284-0.216
		c0.099-0.138,0.2-0.386,0.302-0.743l1.045-3.625c0.063-0.219,0.098-0.345,0.104-0.378c0.009-0.06,0.014-0.119,0.014-0.176
		c0-0.105-0.029-0.188-0.085-0.248c-0.057-0.06-0.135-0.09-0.234-0.09c-0.078,0-0.2,0.018-0.365,0.054l-0.059-0.162l1.518-0.423
		H35.438z"/>
</g>
<g>
	<line x1="40.233" y1="129.904" x2="126.216" y2="109.134"/>
	<g>
		
			<line fill="none" stroke="#000000" stroke-width="2" stroke-miterlimit="10" x1="41.969" y1="129.485" x2="119.241" y2="110.819"/>
		<g>
			<circle cx="42.06" cy="129.463" r="1.88"/>
		</g>
		<g>
			<polygon points="118.993,116.008 126.216,109.135 116.652,106.315 			"/>
		</g>
	</g>
</g>
<g>
	<path d="M68.86,102.045l0.533,5.794c0.896-1.051,1.612-2.037,2.147-2.959c0.314-0.541,0.471-0.932,0.471-1.174
		c0-0.113-0.026-0.214-0.077-0.301c-0.021-0.046-0.102-0.115-0.243-0.205c-0.142-0.09-0.241-0.183-0.298-0.278
		s-0.085-0.197-0.085-0.305c0-0.16,0.06-0.295,0.178-0.406c0.119-0.11,0.271-0.166,0.456-0.166c0.211,0,0.39,0.079,0.537,0.236
		c0.147,0.157,0.22,0.367,0.22,0.629c0,0.268-0.039,0.518-0.116,0.75c-0.155,0.443-0.456,1.015-0.904,1.715
		c-0.546,0.839-1.108,1.618-1.688,2.336s-1.011,1.222-1.294,1.511h-0.286l-0.502-5.346l-3.19,5.346h-0.34
		c-0.036-2.199-0.146-3.935-0.332-5.207c-0.077-0.531-0.206-0.878-0.386-1.043c-0.129-0.119-0.325-0.178-0.587-0.178
		c-0.149,0-0.34,0.015-0.571,0.046v-0.278l2.217-0.518c0.309,0.86,0.51,2.181,0.603,3.963c0.031,0.675,0.057,1.1,0.078,1.274
		l3.175-5.237H68.86z"/>
	<path d="M75.969,114.304h-3.04v-0.166c1.549-1.357,2.573-2.422,3.072-3.193c0.231-0.357,0.347-0.732,0.347-1.126
		c0-0.312-0.096-0.566-0.289-0.764c-0.192-0.196-0.441-0.295-0.748-0.295c-0.423,0-0.771,0.203-1.044,0.608l-0.158-0.072
		c0.153-0.388,0.376-0.688,0.671-0.903c0.294-0.214,0.612-0.321,0.955-0.321c0.388,0,0.713,0.133,0.978,0.398
		s0.396,0.588,0.396,0.966c0,0.265-0.047,0.509-0.14,0.734c-0.145,0.351-0.41,0.744-0.797,1.18
		c-0.588,0.666-1.374,1.434-2.355,2.302h1.531c0.246,0,0.449-0.052,0.608-0.153c0.159-0.103,0.273-0.239,0.342-0.41h0.18
		L75.969,114.304z"/>
	<path d="M78.941,102.215h8.335v0.634h-8.335V102.215z M78.941,104.733h8.335v0.633h-8.335V104.733z"/>
	<path d="M94.677,98.345l-2.488,8.659c-0.144,0.51-0.216,0.879-0.216,1.105c0,0.19,0.066,0.336,0.197,0.436
		c0.131,0.101,0.439,0.169,0.923,0.205l-0.077,0.286h-3.978l0.108-0.286c0.422-0.01,0.7-0.044,0.834-0.101
		c0.216-0.093,0.378-0.216,0.486-0.37c0.17-0.237,0.343-0.662,0.518-1.275l1.792-6.218c0.108-0.375,0.167-0.592,0.178-0.649
		c0.015-0.103,0.023-0.203,0.023-0.301c0-0.18-0.049-0.322-0.146-0.425c-0.098-0.103-0.232-0.154-0.402-0.154
		c-0.134,0-0.343,0.031-0.626,0.093l-0.1-0.278l2.603-0.726H94.677z"/>
</g>
<g>
	<path d="M26.451,126.992c-0.036,0.257-0.054,0.471-0.054,0.641c0,0.459,0.162,0.849,0.486,1.171
		c0.325,0.321,0.719,0.482,1.182,0.482c0.371,0,0.727-0.076,1.07-0.228c0.342-0.152,0.851-0.488,1.526-1.009l0.162,0.225
		c-1.221,1.21-2.385,1.815-3.492,1.815c-0.752,0-1.318-0.237-1.7-0.711c-0.381-0.474-0.571-0.997-0.571-1.568
		c0-0.768,0.237-1.553,0.71-2.356c0.474-0.803,1.068-1.428,1.785-1.873c0.716-0.445,1.452-0.668,2.209-0.668
		c0.546,0,0.95,0.11,1.213,0.332s0.394,0.484,0.394,0.788c0,0.428-0.17,0.837-0.51,1.229c-0.448,0.51-1.107,0.922-1.978,1.235
		C28.307,126.709,27.496,126.873,26.451,126.992z M26.505,126.613c0.762-0.088,1.383-0.237,1.862-0.448
		c0.633-0.283,1.108-0.622,1.425-1.016c0.316-0.395,0.475-0.769,0.475-1.124c0-0.217-0.068-0.392-0.205-0.525
		c-0.136-0.134-0.331-0.201-0.583-0.201c-0.525,0-1.083,0.28-1.672,0.839C27.217,124.696,26.783,125.521,26.505,126.613z"/>
	<path d="M34.772,135.172h-3.04v-0.166c1.549-1.357,2.573-2.422,3.072-3.193c0.231-0.357,0.347-0.732,0.347-1.126
		c0-0.312-0.096-0.566-0.289-0.764c-0.192-0.196-0.441-0.295-0.748-0.295c-0.423,0-0.771,0.203-1.044,0.608l-0.158-0.072
		c0.153-0.388,0.376-0.688,0.671-0.903c0.294-0.214,0.612-0.321,0.955-0.321c0.388,0,0.713,0.133,0.978,0.398
		s0.396,0.588,0.396,0.966c0,0.265-0.047,0.509-0.14,0.734c-0.145,0.351-0.41,0.744-0.797,1.18
		c-0.588,0.666-1.374,1.434-2.355,2.302h1.531c0.246,0,0.449-0.052,0.608-0.153c0.159-0.103,0.273-0.239,0.342-0.41h0.18
		L34.772,135.172z"/>
</g>
<g>
	<path d="M159.933,103.104v-2.119l10.23-12.879l-9.7-12.757v-2.405h18.789v2.935h-14.224v0.163l9.048,11.941l-9.537,12.023v0.122
		h15.977v2.976H159.933z"/>
</g>
<g>
	<line x1="225.899" y1="89.754" x2="260.844" y2="89.754"/>
	<g>
		<line fill="none" stroke="#000000" stroke-width="2" stroke-miterlimit="10" x1="225.899" y1="89.754" x2="253.669" y2="89.754"/>
		<g>
			<polygon points="252.21,94.74 260.844,89.754 252.21,84.768 			"/>
		</g>
	</g>
</g>
<rect x="317.923" y="59.399" fill="none" stroke="#000000" stroke-width="2" stroke-miterlimit="10" width="72" height="59.333"/>
<polyline fill="none" stroke="#000000" stroke-width="6" stroke-miterlimit="10" points="330.423,109.036 355.09,109.036 
	355.09,68.566 377.423,68.566 "/>
<g>
	<line x1="389.923" y1="88.582" x2="446.923" y2="88.582"/>
	<g>
		<line fill="none" stroke="#000000" stroke-width="2" stroke-miterlimit="10" x1="389.923" y1="88.582" x2="439.747" y2="88.582"/>
		<g>
			<polygon points="438.288,93.569 446.923,88.583 438.288,83.597 			"/>
		</g>
	</g>
</g>
<g>
	<path d="M461.329,84.57l-0.471,2.372h-0.286c-0.026-0.69-0.173-1.192-0.44-1.506c-0.268-0.314-0.6-0.471-0.996-0.471
		c-0.319,0-0.573,0.088-0.762,0.263c-0.188,0.175-0.281,0.386-0.281,0.633c0,0.17,0.037,0.333,0.111,0.487
		c0.075,0.154,0.238,0.371,0.491,0.649c0.669,0.731,1.102,1.282,1.298,1.653c0.195,0.371,0.293,0.721,0.293,1.05
		c0,0.536-0.223,1.011-0.668,1.425s-1.008,0.622-1.688,0.622c-0.371,0-0.799-0.088-1.283-0.263c-0.17-0.062-0.301-0.093-0.394-0.093
		c-0.231,0-0.407,0.119-0.525,0.355h-0.286l0.472-2.503h0.286c0.03,0.783,0.192,1.336,0.486,1.661
		c0.294,0.325,0.695,0.487,1.205,0.487c0.392,0,0.702-0.109,0.931-0.328c0.229-0.219,0.344-0.488,0.344-0.808
		c0-0.206-0.041-0.396-0.123-0.571c-0.145-0.309-0.447-0.737-0.908-1.283s-0.757-0.955-0.888-1.228
		c-0.132-0.273-0.197-0.546-0.197-0.819c0-0.5,0.182-0.922,0.544-1.267c0.363-0.345,0.831-0.518,1.402-0.518
		c0.165,0,0.314,0.013,0.448,0.039c0.072,0.016,0.24,0.074,0.506,0.174c0.266,0.101,0.441,0.151,0.529,0.151
		c0.222,0,0.407-0.121,0.557-0.363H461.329z"/>
	<path d="M469.17,84.57l-1.506,5.238l-0.17,0.703c-0.016,0.067-0.023,0.124-0.023,0.17c0,0.083,0.025,0.155,0.077,0.216
		c0.041,0.046,0.093,0.07,0.154,0.07c0.067,0,0.154-0.041,0.263-0.124c0.201-0.149,0.469-0.458,0.804-0.927l0.263,0.186
		c-0.355,0.536-0.722,0.944-1.098,1.224c-0.376,0.281-0.724,0.421-1.042,0.421c-0.222,0-0.388-0.056-0.499-0.166
		c-0.11-0.111-0.166-0.272-0.166-0.483c0-0.252,0.057-0.584,0.17-0.997l0.162-0.58c-0.675,0.881-1.295,1.496-1.861,1.846
		c-0.407,0.252-0.806,0.379-1.197,0.379c-0.376,0-0.7-0.156-0.974-0.467c-0.272-0.312-0.409-0.741-0.409-1.287
		c0-0.819,0.246-1.683,0.737-2.591c0.492-0.909,1.116-1.637,1.874-2.183c0.592-0.433,1.15-0.649,1.676-0.649
		c0.314,0,0.576,0.083,0.784,0.247c0.209,0.165,0.367,0.438,0.476,0.819l0.277-0.88L469.17,84.57z M466.42,84.972
		c-0.33,0-0.68,0.154-1.051,0.463c-0.525,0.438-0.992,1.087-1.402,1.947c-0.409,0.86-0.613,1.638-0.613,2.333
		c0,0.35,0.087,0.627,0.263,0.831c0.175,0.203,0.375,0.305,0.603,0.305c0.561,0,1.171-0.414,1.83-1.244
		c0.881-1.102,1.321-2.232,1.321-3.391c0-0.438-0.085-0.754-0.255-0.95S466.714,84.972,466.42,84.972z"/>
	<path d="M474.361,80.576l-2.643,9.193c-0.129,0.458-0.192,0.739-0.192,0.842c0,0.077,0.024,0.142,0.073,0.193
		c0.049,0.051,0.109,0.077,0.182,0.077c0.098,0,0.203-0.044,0.316-0.131c0.268-0.211,0.549-0.538,0.842-0.981l0.231,0.239
		c-0.489,0.69-0.939,1.172-1.352,1.445c-0.304,0.195-0.592,0.293-0.865,0.293c-0.195,0-0.359-0.067-0.49-0.201
		c-0.132-0.134-0.197-0.288-0.197-0.463c0-0.186,0.082-0.566,0.247-1.143l2.094-7.246c0.17-0.592,0.255-0.932,0.255-1.02
		c0-0.124-0.049-0.225-0.146-0.305c-0.098-0.08-0.25-0.12-0.456-0.12c-0.118,0-0.299,0.018-0.541,0.054v-0.286L474.361,80.576z"/>
	<path d="M477.69,84.57l-1.529,5.416c-0.104,0.366-0.154,0.584-0.154,0.656c0,0.083,0.024,0.149,0.073,0.201
		c0.049,0.051,0.106,0.077,0.174,0.077c0.077,0,0.17-0.041,0.277-0.124c0.294-0.232,0.59-0.562,0.889-0.989l0.271,0.178
		c-0.351,0.536-0.762,0.986-1.236,1.352c-0.35,0.273-0.685,0.41-1.004,0.41c-0.211,0-0.384-0.063-0.518-0.189
		s-0.201-0.285-0.201-0.475s0.064-0.507,0.193-0.95l1.004-3.461c0.165-0.566,0.248-0.921,0.248-1.066c0-0.113-0.04-0.206-0.12-0.278
		c-0.08-0.072-0.189-0.108-0.328-0.108c-0.113,0-0.348,0.028-0.703,0.085v-0.301L477.69,84.57z M477.59,81.503
		c0.217,0,0.399,0.075,0.549,0.224s0.224,0.332,0.224,0.548c0,0.211-0.076,0.393-0.228,0.545c-0.152,0.152-0.334,0.228-0.545,0.228
		s-0.393-0.076-0.544-0.228c-0.152-0.152-0.229-0.333-0.229-0.545c0-0.216,0.075-0.399,0.225-0.548
		C477.19,81.578,477.374,81.503,477.59,81.503z"/>
	<path d="M487.007,80.576l-2.657,9.115c-0.145,0.495-0.217,0.819-0.217,0.974c0,0.051,0.022,0.1,0.066,0.146
		c0.043,0.046,0.088,0.07,0.135,0.07c0.066,0,0.146-0.034,0.239-0.101c0.175-0.124,0.469-0.433,0.881-0.927l0.263,0.162
		c-0.371,0.515-0.745,0.932-1.124,1.251s-0.732,0.479-1.062,0.479c-0.175,0-0.319-0.062-0.433-0.186s-0.17-0.299-0.17-0.525
		c0-0.293,0.077-0.688,0.232-1.182l0.301-0.958c-0.747,1.154-1.427,1.952-2.039,2.395c-0.423,0.304-0.827,0.456-1.213,0.456
		c-0.392,0-0.732-0.174-1.023-0.521s-0.437-0.82-0.437-1.417c0-0.768,0.244-1.586,0.733-2.457c0.489-0.871,1.136-1.579,1.939-2.125
		c0.633-0.438,1.215-0.657,1.745-0.657c0.278,0,0.518,0.057,0.719,0.17s0.399,0.301,0.595,0.564l0.757-2.688
		c0.057-0.191,0.104-0.343,0.14-0.456c0.062-0.206,0.093-0.376,0.093-0.51c0-0.108-0.039-0.198-0.116-0.271
		c-0.108-0.087-0.247-0.131-0.417-0.131c-0.118,0-0.314,0.018-0.587,0.054v-0.286L487.007,80.576z M484.141,86.061
		c0-0.33-0.095-0.595-0.285-0.796c-0.191-0.201-0.433-0.301-0.727-0.301c-0.649,0-1.325,0.536-2.028,1.607
		c-0.702,1.071-1.054,2.096-1.054,3.074c0,0.386,0.085,0.681,0.255,0.885s0.373,0.305,0.61,0.305c0.535,0,1.207-0.58,2.016-1.738
		S484.141,86.926,484.141,86.061z"/>
	<path d="M493.781,84.57l-1.506,5.238l-0.17,0.703c-0.016,0.067-0.023,0.124-0.023,0.17c0,0.083,0.025,0.155,0.077,0.216
		c0.041,0.046,0.093,0.07,0.154,0.07c0.067,0,0.154-0.041,0.263-0.124c0.201-0.149,0.469-0.458,0.804-0.927l0.263,0.186
		c-0.355,0.536-0.722,0.944-1.098,1.224c-0.376,0.281-0.724,0.421-1.042,0.421c-0.222,0-0.388-0.056-0.499-0.166
		c-0.11-0.111-0.166-0.272-0.166-0.483c0-0.252,0.057-0.584,0.17-0.997l0.162-0.58c-0.675,0.881-1.295,1.496-1.861,1.846
		c-0.407,0.252-0.806,0.379-1.197,0.379c-0.376,0-0.7-0.156-0.974-0.467c-0.272-0.312-0.409-0.741-0.409-1.287
		c0-0.819,0.246-1.683,0.737-2.591c0.492-0.909,1.116-1.637,1.874-2.183c0.592-0.433,1.15-0.649,1.676-0.649
		c0.314,0,0.576,0.083,0.784,0.247c0.209,0.165,0.367,0.438,0.476,0.819l0.277-0.88L493.781,84.57z M491.031,84.972
		c-0.33,0-0.68,0.154-1.051,0.463c-0.525,0.438-0.992,1.087-1.402,1.947c-0.409,0.86-0.613,1.638-0.613,2.333
		c0,0.35,0.087,0.627,0.263,0.831c0.175,0.203,0.375,0.305,0.603,0.305c0.561,0,1.171-0.414,1.83-1.244
		c0.881-1.102,1.321-2.232,1.321-3.391c0-0.438-0.085-0.754-0.255-0.95S491.325,84.972,491.031,84.972z"/>
	<path d="M501.197,94.821l-0.263,0.124c-0.613-1.169-1.054-2.201-1.321-3.098c-0.206-0.7-0.309-1.406-0.309-2.117
		c0-1.658,0.384-3.144,1.15-4.457c0.942-1.607,2.47-3.172,4.581-4.697l0.186,0.271c-0.953,0.706-1.73,1.496-2.333,2.372
		c-0.752,1.092-1.367,2.41-1.846,3.955c-0.479,1.545-0.719,2.951-0.719,4.218C500.324,92.359,500.615,93.502,501.197,94.821z"/>
	<path d="M510.097,80.87l-2.488,8.66c-0.144,0.51-0.216,0.878-0.216,1.105c0,0.19,0.065,0.336,0.197,0.436
		c0.131,0.101,0.438,0.169,0.923,0.205l-0.077,0.286h-3.979l0.108-0.286c0.422-0.01,0.7-0.044,0.834-0.101
		c0.217-0.093,0.379-0.216,0.486-0.371c0.17-0.237,0.343-0.662,0.518-1.275l1.793-6.219c0.107-0.375,0.167-0.592,0.178-0.649
		c0.015-0.103,0.022-0.203,0.022-0.301c0-0.18-0.049-0.322-0.146-0.425s-0.231-0.154-0.401-0.154c-0.134,0-0.343,0.031-0.626,0.093
		l-0.101-0.278l2.604-0.726H510.097z"/>
	<path d="M517.435,80.576L511.549,91.8h-0.681l5.926-11.224H517.435z"/>
	<path d="M521.267,80.87c0.659,0,1.214,0.275,1.664,0.827c0.451,0.551,0.677,1.421,0.677,2.611c0,1.02-0.168,2.06-0.503,3.121
		c-0.334,1.061-0.806,1.98-1.413,2.758c-0.484,0.613-0.991,1.056-1.521,1.329c-0.31,0.154-0.667,0.232-1.074,0.232
		c-0.67,0-1.229-0.275-1.681-0.827c-0.45-0.551-0.676-1.424-0.676-2.619c0-1.179,0.227-2.364,0.68-3.554
		c0.531-1.391,1.208-2.446,2.032-3.167C519.992,81.106,520.597,80.87,521.267,80.87z M521.274,81.271
		c-0.299,0-0.602,0.117-0.908,0.352s-0.623,0.722-0.95,1.464c-0.327,0.741-0.64,1.697-0.938,2.866
		c-0.386,1.53-0.579,2.833-0.579,3.909c0,0.536,0.116,0.936,0.348,1.202c0.231,0.265,0.513,0.397,0.842,0.397
		c0.314,0,0.582-0.103,0.804-0.309c0.592-0.556,1.1-1.506,1.521-2.85c0.685-2.199,1.027-3.986,1.027-5.361
		c0-0.572-0.115-0.993-0.348-1.263C521.861,81.407,521.588,81.271,521.274,81.271z"/>
	<path d="M526.01,80.723l0.262-0.146c0.613,1.164,1.051,2.194,1.313,3.09c0.211,0.701,0.317,1.406,0.317,2.117
		c0,1.664-0.384,3.149-1.151,4.458c-0.947,1.612-2.475,3.18-4.581,4.704l-0.186-0.239c0.953-0.71,1.73-1.501,2.333-2.372
		c0.752-1.092,1.367-2.411,1.847-3.959c0.479-1.547,0.718-2.955,0.718-4.222C526.882,83.185,526.591,82.042,526.01,80.723z"/>
</g>
<g>
	<line x1="271.911" y1="150.004" x2="271.911" y2="102.404"/>
	<g>
		
			<line fill="none" stroke="#000000" stroke-width="2" stroke-miterlimit="10" x1="271.911" y1="148.218" x2="271.911" y2="109.58"/>
		<g>
			<circle cx="271.911" cy="148.124" r="1.88"/>
		</g>
		<g>
			<polygon points="276.898,111.039 271.912,102.404 266.925,111.039 			"/>
		</g>
	</g>
</g>
<g>
	<path d="M270.36,154.971c1.076,0,1.903,0.447,2.482,1.342c0.579,0.894,0.868,2.178,0.868,3.854c0,1.805-0.287,3.186-0.86,4.146
		c-0.574,0.961-1.399,1.441-2.476,1.441c-1.137,0-1.991-0.457-2.562-1.371c-0.571-0.915-0.857-2.279-0.857-4.094
		c0-1.676,0.3-2.98,0.899-3.916C268.454,155.438,269.289,154.971,270.36,154.971z M272.166,159.721c0-0.072,0.003-0.17,0.008-0.296
		s0.008-0.216,0.008-0.272c0-1.317-0.146-2.281-0.438-2.891s-0.753-0.914-1.383-0.914c-0.656,0-1.134,0.343-1.434,1.029
		c-0.3,0.688-0.457,1.801-0.473,3.344H272.166z M268.454,160.273v0.361c0,1.748,0.142,2.971,0.427,3.67
		c0.284,0.7,0.765,1.05,1.44,1.05c0.692,0,1.173-0.342,1.441-1.026c0.27-0.684,0.403-2.035,0.403-4.055H268.454z"/>
	<path d="M274.718,158.775h8.294v0.63h-8.294V158.775z M274.718,161.281h8.294v0.63h-8.294V161.281z"/>
	<path d="M285.156,156.162l2.536-1.238h0.254v8.801c0,0.584,0.024,0.948,0.072,1.092c0.049,0.144,0.15,0.254,0.304,0.33
		c0.154,0.077,0.467,0.121,0.938,0.131v0.285h-3.92v-0.285c0.491-0.01,0.81-0.053,0.953-0.127c0.143-0.074,0.243-0.174,0.299-0.299
		c0.057-0.126,0.085-0.502,0.085-1.127v-5.626c0-0.758-0.025-1.245-0.077-1.46c-0.035-0.164-0.101-0.285-0.195-0.361
		c-0.096-0.077-0.209-0.115-0.343-0.115c-0.189,0-0.453,0.08-0.791,0.238L285.156,156.162z"/>
</g>
<circle fill="none" stroke="#000000" stroke-width="2" stroke-miterlimit="10" cx="271.911" cy="89.754" r="11.067"/>
<g>
	<line x1="282.978" y1="89.754" x2="317.923" y2="89.754"/>
	<g>
		<line fill="none" stroke="#000000" stroke-width="2" stroke-miterlimit="10" x1="282.978" y1="89.754" x2="310.747" y2="89.754"/>
		<g>
			<polygon points="309.288,94.74 317.923,89.754 309.288,84.768 			"/>
		</g>
	</g>
</g>
<g>
</g>
<g>
</g>
<g>
</g>
<g>
</g>
<g>
</g>
<g>
</g>
<g>
</g>
<g>
</g>
<g>
</g>
<g>
</g>
</svg>
