<?xml version="1.0" encoding="utf-8"?>
<!-- Generator: Adobe Illustrator 17.0.0, SVG Export Plug-In . SVG Version: 6.00 Build 0)  -->
<!DOCTYPE svg PUBLIC "-//W3C//DTD SVG 1.1//EN" "http://www.w3.org/Graphics/SVG/1.1/DTD/svg11.dtd">
<svg version="1.1" id="Capa_1" xmlns="http://www.w3.org/2000/svg" xmlns:xlink="http://www.w3.org/1999/xlink" x="0px" y="0px"
	 width="528px" height="181.5px" viewBox="0 0 528 181.5" enable-background="new 0 0 528 181.5" xml:space="preserve">
<ellipse fill="#E5CE45" stroke="#000000" stroke-width="2" stroke-miterlimit="10" cx="271.5" cy="92" rx="75.5" ry="45"/>
<g>
	<g>
		<line fill="none" stroke="#000000" stroke-width="2" stroke-miterlimit="10" x1="45.961" y1="33.882" x2="191.069" y2="70.843"/>
		<g>
			<circle cx="46.143" cy="33.928" r="3.76"/>
		</g>
		<g>
			<polygon points="187.102,77.551 201.5,73.501 190.795,63.056 			"/>
		</g>
	</g>
</g>
<g>
	<g>
		<line fill="none" stroke="#000000" stroke-width="2" stroke-miterlimit="10" x1="46.072" y1="92" x2="184.736" y2="92"/>
		<g>
			<circle cx="46.26" cy="92" r="3.76"/>
		</g>
		<g>
			<polygon points="182.548,99.479 195.5,92.001 182.548,84.521 			"/>
		</g>
	</g>
</g>
<g>
	<g>
		
			<line fill="none" stroke="#000000" stroke-width="2" stroke-miterlimit="10" x1="45.975" y1="145.673" x2="189.529" y2="111.493"/>
		<g>
			<circle cx="46.158" cy="145.629" r="3.76"/>
		</g>
		<g>
			<polygon points="189.133,119.276 200,109.001 185.668,104.725 			"/>
		</g>
	</g>
</g>
<g>
	<g>
		<line fill="none" stroke="#000000" stroke-width="2" stroke-miterlimit="10" x1="347" y1="92" x2="386.236" y2="92"/>
		<g>
			<polygon points="384.048,99.479 397,92.001 384.048,84.521 			"/>
		</g>
	</g>
</g>
<g>
	<path d="M282.945,82.008l-1.047,0.019c-0.863-3.72-2.628-5.58-5.294-5.58l-14.834-0.057l9.293,14.282l-10.417,12.854l15.558-0.019
		c1.777,0,3.107-0.391,3.989-1.172c0.883-0.78,1.73-2.313,2.543-4.599h1.143l-1.752,9.122H255.39l12.13-14.739L256,74.372
		l26.432-0.038L282.945,82.008z"/>
</g>
<g>
	<path d="M17.892,92.699l1.27-1.611c0.137-0.176,0.248-0.347,0.332-0.513s0.127-0.337,0.127-0.513c0-0.15-0.055-0.274-0.166-0.372
		s-0.283-0.169-0.518-0.215v-0.479h3.193v0.479c-0.248,0.072-0.5,0.211-0.757,0.42s-0.571,0.543-0.942,1.006l-2.021,2.48
		l2.227,2.998c0.319,0.43,0.605,0.758,0.859,0.986c0.254,0.228,0.508,0.391,0.762,0.488v0.479h-3.926v-0.479
		c0.541-0.065,0.811-0.268,0.811-0.605c0-0.137-0.023-0.268-0.068-0.391c-0.045-0.124-0.13-0.268-0.254-0.43l-1.416-1.973
		L15.9,96.41c-0.111,0.143-0.197,0.274-0.259,0.396c-0.062,0.12-0.093,0.255-0.093,0.405c0,0.176,0.06,0.32,0.181,0.435
		c0.121,0.113,0.311,0.184,0.571,0.21v0.479h-3.262v-0.479c0.215-0.078,0.409-0.176,0.581-0.293s0.348-0.269,0.527-0.454
		s0.415-0.458,0.708-0.815l2.031-2.52l-2.08-2.852c-0.287-0.391-0.514-0.674-0.684-0.85c-0.169-0.176-0.326-0.31-0.469-0.401
		s-0.287-0.156-0.43-0.195v-0.479h3.828v0.479c-0.514,0.078-0.771,0.28-0.771,0.606c0,0.149,0.034,0.299,0.103,0.449
		c0.068,0.149,0.174,0.315,0.317,0.498L17.892,92.699z"/>
	<path d="M28.989,95.785c0,0.377,0.021,0.662,0.063,0.854c0.042,0.191,0.117,0.348,0.225,0.469c0.107,0.12,0.262,0.215,0.464,0.283
		s0.456,0.12,0.762,0.156c0.306,0.035,0.709,0.06,1.211,0.073v0.713h-7.217v-0.713c0.723-0.033,1.239-0.077,1.548-0.132
		c0.309-0.056,0.545-0.139,0.708-0.249c0.163-0.111,0.282-0.268,0.356-0.469c0.075-0.202,0.112-0.531,0.112-0.986v-7.92
		c0-0.26-0.045-0.451-0.137-0.571s-0.225-0.181-0.4-0.181c-0.208,0-0.504,0.107-0.889,0.322s-0.859,0.511-1.426,0.889l-0.43-0.752
		l4.57-2.725h0.537c-0.039,0.625-0.059,1.491-0.059,2.598V95.785z"/>
</g>
<g>
	<path d="M19.245,147.008l1.27-1.611c0.137-0.176,0.248-0.347,0.332-0.513s0.127-0.337,0.127-0.513c0-0.149-0.055-0.273-0.166-0.371
		s-0.283-0.169-0.518-0.215v-0.479h3.193v0.479c-0.248,0.072-0.5,0.212-0.757,0.42c-0.257,0.209-0.571,0.544-0.942,1.006
		l-2.021,2.48l2.227,2.998c0.319,0.43,0.605,0.759,0.859,0.986c0.254,0.229,0.508,0.391,0.762,0.488v0.479h-3.926v-0.479
		c0.541-0.064,0.811-0.267,0.811-0.605c0-0.137-0.023-0.267-0.068-0.391c-0.045-0.123-0.13-0.267-0.254-0.43l-1.416-1.973
		l-1.504,1.953c-0.111,0.144-0.197,0.275-0.259,0.396c-0.062,0.121-0.093,0.256-0.093,0.405c0,0.176,0.06,0.321,0.181,0.435
		c0.121,0.114,0.311,0.185,0.571,0.21v0.479h-3.262v-0.479c0.215-0.078,0.409-0.176,0.581-0.293s0.348-0.269,0.527-0.454
		s0.415-0.457,0.708-0.815l2.031-2.52l-2.08-2.852c-0.287-0.391-0.514-0.674-0.684-0.85s-0.326-0.309-0.469-0.4
		c-0.143-0.091-0.287-0.156-0.43-0.195v-0.479h3.828v0.479c-0.514,0.078-0.771,0.28-0.771,0.605c0,0.15,0.034,0.3,0.103,0.449
		c0.068,0.15,0.174,0.316,0.317,0.498L19.245,147.008z"/>
	<path d="M30.41,151.08c0.319,0,0.576-0.02,0.771-0.059s0.352-0.104,0.469-0.195c0.117-0.091,0.21-0.21,0.278-0.356
		s0.155-0.372,0.259-0.679h0.83l-0.166,2.852h-8.037v-0.469c0.28-0.684,0.658-1.383,1.133-2.1c0.475-0.716,1.149-1.559,2.021-2.529
		c0.755-0.833,1.299-1.465,1.631-1.895c0.365-0.469,0.636-0.874,0.815-1.216s0.308-0.664,0.386-0.967s0.117-0.606,0.117-0.913
		c0-0.488-0.078-0.919-0.234-1.294c-0.156-0.374-0.396-0.669-0.718-0.884s-0.728-0.322-1.216-0.322
		c-1.217,0-2.038,0.678-2.461,2.031h-1.182v-1.875c0.788-0.371,1.525-0.64,2.212-0.806s1.304-0.249,1.851-0.249
		c1.211,0,2.125,0.266,2.744,0.796c0.619,0.531,0.928,1.301,0.928,2.31c0,0.346-0.034,0.663-0.103,0.952
		c-0.068,0.29-0.176,0.576-0.322,0.859s-0.343,0.588-0.591,0.913c-0.248,0.326-0.521,0.656-0.82,0.991
		c-0.299,0.336-0.817,0.894-1.553,1.675c-1.237,1.309-2.145,2.451-2.725,3.428H30.41z"/>
</g>
<g>
	<path d="M26.113,30.149l0.039,0.01c0.456-0.475,0.835-0.82,1.138-1.035s0.615-0.379,0.938-0.493s0.675-0.171,1.06-0.171
		c0.697,0,1.294,0.177,1.792,0.532s0.882,0.887,1.152,1.597s0.405,1.579,0.405,2.607c0,1.061-0.161,1.958-0.483,2.69
		s-0.797,1.286-1.426,1.66s-1.372,0.562-2.231,0.562c-0.482,0-0.936-0.044-1.362-0.132s-0.874-0.243-1.343-0.464l-0.684,0.596
		l-0.674-0.156V27.336c0-0.625-0.005-1.061-0.015-1.309s-0.036-0.458-0.078-0.63s-0.101-0.308-0.176-0.405s-0.176-0.176-0.303-0.234
		s-0.356-0.117-0.688-0.176v-0.508l2.363-0.098h0.576V30.149z M26.113,34.436c0,0.501,0.023,0.9,0.068,1.196
		s0.122,0.542,0.229,0.737s0.264,0.375,0.469,0.537s0.435,0.275,0.688,0.337s0.537,0.093,0.85,0.093
		c0.781,0,1.374-0.319,1.777-0.957s0.605-1.595,0.605-2.871c0-1.289-0.184-2.257-0.552-2.905s-0.923-0.972-1.665-0.972
		c-0.371,0-0.687,0.057-0.947,0.171s-0.519,0.292-0.776,0.532s-0.446,0.479-0.566,0.713s-0.181,0.501-0.181,0.801V34.436z"/>
</g>
<g>
	<path d="M89.293,73.705l-2.559,7.344h-1.357l-2.344-7.246c-0.15-0.469-0.275-0.799-0.376-0.991s-0.208-0.335-0.322-0.43
		s-0.298-0.174-0.552-0.239v-0.479h3.857v0.479c-0.377,0.078-0.633,0.181-0.767,0.308s-0.2,0.317-0.2,0.571
		c0,0.176,0.02,0.36,0.059,0.552s0.098,0.415,0.176,0.669l1.533,4.98l2.51-7.559h1.377l2.129,7.559l1.719-4.775
		c0.091-0.248,0.166-0.483,0.225-0.708s0.088-0.435,0.088-0.63c0-0.273-0.073-0.485-0.22-0.635s-0.396-0.26-0.747-0.332v-0.479
		h3.408v0.479c-0.182,0.045-0.319,0.093-0.41,0.142s-0.181,0.121-0.269,0.215s-0.186,0.241-0.293,0.439s-0.243,0.506-0.405,0.923
		l-2.822,7.188h-1.318L89.293,73.705z"/>
	<path d="M100.666,86.174c0,0.22,0.012,0.386,0.037,0.498c0.025,0.112,0.068,0.203,0.131,0.273c0.062,0.07,0.152,0.125,0.271,0.165
		c0.117,0.04,0.266,0.07,0.444,0.091c0.178,0.021,0.414,0.035,0.706,0.043v0.416h-4.208v-0.416c0.421-0.019,0.722-0.044,0.902-0.077
		c0.18-0.032,0.318-0.081,0.413-0.145c0.095-0.064,0.164-0.156,0.208-0.273c0.043-0.117,0.065-0.309,0.065-0.575v-4.618
		c0-0.151-0.026-0.263-0.08-0.333c-0.053-0.07-0.131-0.105-0.233-0.105c-0.122,0-0.294,0.062-0.518,0.188
		c-0.224,0.125-0.501,0.298-0.831,0.518l-0.251-0.438l2.665-1.588h0.313c-0.023,0.364-0.034,0.869-0.034,1.514V86.174z"/>
</g>
<g>
	<path d="M96.793,112.459l-2.559,7.344h-1.357l-2.344-7.246c-0.15-0.469-0.275-0.8-0.376-0.991c-0.101-0.192-0.208-0.336-0.322-0.43
		c-0.114-0.095-0.298-0.175-0.552-0.239v-0.479h3.857v0.479c-0.377,0.078-0.633,0.181-0.767,0.308s-0.2,0.317-0.2,0.571
		c0,0.176,0.02,0.359,0.059,0.552c0.039,0.191,0.098,0.415,0.176,0.669l1.533,4.98l2.51-7.559h1.377l2.129,7.559l1.719-4.775
		c0.091-0.248,0.166-0.483,0.225-0.708s0.088-0.435,0.088-0.63c0-0.273-0.073-0.485-0.22-0.635c-0.146-0.15-0.396-0.261-0.747-0.332
		v-0.479h3.408v0.479c-0.182,0.045-0.319,0.093-0.41,0.142s-0.181,0.12-0.269,0.215c-0.088,0.094-0.186,0.24-0.293,0.439
		c-0.107,0.198-0.243,0.506-0.405,0.923l-2.822,7.188h-1.318L96.793,112.459z"/>
	<path d="M108.205,125.503c0.186,0,0.336-0.012,0.45-0.034c0.114-0.022,0.205-0.061,0.273-0.114
		c0.068-0.053,0.123-0.122,0.162-0.207c0.04-0.086,0.09-0.218,0.151-0.396h0.484l-0.097,1.663h-4.686v-0.273
		c0.163-0.398,0.383-0.807,0.661-1.225c0.277-0.417,0.67-0.908,1.178-1.475c0.44-0.485,0.757-0.854,0.951-1.104
		c0.212-0.272,0.371-0.509,0.475-0.708s0.179-0.388,0.225-0.564c0.045-0.176,0.068-0.354,0.068-0.532
		c0-0.284-0.046-0.536-0.137-0.754c-0.091-0.219-0.23-0.39-0.418-0.516c-0.188-0.125-0.424-0.188-0.709-0.188
		c-0.71,0-1.188,0.395-1.435,1.185h-0.689v-1.094c0.459-0.216,0.889-0.373,1.29-0.47s0.76-0.145,1.079-0.145
		c0.706,0,1.239,0.154,1.6,0.464c0.36,0.309,0.541,0.758,0.541,1.346c0,0.202-0.02,0.387-0.06,0.556
		c-0.04,0.169-0.103,0.336-0.188,0.501c-0.085,0.165-0.2,0.343-0.344,0.532s-0.304,0.383-0.478,0.578
		c-0.175,0.195-0.477,0.521-0.905,0.977c-0.721,0.763-1.251,1.429-1.588,1.998H108.205z"/>
</g>
<g>
	<path d="M105.293,31.466l-2.559,7.344h-1.357l-2.344-7.246c-0.15-0.469-0.275-0.799-0.376-0.991s-0.208-0.335-0.322-0.43
		s-0.298-0.174-0.552-0.239v-0.479h3.857v0.479c-0.377,0.078-0.633,0.181-0.767,0.308s-0.2,0.317-0.2,0.571
		c0,0.176,0.02,0.36,0.059,0.552s0.098,0.415,0.176,0.669l1.533,4.98l2.51-7.559h1.377l2.129,7.559l1.719-4.775
		c0.091-0.248,0.166-0.483,0.225-0.708s0.088-0.435,0.088-0.63c0-0.273-0.073-0.485-0.22-0.635s-0.396-0.26-0.747-0.332v-0.479
		h3.408v0.479c-0.182,0.045-0.319,0.093-0.41,0.142s-0.181,0.121-0.269,0.215s-0.186,0.241-0.293,0.439s-0.243,0.506-0.405,0.923
		l-2.822,7.188h-1.318L105.293,31.466z"/>
	<path d="M115.874,45.512c-0.82,0-1.43-0.323-1.831-0.968c-0.4-0.645-0.601-1.625-0.601-2.938c0-0.698,0.062-1.302,0.185-1.811
		s0.296-0.929,0.518-1.261c0.222-0.332,0.489-0.578,0.8-0.737c0.312-0.159,0.651-0.239,1.02-0.239c0.831,0,1.45,0.321,1.856,0.962
		c0.406,0.642,0.609,1.611,0.609,2.909c0,1.344-0.217,2.36-0.652,3.049S116.709,45.512,115.874,45.512z M114.553,41.436
		c0,1.237,0.115,2.146,0.344,2.724c0.229,0.579,0.585,0.868,1.068,0.868c0.459,0,0.8-0.272,1.021-0.817
		c0.222-0.544,0.333-1.388,0.333-2.531c0-0.873-0.057-1.58-0.171-2.121s-0.272-0.929-0.476-1.164s-0.449-0.353-0.737-0.353
		c-0.262,0-0.481,0.078-0.658,0.233c-0.176,0.156-0.318,0.379-0.427,0.672c-0.108,0.292-0.185,0.648-0.23,1.067
		C114.576,40.435,114.553,40.908,114.553,41.436z"/>
</g>
<g>
	<path d="M516.399,96.607c-1.354,0-2.388-0.398-3.101-1.196c-0.713-0.797-1.069-1.978-1.069-3.54c0-1.074,0.188-1.982,0.562-2.724
		c0.375-0.742,0.888-1.294,1.538-1.655c0.651-0.361,1.394-0.542,2.227-0.542c1.394,0,2.448,0.405,3.164,1.216
		c0.717,0.811,1.074,1.974,1.074,3.491c0,1.081-0.179,1.992-0.537,2.734c-0.357,0.742-0.865,1.298-1.523,1.665
		C518.076,96.424,517.298,96.607,516.399,96.607z M514.075,91.666c0,1.342,0.214,2.372,0.64,3.091
		c0.427,0.72,1.037,1.079,1.831,1.079c0.437,0,0.808-0.105,1.113-0.317c0.307-0.211,0.556-0.496,0.747-0.854
		c0.192-0.357,0.331-0.772,0.415-1.245c0.085-0.472,0.127-0.965,0.127-1.479c0-0.957-0.105-1.751-0.317-2.382
		c-0.211-0.631-0.499-1.095-0.864-1.392c-0.364-0.296-0.781-0.444-1.25-0.444c-0.787,0-1.392,0.342-1.812,1.025
		S514.075,90.403,514.075,91.666z"/>
</g>
<circle fill="#E5CE45" stroke="#000000" stroke-width="2" stroke-miterlimit="10" cx="426.75" cy="92.25" r="28.75"/>
<g>
	<path d="M406.152,94.171c0.136,0.596,0.318,1.065,0.549,1.411c0.229,0.345,0.527,0.601,0.894,0.767
		c0.365,0.166,0.836,0.249,1.411,0.249c0.792,0,1.399-0.207,1.822-0.62c0.423-0.412,0.635-1.015,0.635-1.807
		c0-0.508-0.088-0.935-0.264-1.279c-0.177-0.346-0.464-0.671-0.863-0.976s-1.009-0.659-1.828-1.065
		c-0.792-0.393-1.418-0.777-1.878-1.153c-0.461-0.375-0.804-0.783-1.03-1.223c-0.228-0.44-0.341-0.921-0.341-1.442
		c0-0.758,0.178-1.417,0.533-1.975s0.877-0.99,1.563-1.294c0.688-0.305,1.475-0.457,2.361-0.457c0.514,0,1.017,0.027,1.508,0.081
		c0.49,0.054,1.104,0.176,1.843,0.366v2.742h-1.005c-0.156-0.596-0.353-1.06-0.589-1.391c-0.237-0.332-0.515-0.563-0.833-0.696
		c-0.318-0.132-0.731-0.198-1.239-0.198c-0.439,0-0.834,0.081-1.183,0.244c-0.349,0.162-0.624,0.408-0.827,0.736
		c-0.203,0.329-0.305,0.72-0.305,1.173c0,0.481,0.086,0.887,0.259,1.219s0.441,0.64,0.808,0.924
		c0.365,0.284,0.906,0.603,1.624,0.955c0.866,0.433,1.538,0.835,2.016,1.208c0.478,0.373,0.85,0.798,1.117,1.274
		c0.268,0.478,0.4,1.034,0.4,1.671c0,0.711-0.111,1.312-0.335,1.802c-0.223,0.491-0.533,0.891-0.929,1.198
		c-0.396,0.309-0.87,0.531-1.422,0.67s-1.155,0.209-1.812,0.209c-1.062,0-2.288-0.18-3.675-0.538v-2.782H406.152z"/>
	<path d="M424.409,88.647l-1.878-0.071l-0.092,0.111c0.21,0.21,0.376,0.496,0.497,0.858c0.122,0.362,0.184,0.753,0.184,1.172
		c0,1.104-0.341,1.955-1.021,2.554c-0.681,0.6-1.647,0.899-2.899,0.899c-0.562,0-1.046-0.071-1.452-0.214
		c-0.515,0.393-0.771,0.778-0.771,1.158c0,0.25,0.049,0.439,0.147,0.568c0.098,0.129,0.261,0.22,0.487,0.274
		c0.227,0.054,0.57,0.081,1.03,0.081h2.438c0.717,0,1.303,0.111,1.756,0.335c0.454,0.224,0.777,0.522,0.97,0.898
		c0.193,0.376,0.29,0.813,0.29,1.315c0,0.636-0.183,1.203-0.549,1.7c-0.365,0.498-0.894,0.885-1.584,1.163
		c-0.69,0.277-1.496,0.416-2.416,0.416c-0.685,0-1.309-0.041-1.874-0.122c-0.564-0.081-1.049-0.218-1.451-0.411
		c-0.403-0.192-0.715-0.446-0.935-0.762c-0.22-0.314-0.33-0.709-0.33-1.183c0-0.427,0.143-0.814,0.427-1.163
		s0.687-0.654,1.208-0.919c-0.318-0.128-0.568-0.317-0.751-0.568c-0.184-0.25-0.274-0.545-0.274-0.883
		c0-0.387,0.108-0.74,0.325-1.062c0.216-0.321,0.599-0.688,1.147-1.102c-0.488-0.284-0.858-0.67-1.112-1.157
		s-0.381-1.043-0.381-1.666c0-0.582,0.097-1.087,0.289-1.518c0.193-0.43,0.461-0.785,0.803-1.066s0.746-0.491,1.213-0.629
		c0.468-0.139,0.972-0.208,1.514-0.208c0.487,0,0.971,0.058,1.451,0.173h3.595V88.647z M417.616,97.491
		c-0.345,0.257-0.604,0.529-0.776,0.817c-0.173,0.287-0.259,0.614-0.259,0.979c0,0.609,0.241,1.058,0.726,1.346
		c0.484,0.287,1.224,0.432,2.219,0.432c0.609,0,1.132-0.082,1.568-0.244s0.771-0.396,1-0.7c0.23-0.305,0.346-0.66,0.346-1.066
		c0-0.189-0.023-0.374-0.071-0.554c-0.047-0.18-0.137-0.34-0.269-0.482c-0.133-0.142-0.32-0.255-0.563-0.34
		c-0.244-0.085-0.562-0.127-0.955-0.127h-1.513C418.521,97.552,418.036,97.531,417.616,97.491z M417.362,90.708
		c0,0.847,0.173,1.499,0.519,1.96c0.345,0.46,0.842,0.69,1.492,0.69c0.345,0,0.64-0.066,0.884-0.198
		c0.243-0.132,0.441-0.312,0.594-0.543s0.264-0.496,0.335-0.797c0.071-0.302,0.106-0.618,0.106-0.95
		c0-0.595-0.085-1.092-0.254-1.492c-0.169-0.399-0.399-0.692-0.69-0.878c-0.291-0.187-0.626-0.279-1.005-0.279
		c-0.644,0-1.134,0.213-1.473,0.64C417.531,89.287,417.362,89.903,417.362,90.708z"/>
	<path d="M428.176,92.19c0,2.369,0.381,4.322,1.143,5.858c0.762,1.537,1.924,2.565,3.488,3.087l-0.244,0.782
		c-1.983-0.521-3.503-1.644-4.559-3.366c-1.057-1.723-1.584-3.81-1.584-6.26c0-2.443,0.529-4.53,1.589-6.26
		c1.059-1.729,2.577-2.854,4.554-3.376l0.274,0.782c-1.584,0.521-2.757,1.539-3.519,3.051
		C428.557,88.002,428.176,89.903,428.176,92.19z"/>
	<path d="M438.503,91.47l1.319-1.675c0.143-0.183,0.258-0.36,0.346-0.533c0.088-0.172,0.132-0.35,0.132-0.533
		c0-0.156-0.058-0.285-0.173-0.386s-0.294-0.176-0.538-0.223v-0.498h3.32v0.498c-0.257,0.075-0.52,0.22-0.787,0.437
		s-0.594,0.565-0.979,1.046l-2.102,2.579l2.314,3.117c0.332,0.446,0.63,0.788,0.894,1.025c0.265,0.237,0.528,0.406,0.792,0.508
		v0.497h-4.081v-0.497c0.562-0.067,0.843-0.277,0.843-0.63c0-0.142-0.024-0.277-0.071-0.406c-0.048-0.128-0.136-0.277-0.265-0.446
		l-1.472-2.052l-1.563,2.031c-0.115,0.148-0.205,0.286-0.27,0.411s-0.097,0.266-0.097,0.422c0,0.183,0.062,0.333,0.188,0.451
		c0.125,0.119,0.323,0.191,0.594,0.219v0.497h-3.392v-0.497c0.224-0.081,0.425-0.183,0.604-0.305
		c0.179-0.122,0.362-0.279,0.548-0.473c0.187-0.192,0.432-0.476,0.736-0.848l2.112-2.619l-2.163-2.965
		c-0.298-0.406-0.535-0.7-0.711-0.883c-0.176-0.183-0.338-0.321-0.487-0.416c-0.148-0.095-0.298-0.163-0.446-0.203v-0.498h3.979
		v0.498c-0.534,0.081-0.802,0.291-0.802,0.629c0,0.156,0.035,0.312,0.106,0.467s0.182,0.328,0.33,0.518L438.503,91.47z"/>
	<path d="M448.321,92.19c0-2.288-0.38-4.188-1.138-5.701c-0.758-1.513-1.933-2.53-3.523-3.051l0.274-0.782
		c1.977,0.521,3.494,1.646,4.554,3.376c1.06,1.73,1.589,3.816,1.589,6.26c0,2.45-0.527,4.537-1.584,6.26
		c-1.056,1.723-2.575,2.845-4.559,3.366l-0.244-0.782c1.564-0.521,2.727-1.55,3.488-3.087
		C447.94,96.513,448.321,94.56,448.321,92.19z"/>
</g>
<g>
	<g>
		<line fill="none" stroke="#000000" stroke-width="2" stroke-miterlimit="10" x1="456.5" y1="92" x2="495.736" y2="92"/>
		<g>
			<polygon points="493.548,99.479 506.5,92.001 493.548,84.521 			"/>
		</g>
	</g>
</g>
<g>
</g>
<g>
</g>
<g>
</g>
<g>
</g>
<g>
</g>
<g>
</g>
<g>
</g>
</svg>
