<?xml version="1.0" encoding="utf-8"?>
<!-- Generator: Adobe Illustrator 17.0.0, SVG Export Plug-In . SVG Version: 6.00 Build 0)  -->
<!DOCTYPE svg PUBLIC "-//W3C//DTD SVG 1.1//EN" "http://www.w3.org/Graphics/SVG/1.1/DTD/svg11.dtd">
<svg version="1.1" id="Capa_1" xmlns="http://www.w3.org/2000/svg" xmlns:xlink="http://www.w3.org/1999/xlink" x="0px" y="0px"
	 width="578.667px" height="181.5px" viewBox="0 0 578.667 181.5" enable-background="new 0 0 578.667 181.5" xml:space="preserve">
<ellipse fill="#E5CE45" stroke="#000000" stroke-width="2" stroke-miterlimit="10" cx="271.5" cy="92" rx="75.5" ry="45"/>
<g>
	<g>
		<line fill="none" stroke="#000000" stroke-width="2" stroke-miterlimit="10" x1="45.961" y1="33.882" x2="191.069" y2="70.843"/>
		<g>
			<circle cx="46.143" cy="33.928" r="3.76"/>
		</g>
		<g>
			<polygon points="187.102,77.551 201.5,73.501 190.795,63.056 			"/>
		</g>
	</g>
</g>
<g>
	<g>
		<line fill="none" stroke="#000000" stroke-width="2" stroke-miterlimit="10" x1="46.032" y1="63.529" x2="185.355" y2="84.405"/>
		<g>
			<circle cx="46.218" cy="63.557" r="3.76"/>
		</g>
		<g>
			<polygon points="182.083,91.478 196,86.001 184.299,76.685 			"/>
		</g>
	</g>
</g>
<g>
	<g>
		
			<line fill="none" stroke="#000000" stroke-width="2" stroke-miterlimit="10" x1="45.975" y1="145.673" x2="189.529" y2="111.493"/>
		<g>
			<circle cx="46.158" cy="145.629" r="3.76"/>
		</g>
		<g>
			<polygon points="189.133,119.276 200,109.001 185.668,104.725 			"/>
		</g>
	</g>
</g>
<g>
	<g>
		<line fill="none" stroke="#000000" stroke-width="2" stroke-miterlimit="10" x1="347" y1="92" x2="386.236" y2="92"/>
		<g>
			<polygon points="384.048,99.479 397,92.001 384.048,84.521 			"/>
		</g>
	</g>
</g>
<g>
	<path d="M252.945,82.008l-1.047,0.019c-0.863-3.72-2.628-5.58-5.294-5.58l-14.834-0.057l9.293,14.282l-10.417,12.854l15.558-0.019
		c1.777,0,3.107-0.391,3.99-1.172c0.882-0.78,1.729-2.313,2.542-4.599h1.143l-1.752,9.122H225.39l12.13-14.739L226,74.372
		l26.432-0.038L252.945,82.008z"/>
</g>
<g>
	<path d="M29.064,28.673c-0.417,0.436-0.799,0.778-1.147,1.025s-0.731,0.441-1.147,0.581s-0.875,0.21-1.377,0.21
		c-1.341,0-2.354-0.402-3.037-1.206s-1.025-1.991-1.025-3.56c0-0.97,0.174-1.826,0.522-2.568s0.845-1.315,1.489-1.719
		s1.387-0.605,2.227-0.605c0.658,0,1.217,0.104,1.68,0.312s0.832,0.493,1.108,0.854s0.492,0.817,0.645,1.367
		s0.239,1.268,0.259,2.153h-6.152v0.176c0,0.768,0.086,1.415,0.259,1.938s0.456,0.934,0.85,1.23s0.907,0.444,1.538,0.444
		c0.534,0,1.014-0.099,1.44-0.298s0.851-0.522,1.274-0.972L29.064,28.673z M27.423,24.708c-0.039-0.703-0.127-1.278-0.264-1.724
		s-0.342-0.788-0.615-1.025s-0.631-0.356-1.074-0.356c-0.67,0-1.206,0.269-1.606,0.806s-0.636,1.304-0.708,2.3H27.423z"/>
	<path d="M33.747,35.508c0,0.22,0.012,0.386,0.037,0.498c0.025,0.112,0.068,0.203,0.131,0.273c0.062,0.07,0.152,0.125,0.271,0.165
		c0.117,0.04,0.266,0.07,0.444,0.091c0.178,0.021,0.414,0.035,0.706,0.043v0.416h-4.208v-0.416c0.421-0.019,0.722-0.044,0.902-0.077
		c0.18-0.032,0.318-0.081,0.413-0.145c0.095-0.064,0.164-0.156,0.208-0.273c0.043-0.117,0.065-0.309,0.065-0.575V30.89
		c0-0.151-0.026-0.263-0.08-0.333c-0.053-0.07-0.131-0.105-0.233-0.105c-0.122,0-0.294,0.062-0.518,0.188
		c-0.224,0.125-0.501,0.298-0.831,0.518l-0.251-0.438l2.665-1.588h0.313c-0.023,0.364-0.034,0.869-0.034,1.514V35.508z"/>
</g>
<g>
	<path d="M29.064,65.482c-0.417,0.436-0.799,0.778-1.147,1.025s-0.731,0.441-1.147,0.581s-0.875,0.21-1.377,0.21
		c-1.341,0-2.354-0.402-3.037-1.206s-1.025-1.991-1.025-3.56c0-0.97,0.174-1.826,0.522-2.568s0.845-1.315,1.489-1.719
		s1.387-0.605,2.227-0.605c0.658,0,1.217,0.104,1.68,0.312s0.832,0.493,1.108,0.854s0.492,0.817,0.645,1.367
		s0.239,1.268,0.259,2.153h-6.152v0.176c0,0.768,0.086,1.415,0.259,1.938s0.456,0.934,0.85,1.23s0.907,0.444,1.538,0.444
		c0.534,0,1.014-0.099,1.44-0.298s0.851-0.522,1.274-0.972L29.064,65.482z M27.423,61.518c-0.039-0.703-0.127-1.278-0.264-1.724
		s-0.342-0.788-0.615-1.025s-0.631-0.356-1.074-0.356c-0.67,0-1.206,0.269-1.606,0.806s-0.636,1.304-0.708,2.3H27.423z"/>
	<path d="M33.787,72.892c0.186,0,0.336-0.011,0.45-0.034c0.114-0.022,0.205-0.061,0.273-0.114s0.123-0.122,0.162-0.208
		c0.04-0.085,0.09-0.217,0.151-0.396h0.484l-0.097,1.663h-4.686v-0.273c0.163-0.398,0.383-0.806,0.661-1.224
		c0.277-0.417,0.67-0.909,1.178-1.475c0.44-0.485,0.757-0.854,0.951-1.104c0.212-0.273,0.371-0.509,0.475-0.708
		s0.179-0.387,0.225-0.564c0.045-0.176,0.068-0.354,0.068-0.532c0-0.285-0.046-0.536-0.137-0.754
		c-0.091-0.218-0.23-0.39-0.418-0.515c-0.188-0.125-0.424-0.188-0.709-0.188c-0.71,0-1.188,0.395-1.435,1.185h-0.689v-1.093
		c0.459-0.216,0.889-0.373,1.29-0.47s0.76-0.145,1.079-0.145c0.706,0,1.239,0.154,1.6,0.464c0.36,0.309,0.541,0.758,0.541,1.346
		c0,0.202-0.02,0.386-0.06,0.555c-0.04,0.169-0.103,0.336-0.188,0.501c-0.085,0.165-0.2,0.343-0.344,0.533
		c-0.144,0.189-0.304,0.382-0.478,0.578c-0.175,0.195-0.477,0.521-0.905,0.977c-0.721,0.763-1.251,1.429-1.588,1.998H33.787z"/>
</g>
<g>
	<path d="M78.293,52.705l-2.559,7.344h-1.357l-2.344-7.246c-0.15-0.469-0.275-0.799-0.376-0.991s-0.208-0.335-0.322-0.43
		s-0.298-0.174-0.552-0.239v-0.479h3.857v0.479c-0.377,0.078-0.633,0.181-0.767,0.308s-0.2,0.317-0.2,0.571
		c0,0.176,0.02,0.36,0.059,0.552s0.098,0.415,0.176,0.669l1.533,4.98l2.51-7.559h1.377l2.129,7.559l1.719-4.775
		c0.091-0.248,0.166-0.483,0.225-0.708s0.088-0.435,0.088-0.63c0-0.273-0.073-0.485-0.22-0.635s-0.396-0.26-0.747-0.332v-0.479
		h3.408v0.479c-0.182,0.045-0.319,0.093-0.41,0.142s-0.181,0.121-0.269,0.215s-0.186,0.241-0.293,0.439s-0.243,0.506-0.405,0.923
		l-2.822,7.188h-1.318L78.293,52.705z"/>
	<path d="M89.705,65.749c0.186,0,0.336-0.011,0.45-0.034c0.114-0.022,0.205-0.061,0.273-0.114s0.123-0.122,0.162-0.208
		c0.04-0.085,0.09-0.217,0.151-0.396h0.484l-0.097,1.663h-4.686v-0.273c0.163-0.398,0.383-0.806,0.661-1.224
		c0.277-0.417,0.67-0.909,1.178-1.475c0.44-0.485,0.757-0.854,0.951-1.104c0.212-0.273,0.371-0.509,0.475-0.708
		s0.179-0.387,0.225-0.564c0.045-0.176,0.068-0.354,0.068-0.532c0-0.285-0.046-0.536-0.137-0.754
		c-0.091-0.218-0.23-0.39-0.418-0.515c-0.188-0.125-0.424-0.188-0.709-0.188c-0.71,0-1.188,0.395-1.435,1.185h-0.689v-1.093
		c0.459-0.216,0.889-0.373,1.29-0.47s0.76-0.145,1.079-0.145c0.706,0,1.239,0.154,1.6,0.464c0.36,0.309,0.541,0.758,0.541,1.346
		c0,0.202-0.02,0.386-0.06,0.555c-0.04,0.169-0.103,0.336-0.188,0.501c-0.085,0.165-0.2,0.343-0.344,0.533
		c-0.144,0.189-0.304,0.382-0.478,0.578c-0.175,0.195-0.477,0.521-0.905,0.977c-0.721,0.763-1.251,1.429-1.588,1.998H89.705z"/>
</g>
<g>
	<path d="M105.293,31.466l-2.559,7.344h-1.357l-2.344-7.246c-0.15-0.469-0.275-0.799-0.376-0.991s-0.208-0.335-0.322-0.43
		s-0.298-0.174-0.552-0.239v-0.479h3.857v0.479c-0.377,0.078-0.633,0.181-0.767,0.308s-0.2,0.317-0.2,0.571
		c0,0.176,0.02,0.36,0.059,0.552s0.098,0.415,0.176,0.669l1.533,4.98l2.51-7.559h1.377l2.129,7.559l1.719-4.775
		c0.091-0.248,0.166-0.483,0.225-0.708s0.088-0.435,0.088-0.63c0-0.273-0.073-0.485-0.22-0.635s-0.396-0.26-0.747-0.332v-0.479
		h3.408v0.479c-0.182,0.045-0.319,0.093-0.41,0.142s-0.181,0.121-0.269,0.215s-0.186,0.241-0.293,0.439s-0.243,0.506-0.405,0.923
		l-2.822,7.188h-1.318L105.293,31.466z"/>
	<path d="M116.666,43.935c0,0.22,0.012,0.386,0.037,0.498c0.025,0.112,0.068,0.203,0.131,0.273c0.062,0.07,0.152,0.125,0.271,0.165
		c0.117,0.04,0.266,0.07,0.444,0.091c0.178,0.021,0.414,0.035,0.706,0.043v0.416h-4.208v-0.416c0.421-0.019,0.722-0.044,0.902-0.077
		c0.18-0.032,0.318-0.081,0.413-0.145c0.095-0.064,0.164-0.156,0.208-0.273c0.043-0.117,0.065-0.309,0.065-0.575v-4.618
		c0-0.151-0.026-0.263-0.08-0.333c-0.053-0.07-0.131-0.105-0.233-0.105c-0.122,0-0.294,0.062-0.518,0.188
		c-0.224,0.125-0.501,0.298-0.831,0.518l-0.251-0.438l2.665-1.588h0.313c-0.023,0.364-0.034,0.869-0.034,1.514V43.935z"/>
</g>
<g>
	<path d="M518.694,89.254h-0.938c-0.143-0.391-0.312-0.698-0.508-0.923s-0.416-0.382-0.664-0.474
		c-0.247-0.091-0.55-0.137-0.908-0.137c-0.521,0-0.936,0.122-1.245,0.366c-0.309,0.244-0.464,0.578-0.464,1.001
		c0,0.299,0.062,0.547,0.186,0.742c0.124,0.195,0.316,0.377,0.576,0.546c0.261,0.17,0.72,0.395,1.377,0.674
		c0.664,0.287,1.177,0.551,1.538,0.791c0.361,0.241,0.645,0.521,0.85,0.84c0.205,0.319,0.308,0.7,0.308,1.143
		c0,0.515-0.088,0.947-0.264,1.299s-0.423,0.639-0.742,0.859c-0.318,0.222-0.698,0.381-1.138,0.479s-0.919,0.146-1.44,0.146
		c-0.547,0-1.077-0.04-1.592-0.122c-0.514-0.081-1.016-0.187-1.504-0.317v-2.041h0.957c0.176,0.6,0.437,1.034,0.781,1.304
		c0.346,0.271,0.82,0.405,1.426,0.405c0.234,0,0.464-0.024,0.688-0.073s0.425-0.13,0.601-0.244c0.176-0.113,0.316-0.269,0.42-0.464
		c0.104-0.195,0.156-0.439,0.156-0.732c0-0.332-0.064-0.602-0.195-0.811c-0.13-0.208-0.332-0.398-0.605-0.571
		c-0.273-0.172-0.755-0.405-1.445-0.698c-0.592-0.247-1.067-0.488-1.426-0.723c-0.357-0.234-0.64-0.511-0.845-0.83
		c-0.205-0.318-0.308-0.696-0.308-1.132c0-0.534,0.146-0.998,0.435-1.392c0.29-0.394,0.708-0.695,1.255-0.903
		s1.188-0.312,1.924-0.312c0.43,0,0.845,0.021,1.245,0.063s0.903,0.125,1.509,0.249V89.254z"/>
	<path d="M526.11,95.055l-0.146-0.039c-0.566,0.58-1.099,0.99-1.597,1.23c-0.498,0.241-1.027,0.361-1.587,0.361
		c-0.495,0-0.932-0.096-1.309-0.288c-0.378-0.191-0.668-0.462-0.869-0.811c-0.202-0.348-0.303-0.75-0.303-1.206
		c0-0.95,0.47-1.685,1.411-2.202c0.94-0.518,2.352-0.818,4.233-0.903v-0.635c0-0.677-0.065-1.21-0.195-1.601
		c-0.131-0.391-0.336-0.677-0.615-0.859c-0.28-0.182-0.654-0.273-1.123-0.273c-0.508,0-0.917,0.133-1.226,0.4
		c-0.31,0.267-0.542,0.667-0.698,1.201h-1.279v-1.27c0.625-0.326,1.146-0.565,1.562-0.718c0.416-0.153,0.833-0.273,1.25-0.361
		c0.416-0.088,0.84-0.132,1.27-0.132c0.645,0,1.162,0.103,1.553,0.308s0.684,0.519,0.879,0.942s0.293,1.061,0.293,1.914v3.398
		c0,0.482,0.003,0.822,0.01,1.021c0.006,0.199,0.025,0.383,0.059,0.552c0.032,0.17,0.081,0.305,0.146,0.405
		c0.064,0.102,0.161,0.188,0.288,0.259c0.127,0.072,0.333,0.146,0.62,0.225v0.479h-2.676L526.11,95.055z M525.944,91.998
		c-1.322,0.014-2.312,0.189-2.969,0.527c-0.658,0.339-0.986,0.85-0.986,1.533c0,0.371,0.074,0.664,0.225,0.879
		c0.149,0.215,0.338,0.363,0.566,0.444c0.228,0.082,0.498,0.122,0.811,0.122c0.442,0,0.845-0.107,1.206-0.322
		s0.643-0.488,0.845-0.82c0.201-0.332,0.303-0.66,0.303-0.986V91.998z"/>
	<path d="M532.559,94.01c0,0.561,0.025,0.949,0.078,1.167c0.052,0.219,0.151,0.385,0.298,0.498c0.146,0.114,0.386,0.214,0.718,0.298
		v0.479h-3.877v-0.479c0.325-0.084,0.552-0.172,0.679-0.264c0.127-0.091,0.218-0.2,0.273-0.327c0.055-0.127,0.094-0.299,0.117-0.518
		c0.022-0.218,0.034-0.503,0.034-0.854v-8.173c0-0.625-0.005-1.061-0.015-1.309s-0.036-0.458-0.078-0.63
		c-0.043-0.172-0.102-0.308-0.176-0.405c-0.075-0.098-0.176-0.176-0.303-0.234s-0.356-0.117-0.688-0.176v-0.508l2.354-0.098h0.586
		V94.01z"/>
	<path d="M535.101,95.973c0.254-0.078,0.435-0.146,0.542-0.205s0.199-0.14,0.273-0.244c0.075-0.104,0.134-0.264,0.176-0.479
		c0.043-0.215,0.063-0.55,0.063-1.006v-4.257c0-0.417-0.006-0.752-0.02-1.006c-0.013-0.254-0.059-0.458-0.137-0.61
		s-0.196-0.267-0.356-0.342c-0.159-0.075-0.386-0.138-0.679-0.19v-0.518l2.275-0.088h0.596v6.982c0,0.561,0.026,0.949,0.078,1.167
		c0.053,0.219,0.151,0.385,0.298,0.498c0.146,0.114,0.386,0.214,0.718,0.298v0.479h-3.828V95.973z M537.894,83.288v1.895h-1.797
		v-1.895H537.894z"/>
	<path d="M546.969,85.836c0-0.625-0.005-1.061-0.015-1.309s-0.035-0.458-0.078-0.63c-0.042-0.172-0.101-0.308-0.176-0.405
		c-0.074-0.098-0.176-0.176-0.303-0.234s-0.356-0.117-0.688-0.176v-0.508l2.363-0.098h0.576v11.308c0,0.508,0.01,0.871,0.029,1.089
		c0.02,0.219,0.062,0.393,0.127,0.522c0.065,0.131,0.168,0.236,0.308,0.317c0.141,0.082,0.386,0.158,0.737,0.229v0.508l-2.305,0.098
		h-0.586l0.117-1.602l-0.146-0.039c-0.41,0.437-0.767,0.764-1.069,0.981c-0.303,0.219-0.625,0.393-0.967,0.522
		c-0.342,0.131-0.708,0.195-1.099,0.195c-1.067,0-1.891-0.405-2.471-1.216c-0.579-0.811-0.869-1.98-0.869-3.511
		c0-1.067,0.189-1.974,0.566-2.719c0.378-0.746,0.888-1.3,1.528-1.665c0.642-0.365,1.362-0.547,2.163-0.547
		c0.43,0,0.82,0.034,1.172,0.103s0.713,0.181,1.084,0.337V85.836z M546.969,90.66c0-0.508-0.022-0.914-0.068-1.22
		c-0.045-0.306-0.122-0.563-0.229-0.771s-0.252-0.384-0.435-0.527c-0.182-0.143-0.382-0.248-0.601-0.312
		c-0.218-0.065-0.479-0.098-0.786-0.098c-0.833,0-1.468,0.333-1.904,1.001c-0.436,0.667-0.654,1.625-0.654,2.875
		s0.18,2.201,0.537,2.852c0.358,0.651,0.902,0.977,1.631,0.977c0.287,0,0.524-0.024,0.713-0.073
		c0.189-0.049,0.375-0.127,0.557-0.234c0.183-0.107,0.368-0.255,0.557-0.444c0.189-0.188,0.327-0.361,0.415-0.518
		s0.155-0.335,0.2-0.537c0.046-0.201,0.068-0.462,0.068-0.781V90.66z"/>
	<path d="M556.836,95.055l-0.146-0.039c-0.566,0.58-1.099,0.99-1.597,1.23c-0.498,0.241-1.027,0.361-1.587,0.361
		c-0.495,0-0.932-0.096-1.309-0.288c-0.378-0.191-0.668-0.462-0.869-0.811c-0.202-0.348-0.303-0.75-0.303-1.206
		c0-0.95,0.47-1.685,1.411-2.202c0.94-0.518,2.352-0.818,4.233-0.903v-0.635c0-0.677-0.065-1.21-0.195-1.601
		c-0.131-0.391-0.336-0.677-0.615-0.859c-0.28-0.182-0.654-0.273-1.123-0.273c-0.508,0-0.917,0.133-1.226,0.4
		c-0.31,0.267-0.542,0.667-0.698,1.201h-1.279v-1.27c0.625-0.326,1.146-0.565,1.562-0.718c0.416-0.153,0.833-0.273,1.25-0.361
		c0.416-0.088,0.84-0.132,1.27-0.132c0.645,0,1.162,0.103,1.553,0.308s0.684,0.519,0.879,0.942s0.293,1.061,0.293,1.914v3.398
		c0,0.482,0.003,0.822,0.01,1.021c0.006,0.199,0.025,0.383,0.059,0.552c0.032,0.17,0.081,0.305,0.146,0.405
		c0.064,0.102,0.161,0.188,0.288,0.259c0.127,0.072,0.333,0.146,0.62,0.225v0.479h-2.676L556.836,95.055z M556.67,91.998
		c-1.322,0.014-2.312,0.189-2.969,0.527c-0.658,0.339-0.986,0.85-0.986,1.533c0,0.371,0.074,0.664,0.225,0.879
		c0.149,0.215,0.338,0.363,0.566,0.444c0.228,0.082,0.498,0.122,0.811,0.122c0.442,0,0.845-0.107,1.206-0.322
		s0.643-0.488,0.845-0.82c0.201-0.332,0.303-0.66,0.303-0.986V91.998z"/>
</g>
<circle fill="#E5CE45" stroke="#000000" stroke-width="2" stroke-miterlimit="10" cx="426.75" cy="92.25" r="28.75"/>
<g>
	<path d="M418.736,88.814l-1.626-0.062l-0.079,0.097c0.182,0.182,0.325,0.429,0.431,0.743s0.158,0.651,0.158,1.015
		c0,0.955-0.295,1.692-0.884,2.211s-1.425,0.777-2.509,0.777c-0.486,0-0.905-0.062-1.257-0.185c-0.445,0.34-0.668,0.674-0.668,1.002
		c0,0.217,0.042,0.381,0.127,0.492s0.226,0.19,0.422,0.237s0.494,0.07,0.893,0.07h2.109c0.621,0,1.128,0.097,1.521,0.29
		s0.672,0.453,0.839,0.778s0.251,0.704,0.251,1.138c0,0.551-0.158,1.042-0.475,1.473s-0.773,0.766-1.371,1.006
		s-1.295,0.36-2.092,0.36c-0.592,0-1.133-0.035-1.622-0.105s-0.908-0.188-1.257-0.355s-0.618-0.387-0.809-0.659
		s-0.285-0.614-0.285-1.024c0-0.369,0.123-0.704,0.369-1.006s0.595-0.567,1.046-0.796c-0.275-0.111-0.492-0.275-0.65-0.492
		s-0.237-0.472-0.237-0.765c0-0.334,0.094-0.64,0.281-0.918s0.519-0.597,0.993-0.954c-0.422-0.246-0.743-0.58-0.963-1.002
		s-0.329-0.902-0.329-1.441c0-0.504,0.083-0.941,0.25-1.313s0.398-0.68,0.694-0.923s0.646-0.425,1.051-0.545s0.841-0.18,1.31-0.18
		c0.422,0,0.841,0.05,1.257,0.149h3.111V88.814z M412.856,96.469c-0.299,0.223-0.523,0.459-0.673,0.708s-0.224,0.531-0.224,0.848
		c0,0.527,0.209,0.916,0.628,1.165s1.06,0.373,1.921,0.373c0.527,0,0.979-0.07,1.357-0.211s0.667-0.343,0.866-0.606
		s0.299-0.571,0.299-0.923c0-0.164-0.021-0.323-0.062-0.479s-0.119-0.295-0.233-0.418s-0.276-0.221-0.487-0.294
		s-0.486-0.11-0.826-0.11h-1.31C413.639,96.521,413.22,96.504,412.856,96.469z M412.637,90.598c0,0.732,0.149,1.298,0.448,1.696
		s0.729,0.598,1.292,0.598c0.299,0,0.554-0.057,0.765-0.171s0.382-0.271,0.514-0.471s0.229-0.429,0.29-0.689
		s0.093-0.535,0.093-0.822c0-0.516-0.073-0.946-0.22-1.292s-0.346-0.599-0.598-0.76s-0.542-0.242-0.87-0.242
		c-0.557,0-0.981,0.185-1.274,0.554S412.637,89.901,412.637,90.598z"/>
	<path d="M421.997,91.881c0,2.051,0.329,3.741,0.988,5.071s1.666,2.221,3.02,2.672l-0.211,0.677
		c-1.717-0.451-3.032-1.422-3.946-2.913s-1.371-3.298-1.371-5.419c0-2.115,0.458-3.921,1.375-5.418s2.231-2.471,3.942-2.922
		l0.237,0.677c-1.371,0.451-2.387,1.332-3.046,2.641S421.997,89.901,421.997,91.881z"/>
	<path d="M430.936,91.257l1.143-1.45c0.123-0.158,0.223-0.312,0.299-0.461s0.114-0.303,0.114-0.461c0-0.135-0.05-0.246-0.149-0.334
		s-0.255-0.152-0.466-0.193v-0.431h2.874v0.431c-0.223,0.064-0.45,0.19-0.682,0.378s-0.514,0.489-0.848,0.905l-1.819,2.232
		l2.004,2.698c0.287,0.387,0.545,0.683,0.773,0.888s0.457,0.352,0.686,0.439v0.431h-3.533v-0.431
		c0.486-0.059,0.729-0.24,0.729-0.545c0-0.123-0.021-0.24-0.062-0.352s-0.117-0.24-0.229-0.387l-1.274-1.775l-1.354,1.758
		c-0.1,0.129-0.178,0.248-0.233,0.356s-0.083,0.229-0.083,0.364c0,0.158,0.054,0.289,0.162,0.392s0.28,0.165,0.515,0.188v0.431
		h-2.936v-0.431c0.193-0.07,0.367-0.158,0.522-0.264s0.313-0.241,0.475-0.408s0.374-0.412,0.638-0.734l1.828-2.268l-1.872-2.566
		c-0.258-0.352-0.463-0.606-0.615-0.765s-0.293-0.278-0.422-0.36s-0.258-0.141-0.387-0.176v-0.431h3.445v0.431
		c-0.463,0.07-0.694,0.252-0.694,0.545c0,0.135,0.03,0.27,0.092,0.404s0.157,0.284,0.286,0.448L430.936,91.257z"/>
	<path d="M439.435,91.881c0-1.98-0.328-3.625-0.984-4.935s-1.673-2.19-3.05-2.641l0.237-0.677c1.711,0.451,3.024,1.425,3.941,2.922
		s1.376,3.303,1.376,5.418c0,2.121-0.457,3.928-1.371,5.419s-2.229,2.462-3.946,2.913l-0.211-0.677
		c1.354-0.451,2.359-1.342,3.019-2.672S439.435,93.932,439.435,91.881z"/>
</g>
<g>
	<g>
		<line fill="none" stroke="#000000" stroke-width="2" stroke-miterlimit="10" x1="456.5" y1="92" x2="495.736" y2="92"/>
		<g>
			<polygon points="493.548,99.479 506.5,92.001 493.548,84.521 			"/>
		</g>
	</g>
</g>
<g>
	<path d="M85.293,114.959l-2.559,7.344h-1.357l-2.344-7.246c-0.15-0.469-0.275-0.8-0.376-0.991c-0.101-0.192-0.208-0.336-0.322-0.43
		c-0.114-0.095-0.298-0.175-0.552-0.239v-0.479h3.857v0.479c-0.377,0.078-0.633,0.181-0.767,0.308s-0.2,0.317-0.2,0.571
		c0,0.176,0.02,0.359,0.059,0.552c0.039,0.191,0.098,0.415,0.176,0.669l1.533,4.98l2.51-7.559h1.377l2.129,7.559l1.719-4.775
		c0.091-0.248,0.166-0.483,0.225-0.708s0.088-0.435,0.088-0.63c0-0.273-0.073-0.485-0.22-0.635c-0.146-0.15-0.396-0.261-0.747-0.332
		v-0.479h3.408v0.479c-0.182,0.045-0.319,0.093-0.41,0.142s-0.181,0.12-0.269,0.215c-0.088,0.094-0.186,0.24-0.293,0.439
		c-0.107,0.198-0.243,0.506-0.405,0.923l-2.822,7.188h-1.318L85.293,114.959z"/>
	<path d="M98.806,128.914h-2.243v-0.279c0.148-0.046,0.254-0.085,0.319-0.119s0.119-0.082,0.162-0.143s0.078-0.154,0.103-0.282
		c0.024-0.127,0.037-0.319,0.037-0.577v-1.492c0-0.266-0.008-0.507-0.023-0.723c-0.015-0.217-0.041-0.394-0.077-0.532
		c-0.036-0.139-0.08-0.247-0.131-0.325c-0.051-0.077-0.112-0.144-0.183-0.199c-0.07-0.055-0.151-0.099-0.242-0.131
		c-0.091-0.032-0.211-0.048-0.359-0.048s-0.289,0.029-0.421,0.088s-0.279,0.16-0.438,0.305c-0.16,0.145-0.275,0.286-0.348,0.427
		c-0.072,0.141-0.108,0.302-0.108,0.484v2.123c0,0.327,0.015,0.554,0.045,0.681s0.088,0.224,0.174,0.29s0.225,0.125,0.418,0.174
		v0.279h-2.232v-0.279c0.148-0.046,0.253-0.085,0.316-0.119s0.116-0.082,0.16-0.143c0.043-0.061,0.078-0.154,0.103-0.279
		c0.024-0.125,0.037-0.32,0.037-0.586v-2.482c0-0.243-0.004-0.438-0.011-0.587c-0.008-0.147-0.034-0.267-0.08-0.355
		c-0.046-0.089-0.115-0.155-0.208-0.199c-0.093-0.044-0.225-0.081-0.396-0.111v-0.302l1.332-0.051h0.347l-0.062,0.928l0.08,0.022
		c0.281-0.284,0.508-0.487,0.681-0.608c0.172-0.122,0.347-0.216,0.524-0.282c0.176-0.066,0.363-0.1,0.561-0.1
		c0.205,0,0.388,0.023,0.549,0.071c0.162,0.048,0.304,0.12,0.427,0.219c0.123,0.099,0.225,0.222,0.305,0.367
		c0.08,0.146,0.139,0.322,0.179,0.527c0.04,0.205,0.06,0.465,0.06,0.779v2.146c0,0.262,0.008,0.452,0.023,0.569
		c0.015,0.118,0.042,0.209,0.08,0.273s0.093,0.119,0.165,0.162c0.072,0.044,0.197,0.091,0.376,0.14V128.914z"/>
</g>
<g>
	<path d="M29.064,150.174c-0.417,0.436-0.799,0.777-1.147,1.025c-0.348,0.247-0.731,0.44-1.147,0.581
		c-0.417,0.14-0.875,0.21-1.377,0.21c-1.341,0-2.354-0.402-3.037-1.206c-0.684-0.805-1.025-1.991-1.025-3.56
		c0-0.971,0.174-1.826,0.522-2.568s0.845-1.315,1.489-1.719c0.645-0.404,1.387-0.605,2.227-0.605c0.658,0,1.217,0.104,1.68,0.312
		c0.462,0.208,0.832,0.493,1.108,0.854s0.492,0.816,0.645,1.367c0.153,0.55,0.239,1.268,0.259,2.153h-6.152v0.176
		c0,0.768,0.086,1.414,0.259,1.938c0.172,0.523,0.456,0.934,0.85,1.23c0.394,0.296,0.907,0.444,1.538,0.444
		c0.534,0,1.014-0.1,1.44-0.298c0.426-0.199,0.851-0.522,1.274-0.972L29.064,150.174z M27.423,146.209
		c-0.039-0.703-0.127-1.278-0.264-1.724c-0.137-0.446-0.342-0.788-0.615-1.025c-0.273-0.238-0.631-0.356-1.074-0.356
		c-0.67,0-1.206,0.269-1.606,0.806s-0.636,1.304-0.708,2.3H27.423z"/>
	<path d="M35.888,158.494h-2.243v-0.279c0.148-0.046,0.254-0.085,0.319-0.119s0.119-0.082,0.162-0.143s0.078-0.154,0.103-0.282
		c0.024-0.127,0.037-0.319,0.037-0.577v-1.492c0-0.266-0.008-0.507-0.023-0.723c-0.015-0.217-0.041-0.394-0.077-0.532
		c-0.036-0.139-0.08-0.247-0.131-0.325c-0.051-0.077-0.112-0.144-0.183-0.199c-0.07-0.055-0.151-0.099-0.242-0.131
		c-0.091-0.032-0.211-0.048-0.359-0.048s-0.289,0.029-0.421,0.088s-0.279,0.16-0.438,0.305c-0.16,0.145-0.275,0.286-0.348,0.427
		c-0.072,0.141-0.108,0.302-0.108,0.484v2.123c0,0.327,0.015,0.554,0.045,0.681s0.088,0.224,0.174,0.29s0.225,0.125,0.418,0.174
		v0.279h-2.232v-0.279c0.148-0.046,0.253-0.085,0.316-0.119s0.116-0.082,0.16-0.143c0.043-0.061,0.078-0.154,0.103-0.279
		c0.024-0.125,0.037-0.32,0.037-0.586v-2.482c0-0.243-0.004-0.438-0.011-0.587c-0.008-0.147-0.034-0.267-0.08-0.355
		c-0.046-0.089-0.115-0.155-0.208-0.199c-0.093-0.044-0.225-0.081-0.396-0.111v-0.302L31.595,153h0.347l-0.062,0.928l0.08,0.022
		c0.281-0.284,0.508-0.487,0.681-0.608c0.172-0.122,0.347-0.216,0.524-0.282c0.176-0.066,0.363-0.1,0.561-0.1
		c0.205,0,0.388,0.023,0.549,0.071c0.162,0.048,0.304,0.12,0.427,0.219c0.123,0.099,0.225,0.222,0.305,0.367
		c0.08,0.146,0.139,0.322,0.179,0.527c0.04,0.205,0.06,0.465,0.06,0.779v2.146c0,0.262,0.008,0.452,0.023,0.569
		c0.015,0.118,0.042,0.209,0.08,0.273s0.093,0.119,0.165,0.162c0.072,0.044,0.197,0.091,0.376,0.14V158.494z"/>
</g>
<g>
</g>
<g>
	<circle cx="63.65" cy="90.981" r="1.729"/>
	<circle cx="63.65" cy="102.683" r="1.729"/>
	<circle cx="63.65" cy="114.386" r="1.729"/>
</g>
<line fill="none" stroke="#000000" stroke-miterlimit="10" x1="272.25" y1="48" x2="272.5" y2="136.5"/>
<g>
</g>
<g>
	<path d="M292.489,90.812c0-1.916,0.151-3.715,0.456-5.398c0.251-1.683,0.734-3.205,1.451-4.565c0.697-1.36,1.646-2.426,2.846-3.196
		c1.199-0.77,2.686-1.164,4.459-1.182c1.789,0.018,3.285,0.412,4.484,1.182c1.199,0.77,2.139,1.835,2.82,3.196
		c0.697,1.361,1.199,2.883,1.504,4.565c0.268,1.683,0.402,3.482,0.402,5.398c0,1.664-0.072,3.33-0.215,4.994
		c-0.215,1.666-0.636,3.205-1.262,4.619c-0.609,1.379-1.531,2.498-2.767,3.357c-1.271,0.877-2.927,1.324-4.968,1.343
		c-2.06-0.019-3.697-0.466-4.915-1.343c-1.235-0.859-2.167-1.979-2.793-3.357c-0.608-1.414-1.003-2.953-1.182-4.619
		C292.597,94.143,292.489,92.477,292.489,90.812z M296.223,91.939c-0.019,3.134,0.349,5.631,1.101,7.493
		c0.733,1.897,2.192,2.864,4.378,2.9c2.184-0.036,3.652-1.003,4.404-2.9c0.733-1.862,1.082-4.359,1.047-7.493H296.223z
		 M307.152,89.147c0-2.864-0.376-5.21-1.128-7.036c-0.806-1.844-2.247-2.784-4.323-2.82c-2.078,0.036-3.51,0.976-4.297,2.82
		c-0.807,1.826-1.2,4.172-1.182,7.036H307.152z"/>
</g>
<g>
</g>
<g>
</g>
<g>
</g>
<g>
</g>
<g>
</g>
<g>
</g>
<g>
</g>
</svg>
